0
SECTION
2
HEADER
9
$INSUNITS
70
4
9
$ACADVER
1
AC1014
9
$HANDSEED
5
FFFF
0
ENDSEC
0
SECTION
2
TABLES
0
TABLE
2
VPORT
5
8
100
AcDbSymbolTable
0
ENDTAB
0
TABLE
2
LTYPE
5
5
100
AcDbSymbolTable
0
LTYPE
5
14
100
AcDbSymbolTableRecord
100
AcDbLinetypeTableRecord
2
BYBLOCK
70
0
0
LTYPE
5
15
100
AcDbSymbolTableRecord
100
AcDbLinetypeTableRecord
2
BYLAYER
70
0
0
ENDTAB
0
TABLE
2
LAYER
5
2
100
AcDbSymbolTable
70
2
0
LAYER
5
50
100
AcDbSymbolTableRecord
100
AcDbLayerTableRecord
2
0
70
0
6
CONTINUOUS
0
ENDTAB
0
TABLE
2
STYLE
5
3
100
AcDbSymbolTable
70
1
0
STYLE
5
11
100
AcDbSymbolTableRecord
100
AcDbTextStyleTableRecord
2
STANDARD
70
0
0
ENDTAB
0
TABLE
2
VIEW
5
6
100
AcDbSymbolTable
70
0
0
ENDTAB
0
TABLE
2
UCS
5
7
100
AcDbSymbolTable
70
0
0
ENDTAB
0
TABLE
2
APPID
5
9
100
AcDbSymbolTable
70
2
0
APPID
5
12
100
AcDbSymbolTableRecord
100
AcDbRegAppTableRecord
2
ACAD
70
0
0
ENDTAB
0
TABLE
2
DIMSTYLE
5
A
100
AcDbSymbolTable
70
1
0
ENDTAB
0
TABLE
2
BLOCK_RECORD
5
1
100
AcDbSymbolTable
70
1
0
BLOCK_RECORD
5
1F
100
AcDbSymbolTableRecord
100
AcDbBlockTableRecord
2
*MODEL_SPACE
0
BLOCK_RECORD
5
1B
100
AcDbSymbolTableRecord
100
AcDbBlockTableRecord
2
*PAPER_SPACE
0
ENDTAB
0
ENDSEC
0
SECTION
2
BLOCKS
0
BLOCK
5
20
100
AcDbEntity
100
AcDbBlockBegin
2
*MODEL_SPACE
0
ENDBLK
5
21
100
AcDbEntity
100
AcDbBlockEnd
0
BLOCK
5
1C
100
AcDbEntity
100
AcDbBlockBegin
2
*PAPER_SPACE
0
ENDBLK
5
1D
100
AcDbEntity
100
AcDbBlockEnd
0
ENDSEC
0
SECTION
2
ENTITIES
0
LWPOLYLINE
5
100
100
AcDbEntity
8
0
100
AcDbPolyline
90
4
70
1
43
0.0
10
54.979316000000097
20
-29.609287999999889
10
54.979316000000097
20
-28.949395999999901
10
54.749192000000093
20
-28.949395999999901
10
54.749192000000093
20
-29.609287999999889
0
LWPOLYLINE
5
101
100
AcDbEntity
8
0
100
AcDbPolyline
90
4
70
1
43
0.0
10
55.379112000000092
20
-28.949395999999901
10
55.148988000000102
20
-28.949395999999901
10
55.148988000000102
20
-29.609287999999889
10
55.379112000000092
20
-29.609287999999889
0
LWPOLYLINE
5
102
100
AcDbEntity
8
0
100
AcDbPolyline
90
4
70
1
43
0.0
10
55.949088000000117
20
-32.318959999999905
10
56.17921200000012
20
-32.318959999999905
10
56.17921200000012
20
-31.659067999999895
10
55.949088000000117
20
-31.659067999999895
0
LWPOLYLINE
5
103
100
AcDbEntity
8
0
100
AcDbPolyline
90
4
70
1
43
0.0
10
56.17921200000012
20
-28.949395999999918
10
55.949088000000117
20
-28.949395999999918
10
55.949088000000117
20
-29.609287999999889
10
56.17921200000012
20
-29.609287999999889
0
LWPOLYLINE
5
104
100
AcDbEntity
8
0
100
AcDbPolyline
90
4
70
1
43
0.0
10
55.148988000000102
20
-32.318959999999905
10
55.379112000000106
20
-32.318959999999905
10
55.379112000000106
20
-31.659067999999895
10
55.148988000000102
20
-31.659067999999895
0
LWPOLYLINE
5
105
100
AcDbEntity
8
0
100
AcDbPolyline
90
4
70
1
43
0.0
10
56.349138000000124
20
-31.659067999999895
10
56.349138000000124
20
-32.318959999999905
10
56.579262000000114
20
-32.318959999999905
10
56.579262000000114
20
-31.659067999999895
0
LWPOLYLINE
5
106
100
AcDbEntity
8
0
100
AcDbPolyline
90
4
70
1
43
0.0
10
55.779162000000113
20
-29.609287999999889
10
55.779162000000113
20
-28.949395999999901
10
55.549038000000124
20
-28.949395999999918
10
55.549038000000124
20
-29.609287999999889
0
LWPOLYLINE
5
107
100
AcDbEntity
8
0
100
AcDbPolyline
90
4
70
1
43
0.0
10
54.749192000000093
20
-31.659067999999895
10
54.749192000000093
20
-32.318959999999905
10
54.979316000000097
20
-32.318959999999905
10
54.979316000000097
20
-31.659067999999895
0
LWPOLYLINE
5
108
100
AcDbEntity
8
0
100
AcDbPolyline
90
4
70
1
43
0.0
10
55.779162000000113
20
-32.318959999999905
10
55.779162000000113
20
-31.659067999999895
10
55.549038000000124
20
-31.659067999999895
10
55.549038000000124
20
-32.318959999999905
0
LWPOLYLINE
5
109
100
AcDbEntity
8
0
100
AcDbPolyline
90
4
70
1
43
0.0
10
56.979312000000121
20
-29.609287999999889
10
56.979312000000121
20
-28.949395999999901
10
56.74918800000011
20
-28.949395999999918
10
56.74918800000011
20
-29.609287999999889
0
LWPOLYLINE
5
110
100
AcDbEntity
8
0
100
AcDbPolyline
90
4
70
1
43
0.0
10
57.379108000000102
20
-32.318959999999905
10
57.379108000000102
20
-31.659067999999895
10
57.148984000000112
20
-31.659067999999895
10
57.148984000000112
20
-32.318959999999905
0
LWPOLYLINE
5
111
100
AcDbEntity
8
0
100
AcDbPolyline
90
4
70
1
43
0.0
10
57.379108000000102
20
-29.609287999999889
10
57.379108000000102
20
-28.949395999999901
10
57.148984000000112
20
-28.949395999999918
10
57.148984000000112
20
-29.609287999999889
0
LWPOLYLINE
5
112
100
AcDbEntity
8
0
100
AcDbPolyline
90
4
70
1
43
0.0
10
56.349138000000124
20
-29.609287999999889
10
56.579262000000114
20
-29.609287999999889
10
56.579262000000114
20
-28.949395999999901
10
56.349138000000124
20
-28.949395999999918
0
LWPOLYLINE
5
113
100
AcDbEntity
8
0
100
AcDbPolyline
90
4
70
1
43
0.0
10
57.779158000000109
20
-32.318959999999905
10
57.779158000000109
20
-31.659067999999895
10
57.54903400000012
20
-31.659067999999895
10
57.54903400000012
20
-32.318959999999905
0
LWPOLYLINE
5
114
100
AcDbEntity
8
0
100
AcDbPolyline
90
4
70
1
43
0.0
10
56.74918800000011
20
-32.318959999999905
10
56.979312000000121
20
-32.318959999999905
10
56.979312000000121
20
-31.659067999999895
10
56.74918800000011
20
-31.659067999999895
0
LWPOLYLINE
5
115
100
AcDbEntity
8
0
100
AcDbPolyline
90
4
70
1
43
0.0
10
57.779158000000109
20
-29.609287999999889
10
57.779158000000109
20
-28.949395999999918
10
57.54903400000012
20
-28.949395999999918
10
57.54903400000012
20
-29.609287999999889
0
LWPOLYLINE
5
116
100
AcDbEntity
8
0
100
AcDbPolyline
90
4
70
1
43
0.0
10
52.749196000000111
20
-32.318959999999905
10
52.979320000000101
20
-32.318959999999905
10
52.979320000000101
20
-31.659067999999895
10
52.749196000000097
20
-31.659067999999895
0
LWPOLYLINE
5
117
100
AcDbEntity
8
0
100
AcDbPolyline
90
4
70
1
43
0.0
10
58.179208000000116
20
-31.659067999999895
10
57.949084000000113
20
-31.659067999999895
10
57.949084000000113
20
-32.318959999999905
10
58.179208000000116
20
-32.318959999999905
0
LWPOLYLINE
5
118
100
AcDbEntity
8
0
100
AcDbPolyline
90
4
70
1
43
0.0
10
43.033696000000027
20
-8.3098639999999513
10
43.033696000000027
20
-8.0797399999999442
10
42.373804000000021
20
-8.0797399999999442
10
42.373804000000021
20
-8.3098639999999335
0
LWPOLYLINE
5
119
100
AcDbEntity
8
0
100
AcDbPolyline
90
4
70
1
43
0.0
10
58.179208000000116
20
-29.609287999999889
10
58.179208000000116
20
-28.949395999999918
10
57.949084000000113
20
-28.949395999999918
10
57.949084000000113
20
-29.609287999999889
0
LWPOLYLINE
5
120
100
AcDbEntity
8
0
100
AcDbPolyline
90
4
70
1
43
0.0
10
42.373804000000021
20
-7.5097639999999544
10
43.033696000000027
20
-7.5097639999999544
10
43.033696000000006
20
-7.2796399999999473
10
42.373804000000021
20
-7.2796399999999473
0
LWPOLYLINE
5
121
100
AcDbEntity
8
0
100
AcDbPolyline
90
4
70
1
43
0.0
10
43.033696000000027
20
-7.9098139999999439
10
43.033696000000027
20
-7.6796899999999368
10
42.373804000000021
20
-7.6796899999999546
10
42.373804000000021
20
-7.9098139999999439
0
LWPOLYLINE
5
122
100
AcDbEntity
8
0
100
AcDbPolyline
90
4
70
1
43
0.0
10
45.083476000000019
20
-6.8795899999999577
10
45.083476000000019
20
-7.109713999999947
10
45.743368000000032
20
-7.1097139999999648
10
45.743368000000032
20
-6.8795899999999577
0
LWPOLYLINE
5
123
100
AcDbEntity
8
0
100
AcDbPolyline
90
4
70
1
43
0.0
10
51.148996000000096
20
-28.949395999999918
10
51.148996000000096
20
-29.609287999999889
10
51.379120000000107
20
-29.609287999999889
10
51.379120000000107
20
-28.949395999999901
0
LWPOLYLINE
5
124
100
AcDbEntity
8
0
100
AcDbPolyline
90
4
70
1
43
0.0
10
61.148976000000133
20
-29.609287999999907
10
61.379100000000136
20
-29.609287999999907
10
61.379100000000136
20
-28.949395999999936
10
61.148976000000133
20
-28.949395999999936
0
LWPOLYLINE
5
125
100
AcDbEntity
8
0
100
AcDbPolyline
90
4
70
1
43
0.0
10
61.54902600000014
20
-31.659067999999913
10
61.54902600000014
20
-32.318959999999919
10
61.779150000000129
20
-32.318959999999919
10
61.779150000000129
20
-31.659067999999913
0
LWPOLYLINE
5
126
100
AcDbEntity
8
0
100
AcDbPolyline
90
4
70
1
43
0.0
10
51.779170000000093
20
-31.659067999999895
10
51.549046000000089
20
-31.659067999999895
10
51.549046000000104
20
-32.318959999999905
10
51.779170000000093
20
-32.318959999999905
0
LWPOLYLINE
5
127
100
AcDbEntity
8
0
100
AcDbPolyline
90
4
70
1
43
0.0
10
51.379120000000107
20
-32.318959999999905
10
51.379120000000107
20
-31.659067999999895
10
51.148996000000096
20
-31.659067999999895
10
51.148996000000096
20
-32.318959999999905
0
LWPOLYLINE
5
128
100
AcDbEntity
8
0
100
AcDbPolyline
90
4
70
1
43
0.0
10
61.779150000000129
20
-29.609287999999907
10
61.779150000000129
20
-28.949395999999936
10
61.54902600000014
20
-28.949395999999936
10
61.54902600000014
20
-29.609287999999907
0
LWPOLYLINE
5
129
100
AcDbEntity
8
0
100
AcDbPolyline
90
4
70
1
43
0.0
10
52.1792200000001
20
-29.609287999999889
10
52.1792200000001
20
-28.949395999999901
10
51.949096000000097
20
-28.949395999999901
10
51.949096000000097
20
-29.609287999999889
0
LWPOLYLINE
5
130
100
AcDbEntity
8
0
100
AcDbPolyline
90
4
70
1
43
0.0
10
51.949096000000097
20
-32.318959999999905
10
52.1792200000001
20
-32.318959999999905
10
52.1792200000001
20
-31.659067999999895
10
51.949096000000097
20
-31.659067999999895
0
LWPOLYLINE
5
131
100
AcDbEntity
8
0
100
AcDbPolyline
90
4
70
1
43
0.0
10
51.549046000000089
20
-28.949395999999901
10
51.549046000000089
20
-29.609287999999889
10
51.779170000000093
20
-29.609287999999889
10
51.779170000000093
20
-28.949395999999901
0
LWPOLYLINE
5
132
100
AcDbEntity
8
0
100
AcDbPolyline
90
4
70
1
43
0.0
10
52.579270000000093
20
-32.318959999999905
10
52.579270000000093
20
-31.659067999999895
10
52.349146000000104
20
-31.659067999999895
10
52.349146000000104
20
-32.318959999999905
0
LWPOLYLINE
5
133
100
AcDbEntity
8
0
100
AcDbPolyline
90
4
70
1
43
0.0
10
45.743368000000032
20
-8.0797399999999442
10
45.083476000000019
20
-8.0797399999999442
10
45.083476000000019
20
-8.3098639999999335
10
45.743368000000032
20
-8.3098639999999513
0
LWPOLYLINE
5
134
100
AcDbEntity
8
0
100
AcDbPolyline
90
4
70
1
43
0.0
10
52.349146000000104
20
-28.949395999999901
10
52.349146000000104
20
-29.609287999999889
10
52.579270000000093
20
-29.609287999999889
10
52.579270000000093
20
-28.949395999999901
0
LWPOLYLINE
5
135
100
AcDbEntity
8
0
100
AcDbPolyline
90
4
70
1
43
0.0
10
45.743368000000032
20
-7.9098139999999439
10
45.743368000000032
20
-7.6796899999999368
10
45.083476000000019
20
-7.6796899999999368
10
45.083476000000019
20
-7.9098139999999439
0
LWPOLYLINE
5
136
100
AcDbEntity
8
0
100
AcDbPolyline
90
4
70
1
43
0.0
10
63.779146000000125
20
-28.949395999999936
10
63.549022000000136
20
-28.949395999999936
10
63.549022000000136
20
-29.609287999999925
10
63.779146000000125
20
-29.609287999999925
0
LWPOLYLINE
5
137
100
AcDbEntity
8
0
100
AcDbPolyline
90
4
70
1
43
0.0
10
65.54901800000016
20
-32.318959999999933
10
65.779142000000149
20
-32.318959999999933
10
65.779142000000149
20
-31.65906799999993
10
65.54901800000016
20
-31.65906799999993
0
LWPOLYLINE
5
138
100
AcDbEntity
8
0
100
AcDbPolyline
90
4
70
1
43
0.0
10
65.379092000000142
20
-28.949395999999936
10
65.148968000000139
20
-28.949395999999936
10
65.148968000000139
20
-29.609287999999925
10
65.379092000000142
20
-29.609287999999925
0
LWPOLYLINE
5
139
100
AcDbEntity
8
0
100
AcDbPolyline
90
4
70
1
43
0.0
10
64.179196000000132
20
-31.65906799999993
10
63.949072000000129
20
-31.65906799999993
10
63.949072000000129
20
-32.318959999999933
10
64.179196000000132
20
-32.318959999999933
0
LWPOLYLINE
5
140
100
AcDbEntity
8
0
100
AcDbPolyline
90
4
70
1
43
0.0
10
65.54901800000016
20
-28.949395999999936
10
65.54901800000016
20
-29.609287999999925
10
65.779142000000149
20
-29.609287999999925
10
65.779142000000149
20
-28.949395999999936
0
LWPOLYLINE
5
141
100
AcDbEntity
8
0
100
AcDbPolyline
90
4
70
1
43
0.0
10
64.749172000000144
20
-31.65906799999993
10
64.749172000000144
20
-32.318959999999933
10
64.979296000000133
20
-32.318959999999933
10
64.979296000000133
20
-31.65906799999993
0
LWPOLYLINE
5
142
100
AcDbEntity
8
0
100
AcDbPolyline
90
4
70
1
43
0.0
10
65.148968000000139
20
-31.65906799999993
10
65.148968000000139
20
-32.318959999999933
10
65.379092000000142
20
-32.318959999999933
10
65.379092000000142
20
-31.65906799999993
0
LWPOLYLINE
5
143
100
AcDbEntity
8
0
100
AcDbPolyline
90
4
70
1
43
0.0
10
64.349122000000136
20
-31.65906799999993
10
64.349122000000136
20
-32.318959999999933
10
64.579246000000126
20
-32.318959999999933
10
64.579246000000126
20
-31.65906799999993
0
LWPOLYLINE
5
144
100
AcDbEntity
8
0
100
AcDbPolyline
90
4
70
1
43
0.0
10
63.549022000000136
20
-32.318959999999933
10
63.779146000000125
20
-32.318959999999933
10
63.779146000000125
20
-31.65906799999993
10
63.549022000000136
20
-31.65906799999993
0
LWPOLYLINE
5
145
100
AcDbEntity
8
0
100
AcDbPolyline
90
4
70
1
43
0.0
10
64.179196000000132
20
-29.609287999999925
10
64.179196000000132
20
-28.949395999999936
10
63.949072000000129
20
-28.949395999999936
10
63.949072000000129
20
-29.609287999999925
0
LWPOLYLINE
5
146
100
AcDbEntity
8
0
100
AcDbPolyline
90
4
70
1
43
0.0
10
64.749172000000144
20
-28.949395999999936
10
64.749172000000144
20
-29.609287999999925
10
64.979296000000133
20
-29.609287999999925
10
64.979296000000133
20
-28.949395999999936
0
LWPOLYLINE
5
147
100
AcDbEntity
8
0
100
AcDbPolyline
90
4
70
1
43
0.0
10
64.349122000000136
20
-28.949395999999936
10
64.349122000000136
20
-29.609287999999925
10
64.579246000000126
20
-29.609287999999925
10
64.579246000000126
20
-28.949395999999936
0
LWPOLYLINE
5
148
100
AcDbEntity
8
0
100
AcDbPolyline
90
4
70
1
43
0.0
10
65.949068000000167
20
-31.65906799999993
10
65.949068000000167
20
-32.318959999999933
10
66.179192000000157
20
-32.318959999999933
10
66.179192000000157
20
-31.65906799999993
0
LWPOLYLINE
5
149
100
AcDbEntity
8
0
100
AcDbPolyline
90
4
70
1
43
0.0
10
66.179192000000157
20
-29.609287999999925
10
66.179192000000157
20
-28.949395999999936
10
65.949068000000167
20
-28.949395999999936
10
65.949068000000167
20
-29.609287999999925
0
LWPOLYLINE
5
150
100
AcDbEntity
8
0
100
AcDbPolyline
90
4
70
1
43
0.0
10
66.579242000000164
20
-28.949395999999954
10
66.349118000000146
20
-28.949395999999954
10
66.349118000000146
20
-29.609287999999925
10
66.579242000000164
20
-29.609287999999925
0
LWPOLYLINE
5
151
100
AcDbEntity
8
0
100
AcDbPolyline
90
4
70
1
43
0.0
10
66.579242000000164
20
-31.65906799999993
10
66.349118000000146
20
-31.65906799999993
10
66.349118000000146
20
-32.318959999999933
10
66.579242000000164
20
-32.318959999999933
0
LWPOLYLINE
5
152
100
AcDbEntity
8
0
100
AcDbPolyline
90
4
70
1
43
0.0
10
66.979292000000157
20
-31.65906799999993
10
66.749168000000168
20
-31.65906799999993
10
66.749168000000168
20
-32.318959999999933
10
66.979292000000157
20
-32.318959999999933
0
LWPOLYLINE
5
153
100
AcDbEntity
8
0
100
AcDbPolyline
90
4
70
1
43
0.0
10
66.979292000000157
20
-29.609287999999925
10
66.979292000000157
20
-28.949395999999936
10
66.749168000000168
20
-28.949395999999954
10
66.749168000000168
20
-29.609287999999925
0
LWPOLYLINE
5
154
100
AcDbEntity
8
0
100
AcDbPolyline
90
4
70
1
43
0.0
10
67.148964000000149
20
-31.65906799999993
10
67.148964000000149
20
-32.318959999999933
10
67.379088000000152
20
-32.318959999999933
10
67.379088000000152
20
-31.65906799999993
0
LWPOLYLINE
5
155
100
AcDbEntity
8
0
100
AcDbPolyline
90
4
70
1
43
0.0
10
68.179188000000153
20
-31.65906799999993
10
67.949064000000149
20
-31.65906799999993
10
67.949064000000149
20
-32.318959999999933
10
68.179188000000153
20
-32.318959999999933
0
LWPOLYLINE
5
156
100
AcDbEntity
8
0
100
AcDbPolyline
90
4
70
1
43
0.0
10
43.033696000000027
20
-8.7099139999999409
10
43.033696000000027
20
-8.4797899999999515
10
42.373804000000021
20
-8.4797899999999515
10
42.373804000000021
20
-8.7099139999999409
0
LWPOLYLINE
5
157
100
AcDbEntity
8
0
100
AcDbPolyline
90
4
70
1
43
0.0
10
67.779138000000145
20
-28.949395999999954
10
67.549014000000156
20
-28.949395999999954
10
67.549014000000156
20
-29.609287999999925
10
67.779138000000145
20
-29.609287999999925
0
LWPOLYLINE
5
158
100
AcDbEntity
8
0
100
AcDbPolyline
90
4
70
1
43
0.0
10
67.148964000000149
20
-28.949395999999954
10
67.148964000000149
20
-29.609287999999925
10
67.379088000000152
20
-29.609287999999925
10
67.379088000000152
20
-28.949395999999954
0
LWPOLYLINE
5
159
100
AcDbEntity
8
0
100
AcDbPolyline
90
4
70
1
43
0.0
10
68.179188000000153
20
-29.609287999999925
10
68.179188000000153
20
-28.949395999999936
10
67.949064000000149
20
-28.949395999999954
10
67.949064000000149
20
-29.609287999999925
0
LWPOLYLINE
5
160
100
AcDbEntity
8
0
100
AcDbPolyline
90
4
70
1
43
0.0
10
67.779138000000145
20
-32.318959999999933
10
67.779138000000145
20
-31.65906799999993
10
67.549014000000156
20
-31.65906799999993
10
67.549014000000156
20
-32.318959999999933
0
LWPOLYLINE
5
161
100
AcDbEntity
8
0
100
AcDbPolyline
90
4
70
1
43
0.0
10
68.57923800000016
20
-32.318959999999933
10
68.57923800000016
20
-31.65906799999993
10
68.349114000000156
20
-31.65906799999993
10
68.349114000000156
20
-32.318959999999933
0
LWPOLYLINE
5
162
100
AcDbEntity
8
0
100
AcDbPolyline
90
4
70
1
43
0.0
10
68.349114000000156
20
-28.949395999999954
10
68.349114000000156
20
-29.609287999999925
10
68.57923800000016
20
-29.609287999999925
10
68.57923800000016
20
-28.949395999999936
0
LWPOLYLINE
5
163
100
AcDbEntity
8
0
100
AcDbPolyline
90
4
70
1
43
0.0
10
59.379104000000126
20
-31.659067999999895
10
59.148980000000115
20
-31.659067999999895
10
59.148980000000115
20
-32.318959999999905
10
59.379104000000126
20
-32.318959999999905
0
LWPOLYLINE
5
164
100
AcDbEntity
8
0
100
AcDbPolyline
90
4
70
1
43
0.0
10
58.579258000000124
20
-32.318959999999905
10
58.579258000000124
20
-31.659067999999895
10
58.349134000000106
20
-31.659067999999895
10
58.349134000000106
20
-32.318959999999905
0
LWPOLYLINE
5
165
100
AcDbEntity
8
0
100
AcDbPolyline
90
4
70
1
43
0.0
10
58.349134000000106
20
-28.949395999999918
10
58.349134000000106
20
-29.609287999999889
10
58.579258000000124
20
-29.609287999999889
10
58.579258000000124
20
-28.949395999999918
0
LWPOLYLINE
5
166
100
AcDbEntity
8
0
100
AcDbPolyline
90
4
70
1
43
0.0
10
58.979308000000117
20
-32.318959999999905
10
58.979308000000117
20
-31.659067999999895
10
58.749184000000113
20
-31.659067999999895
10
58.749184000000113
20
-32.318959999999905
0
LWPOLYLINE
5
167
100
AcDbEntity
8
0
100
AcDbPolyline
90
4
70
1
43
0.0
10
58.749184000000113
20
-29.609287999999889
10
58.979308000000117
20
-29.609287999999889
10
58.979308000000117
20
-28.949395999999918
10
58.749184000000113
20
-28.949395999999918
0
LWPOLYLINE
5
168
100
AcDbEntity
8
0
100
AcDbPolyline
90
4
70
1
43
0.0
10
60.349130000000116
20
-31.659067999999913
10
60.349130000000116
20
-32.318959999999919
10
60.579254000000127
20
-32.318959999999919
10
60.579254000000127
20
-31.659067999999913
0
LWPOLYLINE
5
169
100
AcDbEntity
8
0
100
AcDbPolyline
90
4
70
1
43
0.0
10
60.349130000000116
20
-28.949395999999936
10
60.349130000000116
20
-29.609287999999907
10
60.579254000000127
20
-29.609287999999907
10
60.579254000000127
20
-28.949395999999936
0
LWPOLYLINE
5
170
100
AcDbEntity
8
0
100
AcDbPolyline
90
4
70
1
43
0.0
10
59.379104000000126
20
-28.949395999999918
10
59.148980000000115
20
-28.949395999999918
10
59.148980000000115
20
-29.609287999999889
10
59.379104000000126
20
-29.609287999999889
0
LWPOLYLINE
5
171
100
AcDbEntity
8
0
100
AcDbPolyline
90
4
70
1
43
0.0
10
59.949080000000109
20
-32.318959999999905
10
60.179204000000119
20
-32.318959999999919
10
60.179204000000119
20
-31.659067999999913
10
59.949080000000109
20
-31.659067999999895
0
LWPOLYLINE
5
172
100
AcDbEntity
8
0
100
AcDbPolyline
90
4
70
1
43
0.0
10
59.779154000000112
20
-32.318959999999905
10
59.779154000000112
20
-31.659067999999895
10
59.549030000000101
20
-31.659067999999895
10
59.549030000000101
20
-32.318959999999905
0
LWPOLYLINE
5
173
100
AcDbEntity
8
0
100
AcDbPolyline
90
4
70
1
43
0.0
10
59.779154000000112
20
-29.609287999999889
10
59.779154000000112
20
-28.949395999999918
10
59.549030000000101
20
-28.949395999999918
10
59.549030000000101
20
-29.609287999999889
0
LWPOLYLINE
5
174
100
AcDbEntity
8
0
100
AcDbPolyline
90
4
70
1
43
0.0
10
60.179204000000119
20
-28.949395999999936
10
59.949080000000109
20
-28.949395999999918
10
59.949080000000109
20
-29.609287999999889
10
60.179204000000119
20
-29.609287999999907
0
LWPOLYLINE
5
175
100
AcDbEntity
8
0
100
AcDbPolyline
90
4
70
1
43
0.0
10
60.979304000000134
20
-32.318959999999919
10
60.979304000000134
20
-31.659067999999913
10
60.749180000000145
20
-31.659067999999913
10
60.749180000000145
20
-32.318959999999919
0
LWPOLYLINE
5
176
100
AcDbEntity
8
0
100
AcDbPolyline
90
4
70
1
43
0.0
10
60.749180000000145
20
-29.609287999999907
10
60.979304000000134
20
-29.609287999999907
10
60.979304000000134
20
-28.949395999999936
10
60.749180000000145
20
-28.949395999999936
0
LWPOLYLINE
5
177
100
AcDbEntity
8
0
100
AcDbPolyline
90
4
70
1
43
0.0
10
43.033696000000027
20
-9.1097099999999642
10
43.033696000000027
20
-8.8795859999999571
10
42.373804000000021
20
-8.8795859999999571
10
42.373804000000021
20
-9.1097099999999465
0
LWPOLYLINE
5
178
100
AcDbEntity
8
0
100
AcDbPolyline
90
4
70
1
43
0.0
10
43.033696000000027
20
-9.9098099999999611
10
43.033696000000027
20
-9.6796859999999718
10
42.373804000000021
20
-9.6796859999999718
10
42.373804000000021
20
-9.9098099999999611
0
LWPOLYLINE
5
179
100
AcDbEntity
8
0
100
AcDbPolyline
90
4
70
1
43
0.0
10
45.743368000000032
20
-9.2796359999999467
10
45.083476000000019
20
-9.2796359999999467
10
45.083476000000019
20
-9.5097599999999716
10
45.743368000000032
20
-9.5097599999999716
0
LWPOLYLINE
5
180
100
AcDbEntity
8
0
100
AcDbPolyline
90
4
70
1
43
0.0
10
45.083476000000019
20
-7.5097639999999366
10
45.743368000000032
20
-7.5097639999999366
10
45.743368000000032
20
-7.2796399999999473
10
45.083476000000019
20
-7.2796399999999473
0
LWPOLYLINE
5
181
100
AcDbEntity
8
0
100
AcDbPolyline
90
4
70
1
43
0.0
10
43.033696000000027
20
-11.509755999999953
10
43.033696000000027
20
-11.279631999999964
10
42.373804000000021
20
-11.279631999999964
10
42.373804000000021
20
-11.509755999999953
0
LWPOLYLINE
5
182
100
AcDbEntity
8
0
100
AcDbPolyline
90
4
70
1
43
0.0
10
42.373804000000021
20
-11.909805999999961
10
43.033696000000027
20
-11.909805999999961
10
43.033696000000027
20
-11.679681999999953
10
42.373804000000021
20
-11.679681999999953
0
LWPOLYLINE
5
183
100
AcDbEntity
8
0
100
AcDbPolyline
90
4
70
1
43
0.0
10
45.083476000000019
20
-11.109705999999946
10
45.743368000000032
20
-11.109705999999946
10
45.743368000000032
20
-10.879581999999957
10
45.083476000000019
20
-10.879581999999957
0
LWPOLYLINE
5
184
100
AcDbEntity
8
0
100
AcDbPolyline
90
4
70
1
43
0.0
10
42.373804000000021
20
-9.5097599999999716
10
43.033696000000027
20
-9.5097599999999716
10
43.033696000000027
20
-9.2796359999999467
10
42.373804000000021
20
-9.2796359999999467
0
LWPOLYLINE
5
185
100
AcDbEntity
8
0
100
AcDbPolyline
90
4
70
1
43
0.0
10
45.743368000000032
20
-11.909805999999961
10
45.743368000000032
20
-11.679681999999953
10
45.083476000000019
20
-11.679681999999953
10
45.083476000000019
20
-11.909805999999961
0
LWPOLYLINE
5
186
100
AcDbEntity
8
0
100
AcDbPolyline
90
4
70
1
43
0.0
10
45.083476000000019
20
-11.279631999999964
10
45.083476000000019
20
-11.509755999999971
10
45.743368000000032
20
-11.509755999999953
10
45.743368000000032
20
-11.279631999999964
0
LWPOLYLINE
5
187
100
AcDbEntity
8
0
100
AcDbPolyline
90
4
70
1
43
0.0
10
43.033696000000027
20
-10.079735999999979
10
42.373804000000021
20
-10.079735999999979
10
42.373804000000021
20
-10.309859999999951
10
43.033696000000027
20
-10.309859999999968
0
LWPOLYLINE
5
188
100
AcDbEntity
8
0
100
AcDbPolyline
90
4
70
1
43
0.0
10
45.743368000000032
20
-10.479785999999969
10
45.083476000000019
20
-10.479785999999969
10
45.083476000000019
20
-10.709909999999976
10
45.743368000000032
20
-10.709909999999958
0
LWPOLYLINE
5
189
100
AcDbEntity
8
0
100
AcDbPolyline
90
4
70
1
43
0.0
10
45.743368000000032
20
-9.6796859999999718
10
45.083476000000019
20
-9.6796859999999718
10
45.083476000000019
20
-9.9098099999999611
10
45.743368000000032
20
-9.9098099999999611
0
LWPOLYLINE
5
190
100
AcDbEntity
8
0
100
AcDbPolyline
90
4
70
1
43
0.0
10
42.373804000000021
20
-10.879581999999974
10
42.373804000000021
20
-11.109705999999964
10
43.033696000000027
20
-11.109705999999964
10
43.033696000000027
20
-10.879581999999957
0
LWPOLYLINE
5
191
100
AcDbEntity
8
0
100
AcDbPolyline
90
4
70
1
43
0.0
10
42.373804000000021
20
-10.479785999999969
10
42.373804000000021
20
-10.709909999999958
10
43.033696000000027
20
-10.709909999999958
10
43.033696000000027
20
-10.479785999999969
0
LWPOLYLINE
5
192
100
AcDbEntity
8
0
100
AcDbPolyline
90
4
70
1
43
0.0
10
45.743368000000032
20
-10.079735999999979
10
45.083476000000019
20
-10.079735999999979
10
45.083476000000019
20
-10.309859999999968
10
45.743368000000032
20
-10.309859999999968
0
LWPOLYLINE
5
193
100
AcDbEntity
8
0
100
AcDbPolyline
90
4
70
1
43
0.0
10
45.08347600000004
20
-12.47978199999995
10
45.08347600000004
20
-12.709905999999958
10
45.743368000000032
20
-12.70990599999994
10
45.743368000000032
20
-12.47978199999995
0
LWPOLYLINE
5
194
100
AcDbEntity
8
0
100
AcDbPolyline
90
4
70
1
43
0.0
10
42.373804000000021
20
-12.47978199999995
10
42.373804000000021
20
-12.70990599999994
10
43.033696000000027
20
-12.70990599999994
10
43.033696000000027
20
-12.47978199999995
0
LWPOLYLINE
5
195
100
AcDbEntity
8
0
100
AcDbPolyline
90
4
70
1
43
0.0
10
45.083476000000019
20
-12.309855999999968
10
45.743368000000032
20
-12.309855999999968
10
45.743368000000032
20
-12.079731999999961
10
45.083476000000019
20
-12.079731999999961
0
LWPOLYLINE
5
196
100
AcDbEntity
8
0
100
AcDbPolyline
90
4
70
1
43
0.0
10
42.373804000000021
20
-12.079731999999961
10
42.373804000000021
20
-12.309855999999968
10
43.033696000000027
20
-12.309855999999968
10
43.033696000000027
20
-12.079731999999961
0
LWPOLYLINE
5
197
100
AcDbEntity
8
0
100
AcDbPolyline
90
4
70
1
43
0.0
10
70.179184000000149
20
-32.318959999999933
10
70.179184000000149
20
-31.65906799999993
10
69.949060000000145
20
-31.65906799999993
10
69.949060000000145
20
-32.318959999999933
0
LWPOLYLINE
5
198
100
AcDbEntity
8
0
100
AcDbPolyline
90
4
70
1
43
0.0
10
68.74916400000015
20
-32.318959999999933
10
68.979288000000153
20
-32.318959999999933
10
68.979288000000153
20
-31.65906799999993
10
68.74916400000015
20
-31.65906799999993
0
LWPOLYLINE
5
199
100
AcDbEntity
8
0
100
AcDbPolyline
90
4
70
1
43
0.0
10
68.74916400000015
20
-29.609287999999925
10
68.979288000000153
20
-29.609287999999925
10
68.979288000000153
20
-28.949395999999936
10
68.74916400000015
20
-28.949395999999936
0
LWPOLYLINE
5
200
100
AcDbEntity
8
0
100
AcDbPolyline
90
4
70
1
43
0.0
10
69.379084000000148
20
-31.65906799999993
10
69.148960000000145
20
-31.65906799999993
10
69.148960000000145
20
-32.318959999999933
10
69.379084000000148
20
-32.318959999999933
0
LWPOLYLINE
5
201
100
AcDbEntity
8
0
100
AcDbPolyline
90
4
70
1
43
0.0
10
69.379084000000148
20
-28.949395999999936
10
69.148960000000145
20
-28.949395999999936
10
69.148960000000145
20
-29.609287999999925
10
69.379084000000148
20
-29.609287999999925
0
LWPOLYLINE
5
202
100
AcDbEntity
8
0
100
AcDbPolyline
90
4
70
1
43
0.0
10
69.549010000000152
20
-32.318959999999933
10
69.77913400000017
20
-32.318959999999933
10
69.77913400000017
20
-31.65906799999993
10
69.549010000000152
20
-31.65906799999993
0
LWPOLYLINE
5
203
100
AcDbEntity
8
0
100
AcDbPolyline
90
4
70
1
43
0.0
10
69.77913400000017
20
-28.949395999999936
10
69.549010000000152
20
-28.949395999999936
10
69.549010000000152
20
-29.609287999999925
10
69.77913400000017
20
-29.609287999999925
0
LWPOLYLINE
5
204
100
AcDbEntity
8
0
100
AcDbPolyline
90
4
70
1
43
0.0
10
70.179184000000149
20
-29.609287999999925
10
70.179184000000149
20
-28.949395999999936
10
69.949060000000145
20
-28.949395999999936
10
69.949060000000145
20
-29.609287999999925
0
LWPOLYLINE
5
205
100
AcDbEntity
8
0
100
AcDbPolyline
90
4
70
1
43
0.0
10
70.579234000000184
20
-32.318959999999933
10
70.579234000000184
20
-31.65906799999993
10
70.349110000000152
20
-31.65906799999993
10
70.349110000000152
20
-32.318959999999933
0
LWPOLYLINE
5
206
100
AcDbEntity
8
0
100
AcDbPolyline
90
4
70
1
43
0.0
10
71.539100000000175
20
-29.609287999999925
10
71.539100000000175
20
-28.949395999999936
10
71.189088000000169
20
-28.949395999999936
10
71.189088000000169
20
-29.609287999999925
0
LWPOLYLINE
5
207
100
AcDbEntity
8
0
100
AcDbPolyline
90
4
70
1
43
0.0
10
50.589180000000091
20
-31.659067999999895
10
50.589180000000113
20
-32.318959999999905
10
50.939192000000105
20
-32.318959999999905
10
50.939192000000091
20
-31.659067999999895
0
LWPOLYLINE
5
208
100
AcDbEntity
8
0
100
AcDbPolyline
90
4
70
1
43
0.0
10
45.083476000000019
20
-9.1097099999999642
10
45.743368000000032
20
-9.1097099999999642
10
45.743368000000032
20
-8.8795859999999571
10
45.083476000000019
20
-8.8795859999999571
0
LWPOLYLINE
5
209
100
AcDbEntity
8
0
100
AcDbPolyline
90
4
70
1
43
0.0
10
50.939192000000091
20
-29.609287999999889
10
50.939192000000091
20
-28.949395999999901
10
50.589180000000091
20
-28.949395999999918
10
50.589180000000091
20
-29.609287999999889
0
LWPOLYLINE
5
210
100
AcDbEntity
8
0
100
AcDbPolyline
90
4
70
1
43
0.0
10
70.349110000000152
20
-29.609287999999925
10
70.579234000000184
20
-29.609287999999925
10
70.579234000000184
20
-28.949395999999936
10
70.349110000000152
20
-28.949395999999936
0
LWPOLYLINE
5
211
100
AcDbEntity
8
0
100
AcDbPolyline
90
4
70
1
43
0.0
10
52.979320000000101
20
-28.949395999999901
10
52.749196000000097
20
-28.949395999999901
10
52.749196000000097
20
-29.609287999999889
10
52.979320000000101
20
-29.609287999999889
0
LWPOLYLINE
5
212
100
AcDbEntity
8
0
100
AcDbPolyline
90
4
70
1
43
0.0
10
70.979284000000163
20
-32.318959999999933
10
70.979284000000163
20
-31.65906799999993
10
70.749160000000174
20
-31.65906799999993
10
70.749160000000174
20
-32.318959999999933
0
LWPOLYLINE
5
213
100
AcDbEntity
8
0
100
AcDbPolyline
90
4
70
1
43
0.0
10
70.749160000000174
20
-29.609287999999925
10
70.979284000000163
20
-29.609287999999925
10
70.979284000000163
20
-28.949395999999936
10
70.749160000000174
20
-28.949395999999936
0
LWPOLYLINE
5
214
100
AcDbEntity
8
0
100
AcDbPolyline
90
4
70
1
43
0.0
10
71.189088000000169
20
-31.65906799999993
10
71.189088000000169
20
-32.318959999999933
10
71.539100000000175
20
-32.318959999999933
10
71.539100000000175
20
-31.65906799999993
0
LWPOLYLINE
5
215
100
AcDbEntity
8
0
100
AcDbPolyline
90
4
70
1
43
0.0
10
53.37911600000011
20
-32.318959999999905
10
53.379116000000089
20
-31.659067999999895
10
53.148992000000099
20
-31.659067999999895
10
53.148992000000099
20
-32.318959999999905
0
LWPOLYLINE
5
216
100
AcDbEntity
8
0
100
AcDbPolyline
90
4
70
1
43
0.0
10
53.379116000000089
20
-28.949395999999901
10
53.148992000000099
20
-28.949395999999901
10
53.148992000000099
20
-29.609287999999889
10
53.379116000000089
20
-29.609287999999889
0
LWPOLYLINE
5
217
100
AcDbEntity
8
0
100
AcDbPolyline
90
4
70
1
43
0.0
10
53.779166000000096
20
-32.318959999999905
10
53.779166000000096
20
-31.659067999999895
10
53.549042000000107
20
-31.659067999999895
10
53.549042000000107
20
-32.318959999999905
0
LWPOLYLINE
5
218
100
AcDbEntity
8
0
100
AcDbPolyline
90
4
70
1
43
0.0
10
53.779166000000096
20
-29.609287999999889
10
53.779166000000096
20
-28.949395999999901
10
53.549042000000107
20
-28.949395999999901
10
53.549042000000107
20
-29.609287999999889
0
LWPOLYLINE
5
219
100
AcDbEntity
8
0
100
AcDbPolyline
90
4
70
1
43
0.0
10
54.179216000000103
20
-28.949395999999901
10
53.949092000000093
20
-28.949395999999901
10
53.949092000000093
20
-29.609287999999889
10
54.179216000000103
20
-29.609287999999889
0
LWPOLYLINE
5
220
100
AcDbEntity
8
0
100
AcDbPolyline
90
4
70
1
43
0.0
10
54.579266000000111
20
-32.318959999999905
10
54.579266000000089
20
-31.659067999999895
10
54.3491420000001
20
-31.659067999999895
10
54.3491420000001
20
-32.318959999999905
0
LWPOLYLINE
5
221
100
AcDbEntity
8
0
100
AcDbPolyline
90
4
70
1
43
0.0
10
54.179216000000103
20
-32.318959999999905
10
54.179216000000103
20
-31.659067999999895
10
53.949092000000093
20
-31.659067999999895
10
53.949092000000114
20
-32.318959999999905
0
LWPOLYLINE
5
222
100
AcDbEntity
8
0
100
AcDbPolyline
90
4
70
1
43
0.0
10
54.579266000000089
20
-29.609287999999889
10
54.579266000000089
20
-28.949395999999901
10
54.3491420000001
20
-28.949395999999901
10
54.3491420000001
20
-29.609287999999889
0
LWPOLYLINE
5
223
100
AcDbEntity
8
0
100
AcDbPolyline
90
4
70
1
43
0.0
10
77.033628000000135
20
2.8902659999999614
10
77.033628000000135
20
3.1203899999999507
10
76.37373600000015
20
3.1203899999999507
10
76.37373600000015
20
2.8902659999999614
0
LWPOLYLINE
5
224
100
AcDbEntity
8
0
100
AcDbPolyline
90
4
70
1
43
0.0
10
76.37373600000015
20
4.4902119999999712
10
77.033628000000135
20
4.4902119999999712
10
77.033628000000135
20
4.7203359999999606
10
76.37373600000015
20
4.7203359999999606
0
LWPOLYLINE
5
225
100
AcDbEntity
8
0
100
AcDbPolyline
90
4
70
1
43
0.0
10
79.743300000000119
20
4.4902119999999712
10
79.743300000000119
20
4.7203359999999606
10
79.083408000000119
20
4.7203359999999606
10
79.083408000000119
20
4.4902119999999712
0
LWPOLYLINE
5
226
100
AcDbEntity
8
0
100
AcDbPolyline
90
4
70
1
43
0.0
10
76.373736000000122
20
5.1203859999999679
10
76.373736000000122
20
4.890261999999943
10
77.033628000000107
20
4.8902619999999786
10
77.033628000000107
20
5.1203859999999679
0
LWPOLYLINE
5
227
100
AcDbEntity
8
0
100
AcDbPolyline
90
4
70
1
43
0.0
10
77.033628000000135
20
4.3202859999999532
10
76.37373600000015
20
4.3202859999999532
10
76.37373600000015
20
4.0901619999999639
10
77.033628000000135
20
4.0901619999999639
0
LWPOLYLINE
5
228
100
AcDbEntity
8
0
100
AcDbPolyline
90
4
70
1
43
0.0
10
79.743300000000119
20
4.8902619999999786
10
79.743300000000119
20
5.1203859999999679
10
79.083408000000119
20
5.1203859999999679
10
79.083408000000119
20
4.8902619999999786
0
LWPOLYLINE
5
229
100
AcDbEntity
8
0
100
AcDbPolyline
90
4
70
1
43
0.0
10
76.37373600000015
20
3.9202359999999459
10
76.37373600000015
20
3.6901119999999565
10
77.033628000000135
20
3.6901119999999565
10
77.033628000000135
20
3.9202359999999814
0
LWPOLYLINE
5
230
100
AcDbEntity
8
0
100
AcDbPolyline
90
4
70
1
43
0.0
10
79.743300000000119
20
3.5201859999999741
10
79.083408000000119
20
3.5201859999999741
10
79.083408000000119
20
3.2900619999999492
10
79.743300000000119
20
3.2900619999999492
0
LWPOLYLINE
5
231
100
AcDbEntity
8
0
100
AcDbPolyline
90
4
70
1
43
0.0
10
79.743300000000119
20
4.3202859999999532
10
79.083408000000119
20
4.3202859999999532
10
79.083408000000119
20
4.0901619999999639
10
79.743300000000119
20
4.0901619999999639
0
LWPOLYLINE
5
232
100
AcDbEntity
8
0
100
AcDbPolyline
90
4
70
1
43
0.0
10
79.083408000000119
20
3.6901119999999565
10
79.743300000000119
20
3.6901119999999565
10
79.743300000000119
20
3.9202359999999814
10
79.083408000000119
20
3.9202359999999814
0
LWPOLYLINE
5
233
100
AcDbEntity
8
0
100
AcDbPolyline
90
4
70
1
43
0.0
10
79.743300000000119
20
3.1203899999999507
10
79.083408000000119
20
3.1203899999999507
10
79.083408000000119
20
2.8902659999999614
10
79.743300000000119
20
2.8902659999999614
0
LWPOLYLINE
5
234
100
AcDbEntity
8
0
100
AcDbPolyline
90
4
70
1
43
0.0
10
77.033628000000135
20
0.72034399999996168
10
76.37373600000015
20
0.72034399999996168
10
76.37373600000015
20
0.49021999999997234
10
77.033628000000135
20
0.49021999999997234
0
LWPOLYLINE
5
235
100
AcDbEntity
8
0
100
AcDbPolyline
90
4
70
1
43
0.0
10
76.37373600000015
20
1.9202399999999642
10
76.37373600000015
20
1.6901159999999571
10
77.033628000000135
20
1.6901159999999571
10
77.033628000000135
20
1.9202399999999642
0
LWPOLYLINE
5
236
100
AcDbEntity
8
0
100
AcDbPolyline
90
4
70
1
43
0.0
10
79.743300000000119
20
0.49021999999997234
10
79.743300000000119
20
0.72034399999996168
10
79.083408000000119
20
0.72034399999996168
10
79.083408000000119
20
0.49021999999997234
0
LWPOLYLINE
5
237
100
AcDbEntity
8
0
100
AcDbPolyline
90
4
70
1
43
0.0
10
76.37373600000015
20
2.490215999999954
10
77.033628000000135
20
2.490215999999954
10
77.033628000000135
20
2.7203399999999611
10
76.37373600000015
20
2.7203399999999611
0
LWPOLYLINE
5
238
100
AcDbEntity
8
0
100
AcDbPolyline
90
4
70
1
43
0.0
10
76.37373600000015
20
0.89026999999996193
10
77.033628000000135
20
0.89026999999996193
10
77.033628000000135
20
1.1203939999999513
10
76.37373600000015
20
1.1203939999999513
0
LWPOLYLINE
5
239
100
AcDbEntity
8
0
100
AcDbPolyline
90
4
70
1
43
0.0
10
77.033628000000135
20
1.2900659999999498
10
77.033628000000135
20
1.5201899999999569
10
76.37373600000015
20
1.5201899999999569
10
76.37373600000015
20
1.2900659999999675
0
LWPOLYLINE
5
240
100
AcDbEntity
8
0
100
AcDbPolyline
90
4
70
1
43
0.0
10
79.743300000000119
20
2.0901659999999644
10
79.743300000000119
20
2.3202899999999715
10
79.083408000000119
20
2.3202899999999538
10
79.083408000000119
20
2.0901659999999644
0
LWPOLYLINE
5
241
100
AcDbEntity
8
0
100
AcDbPolyline
90
4
70
1
43
0.0
10
77.033628000000135
20
2.3202899999999538
10
76.37373600000015
20
2.3202899999999538
10
76.37373600000015
20
2.0901659999999644
10
77.033628000000135
20
2.0901659999999644
0
LWPOLYLINE
5
242
100
AcDbEntity
8
0
100
AcDbPolyline
90
4
70
1
43
0.0
10
79.743300000000119
20
2.4902159999999718
10
79.743300000000119
20
2.7203399999999611
10
79.083408000000119
20
2.7203399999999611
10
79.083408000000119
20
2.490215999999954
0
LWPOLYLINE
5
243
100
AcDbEntity
8
0
100
AcDbPolyline
90
4
70
1
43
0.0
10
79.743300000000119
20
1.120393999999969
10
79.083408000000119
20
1.120393999999969
10
79.083408000000119
20
0.89026999999996193
10
79.743300000000119
20
0.89026999999996193
0
LWPOLYLINE
5
244
100
AcDbEntity
8
0
100
AcDbPolyline
90
4
70
1
43
0.0
10
79.083408000000119
20
1.6901159999999571
10
79.743300000000119
20
1.6901159999999571
10
79.743300000000119
20
1.9202399999999642
10
79.083408000000119
20
1.9202399999999642
0
LWPOLYLINE
5
245
100
AcDbEntity
8
0
100
AcDbPolyline
90
4
70
1
43
0.0
10
77.033628000000135
20
0.090169999999965
10
77.033628000000135
20
0.3202939999999721
10
76.37373600000015
20
0.3202939999999721
10
76.37373600000015
20
0.090169999999965
0
LWPOLYLINE
5
246
100
AcDbEntity
8
0
100
AcDbPolyline
90
4
70
1
43
0.0
10
79.083408000000119
20
1.5201899999999569
10
79.083408000000119
20
1.2900659999999498
10
79.743300000000119
20
1.2900659999999498
10
79.743300000000119
20
1.5201899999999569
0
LWPOLYLINE
5
247
100
AcDbEntity
8
0
100
AcDbPolyline
90
4
70
1
43
0.0
10
77.033628000000135
20
3.5201859999999741
10
76.37373600000015
20
3.5201859999999741
10
76.37373600000015
20
3.2900619999999492
10
77.033628000000135
20
3.2900619999999847
0
LWPOLYLINE
5
248
100
AcDbEntity
8
0
100
AcDbPolyline
90
4
70
1
43
0.0
10
79.743300000000119
20
5.5201819999999557
10
79.083408000000119
20
5.5201819999999557
10
79.083408000000119
20
5.2900579999999664
10
79.743300000000119
20
5.2900579999999664
0
LWPOLYLINE
5
249
100
AcDbEntity
8
0
100
AcDbPolyline
90
4
70
1
43
0.0
10
79.743300000000119
20
7.1203819999999496
10
79.083408000000119
20
7.1203819999999496
10
79.083408000000119
20
6.8902579999999602
10
79.743300000000119
20
6.8902579999999602
0
LWPOLYLINE
5
250
100
AcDbEntity
8
0
100
AcDbPolyline
90
4
70
1
43
0.0
10
79.743300000000119
20
6.4902079999999529
10
79.743300000000119
20
6.7203319999999422
10
79.083408000000119
20
6.7203319999999422
10
79.083408000000119
20
6.4902079999999529
0
LWPOLYLINE
5
251
100
AcDbEntity
8
0
100
AcDbPolyline
90
4
70
1
43
0.0
10
76.373736000000122
20
6.4902079999999529
10
77.033628000000107
20
6.4902079999999529
10
77.033628000000107
20
6.7203319999999422
10
76.373736000000122
20
6.7203319999999778
0
LWPOLYLINE
5
252
100
AcDbEntity
8
0
100
AcDbPolyline
90
4
70
1
43
0.0
10
77.033628000000107
20
5.5201819999999557
10
76.373736000000122
20
5.5201819999999557
10
76.373736000000122
20
5.2900579999999664
10
77.033628000000107
20
5.2900579999999664
0
LWPOLYLINE
5
253
100
AcDbEntity
8
0
100
AcDbPolyline
90
4
70
1
43
0.0
10
79.083408000000119
20
7.6801979999999759
10
79.083408000000119
20
7.3301859999999763
10
79.743300000000119
20
7.3301859999999408
10
79.743300000000119
20
7.6801979999999759
0
LWPOLYLINE
5
254
100
AcDbEntity
8
0
100
AcDbPolyline
90
4
70
1
43
0.0
10
79.083408000000119
20
6.3202819999999349
10
79.083408000000119
20
6.0901579999999456
10
79.743300000000119
20
6.0901579999999456
10
79.743300000000119
20
6.3202819999999349
0
LWPOLYLINE
5
255
100
AcDbEntity
8
0
100
AcDbPolyline
90
4
70
1
43
0.0
10
79.083408000000119
20
5.9202319999999631
10
79.083408000000119
20
5.6901079999999382
10
79.743300000000119
20
5.6901079999999737
10
79.743300000000119
20
5.9202319999999631
0
LWPOLYLINE
5
256
100
AcDbEntity
8
0
100
AcDbPolyline
90
4
70
1
43
0.0
10
77.033628000000107
20
7.1203819999999496
10
76.373736000000122
20
7.1203819999999496
10
76.373736000000122
20
6.8902579999999602
10
77.033628000000107
20
6.8902579999999602
0
LWPOLYLINE
5
257
100
AcDbEntity
8
0
100
AcDbPolyline
90
4
70
1
43
0.0
10
77.033628000000107
20
6.0901579999999456
10
77.033628000000107
20
6.3202819999999349
10
76.373736000000122
20
6.3202819999999349
10
76.373736000000122
20
6.0901579999999456
0
LWPOLYLINE
5
258
100
AcDbEntity
8
0
100
AcDbPolyline
90
4
70
1
43
0.0
10
76.373736000000122
20
7.3301859999999763
10
77.033628000000107
20
7.3301859999999763
10
77.033628000000107
20
7.6801979999999759
10
76.373736000000122
20
7.6801979999999759
0
LWPOLYLINE
5
259
100
AcDbEntity
8
0
100
AcDbPolyline
90
4
70
1
43
0.0
10
77.033628000000164
20
-12.919710000000002
10
76.373736000000164
20
-12.919710000000002
10
76.373736000000164
20
-13.269722000000002
10
77.033628000000164
20
-13.269722000000002
0
LWPOLYLINE
5
260
100
AcDbEntity
8
0
100
AcDbPolyline
90
4
70
1
43
0.0
10
79.743300000000147
20
-13.269722000000002
10
79.743300000000147
20
-12.919710000000002
10
79.083408000000162
20
-12.919710000000002
10
79.083408000000162
20
-13.269722000000002
0
LWPOLYLINE
5
261
100
AcDbEntity
8
0
100
AcDbPolyline
90
4
70
1
43
0.0
10
76.373736000000122
20
5.6901079999999382
10
77.033628000000107
20
5.6901079999999382
10
77.033628000000107
20
5.9202319999999631
10
76.373736000000122
20
5.9202319999999631
0
LWPOLYLINE
5
262
100
AcDbEntity
8
0
100
AcDbPolyline
90
4
70
1
43
0.0
10
62.179200000000137
20
-31.65906799999993
10
61.949076000000133
20
-31.65906799999993
10
61.949076000000133
20
-32.318959999999933
10
62.179200000000137
20
-32.318959999999933
0
LWPOLYLINE
5
263
100
AcDbEntity
8
0
100
AcDbPolyline
90
4
70
1
43
0.0
10
62.179200000000137
20
-29.609287999999925
10
62.179200000000137
20
-28.949395999999936
10
61.949076000000133
20
-28.949395999999936
10
61.949076000000133
20
-29.609287999999925
0
LWPOLYLINE
5
264
100
AcDbEntity
8
0
100
AcDbPolyline
90
4
70
1
43
0.0
10
62.579250000000144
20
-31.65906799999993
10
62.34912600000014
20
-31.65906799999993
10
62.34912600000014
20
-32.318959999999933
10
62.579250000000144
20
-32.318959999999933
0
LWPOLYLINE
5
265
100
AcDbEntity
8
0
100
AcDbPolyline
90
4
70
1
43
0.0
10
62.579250000000144
20
-29.609287999999925
10
62.579250000000144
20
-28.949395999999936
10
62.34912600000014
20
-28.949395999999936
10
62.34912600000014
20
-29.609287999999925
0
LWPOLYLINE
5
266
100
AcDbEntity
8
0
100
AcDbPolyline
90
4
70
1
43
0.0
10
62.749176000000126
20
-31.65906799999993
10
62.749176000000126
20
-32.318959999999933
10
62.979300000000137
20
-32.318959999999933
10
62.979300000000137
20
-31.65906799999993
0
LWPOLYLINE
5
267
100
AcDbEntity
8
0
100
AcDbPolyline
90
4
70
1
43
0.0
10
62.979300000000137
20
-29.609287999999925
10
62.979300000000137
20
-28.949395999999936
10
62.749176000000126
20
-28.949395999999936
10
62.749176000000126
20
-29.609287999999925
0
LWPOLYLINE
5
268
100
AcDbEntity
8
0
100
AcDbPolyline
90
4
70
1
43
0.0
10
63.379096000000139
20
-32.318959999999933
10
63.379096000000139
20
-31.65906799999993
10
63.148972000000128
20
-31.65906799999993
10
63.148972000000128
20
-32.318959999999933
0
LWPOLYLINE
5
269
100
AcDbEntity
8
0
100
AcDbPolyline
90
4
70
1
43
0.0
10
45.743368000000032
20
-8.7099139999999409
10
45.743368000000032
20
-8.4797899999999515
10
45.083476000000019
20
-8.4797899999999515
10
45.083476000000019
20
-8.7099139999999409
0
LWPOLYLINE
5
270
100
AcDbEntity
8
0
100
AcDbPolyline
90
4
70
1
43
0.0
10
63.379096000000139
20
-29.609287999999925
10
63.379096000000139
20
-28.949395999999936
10
63.148972000000128
20
-28.949395999999936
10
63.148972000000128
20
-29.609287999999925
0
LWPOLYLINE
5
271
100
AcDbEntity
8
0
100
AcDbPolyline
90
4
70
1
43
0.0
10
45.743368000000032
20
-5.5097679999999549
10
45.743368000000032
20
-5.2796439999999656
10
45.083476000000019
20
-5.2796439999999656
10
45.083476000000019
20
-5.5097679999999549
0
LWPOLYLINE
5
272
100
AcDbEntity
8
0
100
AcDbPolyline
90
4
70
1
43
0.0
10
45.743368000000018
20
-4.8795939999999582
10
45.083476000000012
20
-4.8795939999999582
10
45.083476000000019
20
-5.1097179999999476
10
45.743368000000032
20
-5.1097179999999653
0
LWPOLYLINE
5
273
100
AcDbEntity
8
0
100
AcDbPolyline
90
4
70
1
43
0.0
10
43.033696000000006
20
-6.7099179999999592
10
43.033696000000006
20
-6.4797939999999521
10
42.373804000000021
20
-6.4797939999999699
10
42.373804000000021
20
-6.7099179999999592
0
LWPOLYLINE
5
274
100
AcDbEntity
8
0
100
AcDbPolyline
90
4
70
1
43
0.0
10
43.033695999999999
20
-4.8795939999999582
10
42.373804000000007
20
-4.8795939999999582
10
42.373804000000021
20
-5.1097179999999653
10
43.033696000000006
20
-5.1097179999999653
0
LWPOLYLINE
5
275
100
AcDbEntity
8
0
100
AcDbPolyline
90
4
70
1
43
0.0
10
43.033696000000006
20
-6.0797439999999625
10
42.373804000000021
20
-6.0797439999999625
10
42.373804000000021
20
-6.3098679999999696
10
43.033696000000006
20
-6.3098679999999696
0
LWPOLYLINE
5
276
100
AcDbEntity
8
0
100
AcDbPolyline
90
4
70
1
43
0.0
10
42.373804000000021
20
-5.2796439999999478
10
42.373804000000021
20
-5.5097679999999549
10
43.033696000000006
20
-5.5097679999999549
10
43.033696000000006
20
-5.2796439999999656
0
LWPOLYLINE
5
277
100
AcDbEntity
8
0
100
AcDbPolyline
90
4
70
1
43
0.0
10
45.743368000000032
20
-6.7099179999999592
10
45.743368000000032
20
-6.4797939999999521
10
45.083476000000019
20
-6.4797939999999521
10
45.083476000000019
20
-6.7099179999999592
0
LWPOLYLINE
5
278
100
AcDbEntity
8
0
100
AcDbPolyline
90
4
70
1
43
0.0
10
42.373804000000021
20
-6.8795899999999577
10
42.373804000000021
20
-7.1097139999999648
10
43.033696000000006
20
-7.1097139999999648
10
43.033696000000006
20
-6.8795899999999577
0
LWPOLYLINE
5
279
100
AcDbEntity
8
0
100
AcDbPolyline
90
4
70
1
43
0.0
10
43.033696000000006
20
-5.9098179999999445
10
43.033696000000006
20
-5.6796939999999552
10
42.373804000000021
20
-5.6796939999999729
10
42.373804000000021
20
-5.9098179999999623
0
LWPOLYLINE
5
280
100
AcDbEntity
8
0
100
AcDbPolyline
90
4
70
1
43
0.0
10
45.743368000000018
20
-4.7099219999999598
10
45.743368000000018
20
-4.4797979999999704
10
45.083476000000012
20
-4.4797979999999704
10
45.083476000000012
20
-4.7099219999999598
0
LWPOLYLINE
5
281
100
AcDbEntity
8
0
100
AcDbPolyline
90
4
70
1
43
0.0
10
45.083476000000019
20
-6.3098679999999518
10
45.743368000000032
20
-6.3098679999999518
10
45.743368000000032
20
-6.0797439999999625
10
45.083476000000019
20
-6.0797439999999625
0
LWPOLYLINE
5
282
100
AcDbEntity
8
0
100
AcDbPolyline
90
4
70
1
43
0.0
10
45.743368000000032
20
-5.6796939999999552
10
45.083476000000019
20
-5.6796939999999552
10
45.083476000000019
20
-5.9098179999999445
10
45.743368000000032
20
-5.9098179999999445
0
LWPOLYLINE
5
283
100
AcDbEntity
8
0
100
AcDbPolyline
90
4
70
1
43
0.0
10
43.033695999999999
20
-4.4797979999999704
10
42.373804000000007
20
-4.4797979999999704
10
42.373804000000007
20
-4.7099219999999598
10
43.033695999999999
20
-4.7099219999999598
0
LWPOLYLINE
5
284
100
AcDbEntity
8
0
100
AcDbPolyline
90
4
70
1
43
0.0
10
43.033695999999999
20
-2.7099259999999603
10
43.033695999999999
20
-2.479801999999971
10
42.373804000000007
20
-2.4798019999999532
10
42.373804000000007
20
-2.7099259999999603
0
LWPOLYLINE
5
285
100
AcDbEntity
8
0
100
AcDbPolyline
90
4
70
1
43
0.0
10
43.033695999999999
20
-4.3098719999999702
10
43.033695999999999
20
-4.0797479999999808
10
42.373804000000007
20
-4.0797479999999808
10
42.373804000000007
20
-4.3098719999999702
0
LWPOLYLINE
5
286
100
AcDbEntity
8
0
100
AcDbPolyline
90
4
70
1
43
0.0
10
45.083476000000012
20
-3.9098219999999806
10
45.743368000000018
20
-3.9098219999999806
10
45.743368000000018
20
-3.6796979999999735
10
45.083476000000012
20
-3.6796979999999735
0
LWPOLYLINE
5
287
100
AcDbEntity
8
0
100
AcDbPolyline
90
4
70
1
43
0.0
10
43.033695999999999
20
-3.6796979999999735
10
42.373804000000007
20
-3.6796979999999735
10
42.373804000000007
20
-3.9098219999999806
10
43.033695999999999
20
-3.9098219999999806
0
LWPOLYLINE
5
288
100
AcDbEntity
8
0
100
AcDbPolyline
90
4
70
1
43
0.0
10
43.033695999999999
20
-2.8795979999999766
10
42.373804000000007
20
-2.8795979999999766
10
42.373804000000007
20
-3.1097219999999659
10
43.033695999999999
20
-3.1097219999999659
0
LWPOLYLINE
5
289
100
AcDbEntity
8
0
100
AcDbPolyline
90
4
70
1
43
0.0
10
43.033695999999999
20
-2.0797519999999636
10
42.373804000000007
20
-2.0797519999999636
10
42.373804000000007
20
-2.3098759999999707
10
43.033695999999999
20
-2.3098759999999707
0
LWPOLYLINE
5
290
100
AcDbEntity
8
0
100
AcDbPolyline
90
4
70
1
43
0.0
10
43.033695999999999
20
-3.2796479999999839
10
42.373804000000007
20
-3.2796479999999839
10
42.373804000000007
20
-3.5097719999999732
10
43.033695999999999
20
-3.5097719999999732
0
LWPOLYLINE
5
291
100
AcDbEntity
8
0
100
AcDbPolyline
90
4
70
1
43
0.0
10
45.083476000000012
20
-2.4798019999999532
10
45.083476000000012
20
-2.7099259999999603
10
45.743368000000018
20
-2.7099259999999603
10
45.743368000000018
20
-2.479801999999971
0
LWPOLYLINE
5
292
100
AcDbEntity
8
0
100
AcDbPolyline
90
4
70
1
43
0.0
10
45.743368000000018
20
-3.2796479999999839
10
45.083476000000012
20
-3.2796479999999839
10
45.083476000000012
20
-3.5097719999999732
10
45.743368000000018
20
-3.5097719999999732
0
LWPOLYLINE
5
293
100
AcDbEntity
8
0
100
AcDbPolyline
90
4
70
1
43
0.0
10
45.743368000000018
20
-4.3098719999999702
10
45.743368000000018
20
-4.0797479999999808
10
45.083476000000012
20
-4.0797479999999631
10
45.083476000000012
20
-4.3098719999999702
0
LWPOLYLINE
5
294
100
AcDbEntity
8
0
100
AcDbPolyline
90
4
70
1
43
0.0
10
45.743368000000018
20
-2.8795979999999766
10
45.083476000000012
20
-2.8795979999999766
10
45.083476000000012
20
-3.1097219999999659
10
45.743368000000018
20
-3.1097219999999659
0
LWPOLYLINE
5
295
100
AcDbEntity
8
0
100
AcDbPolyline
90
4
70
1
43
0.0
10
45.743368000000018
20
-2.0797519999999636
10
45.083476000000012
20
-2.0797519999999636
10
45.083476000000012
20
-2.3098759999999707
10
45.743368000000018
20
-2.309875999999953
0
LWPOLYLINE
5
296
100
AcDbEntity
8
0
100
AcDbPolyline
90
4
70
1
43
0.0
10
45.743368000000018
20
-0.87960199999997712
10
45.083476000000012
20
-0.87960199999997712
10
45.083476000000012
20
-1.1097259999999665
10
45.743368000000018
20
-1.1097259999999665
0
LWPOLYLINE
5
297
100
AcDbEntity
8
0
100
AcDbPolyline
90
4
70
1
43
0.0
10
45.743368000000018
20
0.32029400000002539
10
45.083476000000012
20
0.32029400000002539
10
45.083476000000012
20
0.090170000000036055
10
45.743368000000018
20
0.090170000000018291
0
LWPOLYLINE
5
298
100
AcDbEntity
8
0
100
AcDbPolyline
90
4
70
1
43
0.0
10
45.083476000000012
20
-0.079755999999981952
10
45.083476000000012
20
-0.30987999999997129
10
45.743368000000018
20
-0.30987999999997129
10
45.743368000000018
20
-0.079755999999981952
0
LWPOLYLINE
5
299
100
AcDbEntity
8
0
100
AcDbPolyline
90
4
70
1
43
0.0
10
43.033695999999999
20
-1.9098259999999811
10
43.033695999999999
20
-1.679701999999974
10
42.373804000000007
20
-1.679701999999974
10
42.373804000000007
20
-1.9098259999999634
0
LWPOLYLINE
5
300
100
AcDbEntity
8
0
100
AcDbPolyline
90
4
70
1
43
0.0
10
43.033695999999999
20
-1.1097259999999665
10
43.033695999999999
20
-0.87960199999997712
10
42.373804000000007
20
-0.87960199999997712
10
42.373804000000007
20
-1.1097259999999665
0
LWPOLYLINE
5
301
100
AcDbEntity
8
0
100
AcDbPolyline
90
4
70
1
43
0.0
10
43.033695999999999
20
0.32029400000002539
10
42.373803999999993
20
0.32029400000002539
10
42.373804000000007
20
0.090170000000018291
10
43.033695999999999
20
0.090170000000018291
0
LWPOLYLINE
5
302
100
AcDbEntity
8
0
100
AcDbPolyline
90
4
70
1
43
0.0
10
45.743368000000018
20
-0.47980599999997153
10
45.083476000000012
20
-0.47980599999997153
10
45.083476000000012
20
-0.70992999999996087
10
45.743368000000018
20
-0.70992999999996087
0
LWPOLYLINE
5
303
100
AcDbEntity
8
0
100
AcDbPolyline
90
4
70
1
43
0.0
10
43.033695999999999
20
-1.5097759999999738
10
43.033695999999999
20
-1.2796519999999667
10
42.373804000000007
20
-1.2796519999999845
10
42.373804000000007
20
-1.5097759999999738
0
LWPOLYLINE
5
304
100
AcDbEntity
8
0
100
AcDbPolyline
90
4
70
1
43
0.0
10
45.743368000000018
20
-1.5097759999999738
10
45.743368000000018
20
-1.2796519999999667
10
45.083476000000012
20
-1.2796519999999667
10
45.083476000000012
20
-1.5097759999999738
0
LWPOLYLINE
5
305
100
AcDbEntity
8
0
100
AcDbPolyline
90
4
70
1
43
0.0
10
43.033695999999999
20
-0.70992999999996087
10
43.033695999999999
20
-0.47980599999997153
10
42.373804000000007
20
-0.4798059999999893
10
42.373804000000007
20
-0.70992999999997863
0
LWPOLYLINE
5
306
100
AcDbEntity
8
0
100
AcDbPolyline
90
4
70
1
43
0.0
10
43.033695999999999
20
-0.079755999999981952
10
42.373804000000007
20
-0.079755999999981952
10
42.373804000000007
20
-0.30987999999997129
10
43.033695999999999
20
-0.30987999999997129
0
LWPOLYLINE
5
307
100
AcDbEntity
8
0
100
AcDbPolyline
90
4
70
1
43
0.0
10
45.743368000000018
20
-1.9098259999999811
10
45.743368000000018
20
-1.679701999999974
10
45.083476000000012
20
-1.679701999999974
10
45.083476000000012
20
-1.9098259999999634
0
LWPOLYLINE
5
308
100
AcDbEntity
8
0
100
AcDbPolyline
90
4
70
1
43
0.0
10
45.743368000000018
20
0.49022000000002564
10
45.743368000000018
20
0.72034400000001497
10
45.083476000000012
20
0.72034400000001497
10
45.083476000000012
20
0.49022000000002564
0
LWPOLYLINE
5
309
100
AcDbEntity
8
0
100
AcDbPolyline
90
4
70
1
43
0.0
10
45.083476000000012
20
2.8902660000000147
10
45.743368000000004
20
2.8902660000000147
10
45.743368000000004
20
3.1203900000000218
10
45.083476000000012
20
3.1203900000000218
0
LWPOLYLINE
5
310
100
AcDbEntity
8
0
100
AcDbPolyline
90
4
70
1
43
0.0
10
45.083476000000012
20
2.3202900000000071
10
45.083476000000012
20
2.0901660000000177
10
45.743368000000004
20
2.0901660000000177
10
45.743368000000004
20
2.3202900000000071
0
LWPOLYLINE
5
311
100
AcDbEntity
8
0
100
AcDbPolyline
90
4
70
1
43
0.0
10
43.033695999999999
20
3.1203900000000218
10
42.373803999999993
20
3.1203900000000218
10
42.373803999999993
20
2.8902660000000147
10
43.033695999999999
20
2.8902660000000147
0
LWPOLYLINE
5
312
100
AcDbEntity
8
0
100
AcDbPolyline
90
4
70
1
43
0.0
10
43.033695999999999
20
1.5201900000000101
10
42.373803999999993
20
1.5201900000000101
10
42.373803999999993
20
1.2900660000000208
10
43.033695999999999
20
1.290066000000003
0
LWPOLYLINE
5
313
100
AcDbEntity
8
0
100
AcDbPolyline
90
4
70
1
43
0.0
10
42.373803999999993
20
1.1203940000000046
10
42.373803999999993
20
0.89027000000001522
10
43.033695999999999
20
0.89027000000001522
10
43.033695999999999
20
1.1203940000000223
0
LWPOLYLINE
5
314
100
AcDbEntity
8
0
100
AcDbPolyline
90
4
70
1
43
0.0
10
42.373803999999993
20
2.0901660000000177
10
43.033695999999999
20
2.0901660000000177
10
43.033695999999999
20
2.3202900000000248
10
42.373803999999993
20
2.3202900000000071
0
LWPOLYLINE
5
315
100
AcDbEntity
8
0
100
AcDbPolyline
90
4
70
1
43
0.0
10
45.083476000000012
20
1.1203940000000223
10
45.083476000000012
20
0.89027000000001522
10
45.743368000000018
20
0.89027000000001522
10
45.743368000000018
20
1.1203940000000223
0
LWPOLYLINE
5
316
100
AcDbEntity
8
0
100
AcDbPolyline
90
4
70
1
43
0.0
10
42.373803999999993
20
0.72034400000001497
10
42.373803999999993
20
0.49022000000002564
10
43.033695999999999
20
0.49022000000002564
10
43.033695999999999
20
0.72034400000001497
0
LWPOLYLINE
5
317
100
AcDbEntity
8
0
100
AcDbPolyline
90
4
70
1
43
0.0
10
45.083476000000012
20
1.6901160000000104
10
45.743368000000004
20
1.6901160000000104
10
45.743368000000004
20
1.9202400000000175
10
45.083476000000012
20
1.9202400000000175
0
LWPOLYLINE
5
318
100
AcDbEntity
8
0
100
AcDbPolyline
90
4
70
1
43
0.0
10
45.743368000000018
20
1.290066000000003
10
45.743368000000018
20
1.5201900000000101
10
45.083476000000012
20
1.5201900000000101
10
45.083476000000012
20
1.290066000000003
0
LWPOLYLINE
5
319
100
AcDbEntity
8
0
100
AcDbPolyline
90
4
70
1
43
0.0
10
42.373803999999993
20
1.6901160000000104
10
43.033695999999999
20
1.6901160000000104
10
43.033695999999999
20
1.9202400000000175
10
42.373803999999993
20
1.9202400000000175
0
LWPOLYLINE
5
320
100
AcDbEntity
8
0
100
AcDbPolyline
90
4
70
1
43
0.0
10
43.033695999999999
20
2.7203400000000144
10
42.373803999999993
20
2.7203400000000144
10
42.373803999999993
20
2.4902160000000251
10
43.033695999999999
20
2.4902160000000073
0
LWPOLYLINE
5
321
100
AcDbEntity
8
0
100
AcDbPolyline
90
4
70
1
43
0.0
10
45.083476000000012
20
2.7203400000000144
10
45.083476000000012
20
2.4902160000000073
10
45.743368000000004
20
2.4902160000000251
10
45.743368000000004
20
2.7203400000000144
0
LWPOLYLINE
5
322
100
AcDbEntity
8
0
100
AcDbPolyline
90
4
70
1
43
0.0
10
43.033695999999992
20
4.4902120000000245
10
43.033695999999992
20
4.7203360000000139
10
42.373803999999986
20
4.7203360000000139
10
42.373803999999986
20
4.4902120000000245
0
LWPOLYLINE
5
323
100
AcDbEntity
8
0
100
AcDbPolyline
90
4
70
1
43
0.0
10
45.083476000000012
20
3.5201860000000273
10
45.083476000000012
20
3.290062000000038
10
45.743368000000004
20
3.2900620000000202
10
45.743368000000004
20
3.5201860000000273
0
LWPOLYLINE
5
324
100
AcDbEntity
8
0
100
AcDbPolyline
90
4
70
1
43
0.0
10
43.033695999999992
20
4.8902620000000319
10
43.033695999999992
20
5.1203860000000212
10
42.373803999999986
20
5.1203860000000212
10
42.373803999999986
20
4.8902620000000141
0
LWPOLYLINE
5
325
100
AcDbEntity
8
0
100
AcDbPolyline
90
4
70
1
43
0.0
10
42.373803999999986
20
5.2900580000000197
10
43.033695999999992
20
5.2900580000000197
10
43.033695999999992
20
5.5201820000000268
10
42.373803999999986
20
5.5201820000000268
0
LWPOLYLINE
5
326
100
AcDbEntity
8
0
100
AcDbPolyline
90
4
70
1
43
0.0
10
45.74336799999999
20
4.0901620000000172
10
45.74336799999999
20
4.3202860000000243
10
45.083476000000005
20
4.3202860000000243
10
45.083476000000005
20
4.0901620000000172
0
LWPOLYLINE
5
327
100
AcDbEntity
8
0
100
AcDbPolyline
90
4
70
1
43
0.0
10
45.083476000000005
20
5.2900580000000197
10
45.74336799999999
20
5.2900580000000197
10
45.74336799999999
20
5.5201820000000268
10
45.083476000000005
20
5.5201820000000268
0
LWPOLYLINE
5
328
100
AcDbEntity
8
0
100
AcDbPolyline
90
4
70
1
43
0.0
10
42.373803999999986
20
4.3202860000000243
10
42.373803999999986
20
4.0901620000000172
10
43.033695999999992
20
4.0901620000000172
10
43.033695999999992
20
4.3202860000000243
0
LWPOLYLINE
5
329
100
AcDbEntity
8
0
100
AcDbPolyline
90
4
70
1
43
0.0
10
45.74336799999999
20
4.4902120000000245
10
45.74336799999999
20
4.7203360000000139
10
45.083476000000005
20
4.7203360000000316
10
45.083476000000005
20
4.4902120000000245
0
LWPOLYLINE
5
330
100
AcDbEntity
8
0
100
AcDbPolyline
90
4
70
1
43
0.0
10
43.033695999999999
20
3.2900620000000202
10
43.033695999999999
20
3.5201860000000273
10
42.373803999999993
20
3.5201860000000273
10
42.373803999999993
20
3.290062000000038
0
LWPOLYLINE
5
331
100
AcDbEntity
8
0
100
AcDbPolyline
90
4
70
1
43
0.0
10
45.74336799999999
20
3.6901120000000276
10
45.74336799999999
20
3.9202360000000347
10
45.083476000000005
20
3.9202360000000347
10
45.083476000000005
20
3.6901120000000276
0
LWPOLYLINE
5
332
100
AcDbEntity
8
0
100
AcDbPolyline
90
4
70
1
43
0.0
10
42.373803999999986
20
3.9202360000000169
10
42.373803999999986
20
3.6901120000000276
10
43.033695999999992
20
3.6901120000000276
10
43.033695999999992
20
3.9202360000000347
0
LWPOLYLINE
5
333
100
AcDbEntity
8
0
100
AcDbPolyline
90
4
70
1
43
0.0
10
45.74336799999999
20
5.1203860000000212
10
45.083476000000005
20
5.1203860000000212
10
45.083476000000005
20
4.8902620000000319
10
45.74336799999999
20
4.8902620000000319
0
LWPOLYLINE
5
334
100
AcDbEntity
8
0
100
AcDbPolyline
90
4
70
1
43
0.0
10
45.74336799999999
20
5.9202320000000164
10
45.083476000000005
20
5.9202320000000164
10
45.083476000000005
20
5.6901080000000093
10
45.74336799999999
20
5.690108000000027
0
LWPOLYLINE
5
335
100
AcDbEntity
8
0
100
AcDbPolyline
90
4
70
1
43
0.0
10
43.033695999999992
20
6.8902580000000135
10
43.033695999999992
20
7.1203820000000206
10
42.373803999999986
20
7.1203820000000206
10
42.373803999999986
20
6.8902580000000135
0
LWPOLYLINE
5
336
100
AcDbEntity
8
0
100
AcDbPolyline
90
4
70
1
43
0.0
10
45.083476000000005
20
7.1203820000000206
10
45.083476000000005
20
6.8902580000000135
10
45.74336799999999
20
6.8902580000000135
10
45.74336799999999
20
7.1203820000000206
0
LWPOLYLINE
5
337
100
AcDbEntity
8
0
100
AcDbPolyline
90
4
70
1
43
0.0
10
43.033695999999992
20
7.6801980000000292
10
42.373803999999986
20
7.6801980000000292
10
42.373803999999986
20
7.3301860000000296
10
43.033695999999992
20
7.3301860000000119
0
LWPOLYLINE
5
338
100
AcDbEntity
8
0
100
AcDbPolyline
90
4
70
1
43
0.0
10
42.373804000000021
20
-12.919709999999966
10
42.373804000000021
20
-13.269721999999948
10
43.033696000000027
20
-13.269721999999948
10
43.033696000000027
20
-12.919709999999949
0
LWPOLYLINE
5
339
100
AcDbEntity
8
0
100
AcDbPolyline
90
4
70
1
43
0.0
10
45.743368000000032
20
-12.919709999999949
10
45.08347600000004
20
-12.919709999999949
10
45.08347600000004
20
-13.269721999999948
10
45.743368000000032
20
-13.269721999999948
0
LWPOLYLINE
5
340
100
AcDbEntity
8
0
100
AcDbPolyline
90
4
70
1
43
0.0
10
42.373803999999986
20
5.9202320000000164
10
42.373803999999986
20
5.690108000000027
10
43.033695999999992
20
5.690108000000027
10
43.033695999999992
20
5.9202320000000164
0
LWPOLYLINE
5
341
100
AcDbEntity
8
0
100
AcDbPolyline
90
4
70
1
43
0.0
10
45.74336799999999
20
6.0901580000000166
10
45.74336799999999
20
6.320282000000006
10
45.083476000000005
20
6.320282000000006
10
45.083476000000005
20
6.0901580000000166
0
LWPOLYLINE
5
342
100
AcDbEntity
8
0
100
AcDbPolyline
90
4
70
1
43
0.0
10
42.373803999999986
20
6.3202820000000237
10
42.373803999999986
20
6.0901580000000166
10
43.033695999999992
20
6.0901580000000166
10
43.033695999999992
20
6.320282000000006
0
LWPOLYLINE
5
343
100
AcDbEntity
8
0
100
AcDbPolyline
90
4
70
1
43
0.0
10
45.74336799999999
20
6.7203320000000133
10
45.083476000000005
20
6.7203320000000133
10
45.083476000000005
20
6.4902080000000062
10
45.74336799999999
20
6.4902080000000062
0
LWPOLYLINE
5
344
100
AcDbEntity
8
0
100
AcDbPolyline
90
4
70
1
43
0.0
10
45.74336799999999
20
7.3301860000000119
10
45.74336799999999
20
7.6801980000000114
10
45.083476000000005
20
7.6801980000000292
10
45.083476000000005
20
7.3301860000000296
0
LWPOLYLINE
5
345
100
AcDbEntity
8
0
100
AcDbPolyline
90
4
70
1
43
0.0
10
43.033695999999992
20
6.7203320000000133
10
42.373803999999986
20
6.7203320000000133
10
42.373803999999986
20
6.490208000000024
10
43.033695999999992
20
6.4902080000000062
0
LWPOLYLINE
5
346
100
AcDbEntity
8
0
100
AcDbPolyline
90
4
70
1
43
0.0
10
79.083408000000162
20
-12.479782000000004
10
79.083408000000162
20
-12.709906000000011
10
79.743300000000147
20
-12.709905999999993
10
79.743300000000147
20
-12.479782000000004
0
LWPOLYLINE
5
347
100
AcDbEntity
8
0
100
AcDbPolyline
90
4
70
1
43
0.0
10
76.373736000000164
20
-10.079736000000015
10
76.373736000000164
20
-10.309860000000004
10
77.033628000000164
20
-10.309860000000004
10
77.033628000000164
20
-10.079736000000032
0
LWPOLYLINE
5
348
100
AcDbEntity
8
0
100
AcDbPolyline
90
4
70
1
43
0.0
10
79.083408000000162
20
-11.909806000000014
10
79.743300000000147
20
-11.909806000000014
10
79.743300000000147
20
-11.679682000000007
10
79.083408000000162
20
-11.679682000000007
0
LWPOLYLINE
5
349
100
AcDbEntity
8
0
100
AcDbPolyline
90
4
70
1
43
0.0
10
79.743300000000147
20
-11.509756000000007
10
79.743300000000147
20
-11.279632000000017
10
79.083408000000162
20
-11.279632000000017
10
79.083408000000162
20
-11.509756000000024
0
LWPOLYLINE
5
350
100
AcDbEntity
8
0
100
AcDbPolyline
90
4
70
1
43
0.0
10
77.033628000000164
20
-10.87958200000001
10
76.373736000000164
20
-10.87958200000001
10
76.373736000000164
20
-11.109706000000017
10
77.033628000000164
20
-11.109705999999999
0
LWPOLYLINE
5
351
100
AcDbEntity
8
0
100
AcDbPolyline
90
4
70
1
43
0.0
10
79.083408000000162
20
-10.479786000000022
10
79.083408000000162
20
-10.709910000000029
10
79.743300000000147
20
-10.709910000000011
10
79.743300000000147
20
-10.479786000000022
0
LWPOLYLINE
5
352
100
AcDbEntity
8
0
100
AcDbPolyline
90
4
70
1
43
0.0
10
79.743300000000147
20
-10.87958200000001
10
79.083408000000162
20
-10.87958200000001
10
79.083408000000162
20
-11.109705999999999
10
79.743300000000147
20
-11.109705999999999
0
LWPOLYLINE
5
353
100
AcDbEntity
8
0
100
AcDbPolyline
90
4
70
1
43
0.0
10
76.373736000000164
20
-12.309856000000003
10
77.033628000000164
20
-12.309856000000003
10
77.033628000000164
20
-12.079732000000014
10
76.373736000000164
20
-12.079732000000014
0
LWPOLYLINE
5
354
100
AcDbEntity
8
0
100
AcDbPolyline
90
4
70
1
43
0.0
10
77.033628000000164
20
-11.679682000000007
10
76.373736000000164
20
-11.679682000000007
10
76.373736000000164
20
-11.909806000000014
10
77.033628000000164
20
-11.909806000000014
0
LWPOLYLINE
5
355
100
AcDbEntity
8
0
100
AcDbPolyline
90
4
70
1
43
0.0
10
79.083408000000162
20
-12.309856000000021
10
79.743300000000147
20
-12.309856000000021
10
79.743300000000147
20
-12.079732000000014
10
79.083408000000162
20
-12.079732000000014
0
LWPOLYLINE
5
356
100
AcDbEntity
8
0
100
AcDbPolyline
90
4
70
1
43
0.0
10
76.373736000000164
20
-11.279632000000017
10
76.373736000000164
20
-11.509756000000007
10
77.033628000000164
20
-11.509756000000007
10
77.033628000000164
20
-11.279632000000017
0
LWPOLYLINE
5
357
100
AcDbEntity
8
0
100
AcDbPolyline
90
4
70
1
43
0.0
10
77.033628000000164
20
-10.479786000000022
10
76.373736000000164
20
-10.479786000000022
10
76.373736000000164
20
-10.709910000000029
10
77.033628000000164
20
-10.709910000000029
0
LWPOLYLINE
5
358
100
AcDbEntity
8
0
100
AcDbPolyline
90
4
70
1
43
0.0
10
77.033628000000164
20
-12.479782000000004
10
76.373736000000164
20
-12.479782000000004
10
76.373736000000164
20
-12.709906000000011
10
77.033628000000164
20
-12.709906000000011
0
LWPOLYLINE
5
359
100
AcDbEntity
8
0
100
AcDbPolyline
90
4
70
1
43
0.0
10
79.083408000000162
20
-10.309860000000022
10
79.743300000000147
20
-10.309860000000022
10
79.743300000000147
20
-10.079736000000032
10
79.083408000000162
20
-10.079736000000032
0
LWPOLYLINE
5
360
100
AcDbEntity
8
0
100
AcDbPolyline
90
4
70
1
43
0.0
10
79.083408000000162
20
-9.5097600000000249
10
79.743300000000147
20
-9.5097600000000249
10
79.743300000000147
20
-9.2796360000000178
10
79.083408000000162
20
-9.279636
0
LWPOLYLINE
5
361
100
AcDbEntity
8
0
100
AcDbPolyline
90
4
70
1
43
0.0
10
79.743300000000147
20
-8.7099139999999942
10
79.743300000000147
20
-8.4797900000000048
10
79.083408000000162
20
-8.4797900000000048
10
79.083408000000162
20
-8.7099139999999942
0
LWPOLYLINE
5
362
100
AcDbEntity
8
0
100
AcDbPolyline
90
4
70
1
43
0.0
10
76.373736000000164
20
-9.9098100000000144
10
77.033628000000164
20
-9.9098100000000144
10
77.033628000000164
20
-9.6796860000000251
10
76.373736000000164
20
-9.6796860000000251
0
LWPOLYLINE
5
363
100
AcDbEntity
8
0
100
AcDbPolyline
90
4
70
1
43
0.0
10
76.373736000000164
20
-8.8795860000000104
10
76.373736000000164
20
-9.1097100000000175
10
77.033628000000164
20
-9.1097100000000175
10
77.033628000000164
20
-8.8795860000000104
0
LWPOLYLINE
5
364
100
AcDbEntity
8
0
100
AcDbPolyline
90
4
70
1
43
0.0
10
76.373736000000164
20
-8.3098639999999868
10
77.033628000000164
20
-8.3098639999999868
10
77.033628000000164
20
-8.0797399999999975
10
76.373736000000164
20
-8.0797399999999975
0
LWPOLYLINE
5
365
100
AcDbEntity
8
0
100
AcDbPolyline
90
4
70
1
43
0.0
10
79.743300000000147
20
-8.3098640000000046
10
79.743300000000147
20
-8.0797399999999975
10
79.083408000000162
20
-8.0797399999999975
10
79.083408000000162
20
-8.3098639999999868
0
LWPOLYLINE
5
366
100
AcDbEntity
8
0
100
AcDbPolyline
90
4
70
1
43
0.0
10
77.033628000000164
20
-8.7099139999999942
10
77.033628000000164
20
-8.4797900000000048
10
76.373736000000164
20
-8.4797900000000048
10
76.373736000000164
20
-8.7099139999999942
0
LWPOLYLINE
5
367
100
AcDbEntity
8
0
100
AcDbPolyline
90
4
70
1
43
0.0
10
79.743300000000147
20
-7.9098139999999972
10
79.743300000000147
20
-7.6796899999999901
10
79.083408000000162
20
-7.6796899999999901
10
79.083408000000162
20
-7.9098139999999972
0
LWPOLYLINE
5
368
100
AcDbEntity
8
0
100
AcDbPolyline
90
4
70
1
43
0.0
10
76.373736000000164
20
-9.2796360000000178
10
76.373736000000164
20
-9.5097600000000249
10
77.033628000000164
20
-9.5097600000000249
10
77.033628000000164
20
-9.279636
0
LWPOLYLINE
5
369
100
AcDbEntity
8
0
100
AcDbPolyline
90
4
70
1
43
0.0
10
76.373736000000164
20
-7.9098139999999972
10
77.033628000000164
20
-7.9098139999999972
10
77.033628000000164
20
-7.6796899999999901
10
76.373736000000164
20
-7.6796900000000079
0
LWPOLYLINE
5
370
100
AcDbEntity
8
0
100
AcDbPolyline
90
4
70
1
43
0.0
10
79.743300000000147
20
-9.6796860000000251
10
79.083408000000162
20
-9.6796860000000251
10
79.083408000000162
20
-9.9098100000000144
10
79.743300000000147
20
-9.9098100000000144
0
LWPOLYLINE
5
371
100
AcDbEntity
8
0
100
AcDbPolyline
90
4
70
1
43
0.0
10
79.743300000000147
20
-7.2796400000000006
10
79.083408000000162
20
-7.2796400000000006
10
79.083408000000162
20
-7.5097640000000077
10
79.743300000000147
20
-7.5097639999999899
0
LWPOLYLINE
5
372
100
AcDbEntity
8
0
100
AcDbPolyline
90
4
70
1
43
0.0
10
79.083408000000162
20
-9.1097100000000175
10
79.743300000000147
20
-9.1097100000000175
10
79.743300000000147
20
-8.8795860000000104
10
79.083408000000162
20
-8.8795860000000104
0
LWPOLYLINE
5
373
100
AcDbEntity
8
0
100
AcDbPolyline
90
4
70
1
43
0.0
10
79.083408000000134
20
-4.8795940000000115
10
79.083408000000134
20
-5.1097180000000009
10
79.743300000000147
20
-5.1097180000000186
10
79.743300000000147
20
-4.8795940000000115
0
LWPOLYLINE
5
374
100
AcDbEntity
8
0
100
AcDbPolyline
90
4
70
1
43
0.0
10
79.743300000000147
20
-5.6796940000000085
10
79.083408000000162
20
-5.6796940000000085
10
79.083408000000162
20
-5.9098179999999978
10
79.743300000000147
20
-5.9098179999999978
0
LWPOLYLINE
5
375
100
AcDbEntity
8
0
100
AcDbPolyline
90
4
70
1
43
0.0
10
77.033628000000149
20
-4.8795940000000115
10
76.373736000000164
20
-4.8795940000000115
10
76.373736000000164
20
-5.1097180000000009
10
77.033628000000149
20
-5.1097180000000009
0
LWPOLYLINE
5
376
100
AcDbEntity
8
0
100
AcDbPolyline
90
4
70
1
43
0.0
10
79.743300000000147
20
-7.1097140000000181
10
79.743300000000147
20
-6.879590000000011
10
79.083408000000162
20
-6.879590000000011
10
79.083408000000162
20
-7.1097140000000003
0
LWPOLYLINE
5
377
100
AcDbEntity
8
0
100
AcDbPolyline
90
4
70
1
43
0.0
10
76.373736000000164
20
-7.1097140000000003
10
77.033628000000164
20
-7.1097140000000003
10
77.033628000000164
20
-6.879590000000011
10
76.373736000000164
20
-6.879590000000011
0
LWPOLYLINE
5
378
100
AcDbEntity
8
0
100
AcDbPolyline
90
4
70
1
43
0.0
10
79.083408000000162
20
-6.3098680000000051
10
79.743300000000147
20
-6.3098680000000051
10
79.743300000000147
20
-6.0797440000000158
10
79.083408000000162
20
-6.0797440000000158
0
LWPOLYLINE
5
379
100
AcDbEntity
8
0
100
AcDbPolyline
90
4
70
1
43
0.0
10
76.373736000000164
20
-7.2796400000000006
10
76.373736000000164
20
-7.5097639999999899
10
77.033628000000164
20
-7.5097640000000077
10
77.033628000000164
20
-7.2796400000000006
0
LWPOLYLINE
5
380
100
AcDbEntity
8
0
100
AcDbPolyline
90
4
70
1
43
0.0
10
79.083408000000162
20
-6.4797940000000054
10
79.083408000000162
20
-6.7099180000000125
10
79.743300000000147
20
-6.7099180000000125
10
79.743300000000147
20
-6.4797940000000054
0
LWPOLYLINE
5
381
100
AcDbEntity
8
0
100
AcDbPolyline
90
4
70
1
43
0.0
10
76.373736000000164
20
-6.0797440000000158
10
76.373736000000164
20
-6.3098680000000051
10
77.033628000000164
20
-6.3098680000000051
10
77.033628000000164
20
-6.0797440000000158
0
LWPOLYLINE
5
382
100
AcDbEntity
8
0
100
AcDbPolyline
90
4
70
1
43
0.0
10
77.033628000000164
20
-5.5097680000000082
10
77.033628000000149
20
-5.2796440000000189
10
76.373736000000164
20
-5.2796440000000011
10
76.373736000000164
20
-5.5097680000000082
0
LWPOLYLINE
5
383
100
AcDbEntity
8
0
100
AcDbPolyline
90
4
70
1
43
0.0
10
76.373736000000164
20
-5.6796940000000262
10
76.373736000000164
20
-5.9098180000000156
10
77.033628000000164
20
-5.9098179999999978
10
77.033628000000164
20
-5.6796940000000085
0
LWPOLYLINE
5
384
100
AcDbEntity
8
0
100
AcDbPolyline
90
4
70
1
43
0.0
10
77.033628000000164
20
-6.7099180000000125
10
77.033628000000164
20
-6.4797940000000054
10
76.373736000000164
20
-6.4797940000000054
10
76.373736000000164
20
-6.7099180000000125
0
LWPOLYLINE
5
385
100
AcDbEntity
8
0
100
AcDbPolyline
90
4
70
1
43
0.0
10
79.743300000000147
20
-5.2796440000000189
10
79.083408000000134
20
-5.2796440000000189
10
79.083408000000162
20
-5.5097680000000082
10
79.743300000000147
20
-5.5097680000000082
0
LWPOLYLINE
5
386
100
AcDbEntity
8
0
100
AcDbPolyline
90
4
70
1
43
0.0
10
79.743300000000147
20
-3.1097220000000192
10
79.743300000000147
20
-2.8795980000000299
10
79.083408000000134
20
-2.8795980000000299
10
79.083408000000134
20
-3.1097220000000192
0
LWPOLYLINE
5
387
100
AcDbEntity
8
0
100
AcDbPolyline
90
4
70
1
43
0.0
10
76.373736000000164
20
-2.7099260000000136
10
77.033628000000149
20
-2.7099260000000136
10
77.033628000000149
20
-2.4798020000000243
10
76.373736000000164
20
-2.4798020000000243
0
LWPOLYLINE
5
388
100
AcDbEntity
8
0
100
AcDbPolyline
90
4
70
1
43
0.0
10
77.033628000000149
20
-4.709922000000013
10
77.033628000000149
20
-4.4797980000000237
10
76.373736000000164
20
-4.4797980000000237
10
76.373736000000164
20
-4.709922000000013
0
LWPOLYLINE
5
389
100
AcDbEntity
8
0
100
AcDbPolyline
90
4
70
1
43
0.0
10
79.083408000000134
20
-4.0797480000000164
10
79.083408000000134
20
-4.3098720000000235
10
79.743300000000147
20
-4.3098720000000235
10
79.743300000000147
20
-4.0797480000000164
0
LWPOLYLINE
5
390
100
AcDbEntity
8
0
100
AcDbPolyline
90
4
70
1
43
0.0
10
79.083408000000134
20
-4.709922000000013
10
79.743300000000147
20
-4.709922000000013
10
79.743300000000147
20
-4.4797980000000237
10
79.083408000000134
20
-4.4797980000000237
0
LWPOLYLINE
5
391
100
AcDbEntity
8
0
100
AcDbPolyline
90
4
70
1
43
0.0
10
79.743300000000147
20
-2.4798020000000065
10
79.083408000000134
20
-2.4798020000000065
10
79.083408000000134
20
-2.7099260000000136
10
79.743300000000147
20
-2.7099260000000136
0
LWPOLYLINE
5
392
100
AcDbEntity
8
0
100
AcDbPolyline
90
4
70
1
43
0.0
10
77.033628000000149
20
-3.1097220000000192
10
77.033628000000149
20
-2.8795980000000299
10
76.373736000000164
20
-2.8795980000000299
10
76.373736000000164
20
-3.1097220000000192
0
LWPOLYLINE
5
393
100
AcDbEntity
8
0
100
AcDbPolyline
90
4
70
1
43
0.0
10
79.083408000000134
20
-3.6796980000000268
10
79.083408000000134
20
-3.9098220000000161
10
79.743300000000147
20
-3.9098220000000339
10
79.743300000000147
20
-3.6796980000000268
0
LWPOLYLINE
5
394
100
AcDbEntity
8
0
100
AcDbPolyline
90
4
70
1
43
0.0
10
79.083408000000134
20
-3.5097720000000265
10
79.743300000000147
20
-3.5097720000000265
10
79.743300000000147
20
-3.2796480000000372
10
79.083408000000134
20
-3.2796480000000372
0
LWPOLYLINE
5
395
100
AcDbEntity
8
0
100
AcDbPolyline
90
4
70
1
43
0.0
10
77.033628000000149
20
-3.6796980000000268
10
76.373736000000164
20
-3.6796980000000268
10
76.373736000000164
20
-3.9098220000000161
10
77.033628000000149
20
-3.9098220000000339
0
LWPOLYLINE
5
396
100
AcDbEntity
8
0
100
AcDbPolyline
90
4
70
1
43
0.0
10
76.373736000000164
20
-3.5097720000000265
10
77.033628000000149
20
-3.5097720000000265
10
77.033628000000149
20
-3.2796480000000194
10
76.373736000000164
20
-3.2796480000000194
0
LWPOLYLINE
5
397
100
AcDbEntity
8
0
100
AcDbPolyline
90
4
70
1
43
0.0
10
76.373736000000164
20
-4.0797480000000341
10
76.373736000000164
20
-4.3098720000000235
10
77.033628000000149
20
-4.3098720000000235
10
77.033628000000149
20
-4.0797480000000164
0
LWPOLYLINE
5
398
100
AcDbEntity
8
0
100
AcDbPolyline
90
4
70
1
43
0.0
10
79.083408000000134
20
-1.5097760000000271
10
79.743300000000147
20
-1.5097760000000271
10
79.743300000000147
20
-1.27965200000002
10
79.083408000000134
20
-1.27965200000002
0
LWPOLYLINE
5
399
100
AcDbEntity
8
0
100
AcDbPolyline
90
4
70
1
43
0.0
10
79.083408000000119
20
0.3202939999999721
10
79.083408000000119
20
0.090169999999982764
10
79.743300000000119
20
0.090169999999965
10
79.743300000000119
20
0.3202939999999721
0
LWPOLYLINE
5
400
100
AcDbEntity
8
0
100
AcDbPolyline
90
4
70
1
43
0.0
10
79.083408000000134
20
-1.6797020000000273
10
79.083408000000134
20
-1.9098260000000167
10
79.743300000000147
20
-1.9098260000000344
10
79.743300000000147
20
-1.6797020000000273
0
LWPOLYLINE
5
401
100
AcDbEntity
8
0
100
AcDbPolyline
90
4
70
1
43
0.0
10
79.743300000000147
20
-2.3098760000000063
10
79.743300000000147
20
-2.0797520000000169
10
79.083408000000134
20
-2.0797520000000169
10
79.083408000000134
20
-2.3098760000000063
0
LWPOLYLINE
5
402
100
AcDbEntity
8
0
100
AcDbPolyline
90
4
70
1
43
0.0
10
79.743300000000147
20
-0.70993000000001416
10
79.743300000000119
20
-0.47980600000002482
10
79.083408000000119
20
-0.47980600000002482
10
79.083408000000134
20
-0.70993000000001416
0
LWPOLYLINE
5
403
100
AcDbEntity
8
0
100
AcDbPolyline
90
4
70
1
43
0.0
10
77.033628000000149
20
-2.0797520000000169
10
76.373736000000164
20
-2.0797520000000169
10
76.373736000000164
20
-2.3098760000000063
10
77.033628000000149
20
-2.3098760000000063
0
LWPOLYLINE
5
404
100
AcDbEntity
8
0
100
AcDbPolyline
90
4
70
1
43
0.0
10
77.033628000000135
20
-0.30988000000002458
10
77.033628000000135
20
-0.079756000000035243
10
76.37373600000015
20
-0.079756000000035243
10
76.37373600000015
20
-0.30988000000002458
0
LWPOLYLINE
5
405
100
AcDbEntity
8
0
100
AcDbPolyline
90
4
70
1
43
0.0
10
76.373736000000164
20
-1.2796520000000378
10
76.373736000000164
20
-1.5097760000000271
10
77.033628000000149
20
-1.5097760000000271
10
77.033628000000149
20
-1.27965200000002
0
LWPOLYLINE
5
406
100
AcDbEntity
8
0
100
AcDbPolyline
90
4
70
1
43
0.0
10
77.033628000000149
20
-0.87960200000003042
10
76.373736000000164
20
-0.87960200000003042
10
76.373736000000164
20
-1.1097260000000198
10
77.033628000000149
20
-1.1097260000000198
0
LWPOLYLINE
5
407
100
AcDbEntity
8
0
100
AcDbPolyline
90
4
70
1
43
0.0
10
76.373736000000164
20
-0.70993000000003192
10
77.033628000000149
20
-0.70993000000003192
10
77.033628000000135
20
-0.47980600000002482
10
76.37373600000015
20
-0.47980600000002482
0
LWPOLYLINE
5
408
100
AcDbEntity
8
0
100
AcDbPolyline
90
4
70
1
43
0.0
10
79.743300000000147
20
-0.87960200000003042
10
79.083408000000134
20
-0.87960200000003042
10
79.083408000000134
20
-1.1097260000000375
10
79.743300000000147
20
-1.1097260000000198
0
LWPOLYLINE
5
409
100
AcDbEntity
8
0
100
AcDbPolyline
90
4
70
1
43
0.0
10
79.083408000000119
20
-0.079756000000035243
10
79.083408000000119
20
-0.30988000000002458
10
79.743300000000119
20
-0.30988000000002458
10
79.743300000000119
20
-0.079756000000035243
0
LWPOLYLINE
5
410
100
AcDbEntity
8
0
100
AcDbPolyline
90
4
70
1
43
0.0
10
77.033628000000149
20
-1.9098260000000344
10
77.033628000000149
20
-1.6797020000000273
10
76.373736000000164
20
-1.6797020000000273
10
76.373736000000164
20
-1.9098260000000344
0
LWPOLYLINE
5
411
100
AcDbEntity
8
0
100
AcDbPolyline
90
4
70
1
43
0.0
10
61.379100000000136
20
-32.318959999999919
10
61.379100000000136
20
-31.659067999999913
10
61.148976000000133
20
-31.659067999999913
10
61.148976000000133
20
-32.318959999999919
0
CIRCLE
5
412
100
AcDbEntity
8
0
100
AcDbCircle
10
44.564299999999982
20
18.699987999999976
30
-2.7755575615628914e-15
40
2.4999949999999931
210
2.36658271566302e-30
220
3.5745259767827487e-31
230
1
0
CIRCLE
5
413
100
AcDbEntity
8
0
100
AcDbCircle
10
77.5639800000001
20
18.699987999999905
30
-2.7755575615628914e-15
40
2.4999949999999931
210
2.36658271566302e-30
220
3.5745259767827487e-31
230
1
0
CIRCLE
5
414
100
AcDbEntity
8
0
100
AcDbCircle
10
77.563980000000186
20
-29.300931999999928
30
-2.7755575615628914e-15
40
2.4999949999999931
210
2.36658271566302e-30
220
3.5745259767827487e-31
230
1
0
CIRCLE
5
415
100
AcDbEntity
8
0
100
AcDbCircle
10
44.56430000000006
20
-29.300931999999875
30
-3.3306690738754696e-15
40
2.4999949999999931
210
2.36658271566302e-30
220
3.5745259767827487e-31
230
1
0
LINE
5
416
100
AcDbEntity
8
0
100
AcDbLine
10
50.935128000000098
20
-31.198565999999897
30
-2.7755575615628914e-15
11
50.934874000000093
21
-31.198819999999898
31
-2.7755575615628914e-15
0
LINE
5
417
100
AcDbEntity
8
0
100
AcDbLine
10
50.934366000000097
20
-31.1990739999999
30
-2.7755575615628914e-15
11
50.933858000000107
21
-31.1990739999999
31
-2.7755575615628914e-15
0
LINE
5
418
100
AcDbEntity
8
0
100
AcDbLine
10
50.794158000000103
20
-30.234127999999885
30
-2.7755575615628914e-15
11
50.82895600000009
21
-30.234127999999885
31
-2.7755575615628914e-15
0
ARC
5
419
100
AcDbEntity
8
0
100
AcDbCircle
10
-55.372515386342172
20
-30.509006096506432
30
2.7755575615628645e-15
40
0.049834097053921042
210
-6.9236278858338865e-31
220
-3.7806784678301486e-31
230
-1
100
AcDbArc
50
61.363052346174527
51
89.991507697468208
0
LINE
5
420
100
AcDbEntity
8
0
100
AcDbLine
10
56.755538000000115
20
-30.809183999999892
30
-2.7755575615628914e-15
11
55.372508000000096
21
-30.809183999999892
31
-2.2204460492503131e-15
0
LWPOLYLINE
5
421
100
AcDbEntity
8
0
100
AcDbPolyline
90
12
70
1
43
0.0
10
50.304446000000084
20
-29.809185999999901
10
50.354230000000086
20
-29.759147999999911
10
71.774050000000187
20
-29.759147999999946
10
71.724266000000171
20
-29.709109999999939
10
50.404014000000089
20
-29.709109999999903
10
50.354230000000086
20
-29.759147999999911
10
50.354230000000086
20
-31.509207999999891
10
71.774050000000187
20
-31.509207999999926
10
71.724266000000171
20
-31.559245999999934
10
50.404014000000089
20
-31.559245999999899
10
50.354230000000086
20
-31.509207999999891
10
50.304446000000084
20
-31.459169999999901
0
LINE
5
422
100
AcDbEntity
8
0
100
AcDbLine
10
50.933858000000107
20
-31.1990739999999
30
-2.7755575615628914e-15
11
50.933604000000102
21
-31.1990739999999
31
-2.7755575615628914e-15
0
LWPOLYLINE
5
423
100
AcDbEntity
8
0
100
AcDbPolyline
90
4
70
1
43
0.0
10
71.774050000000187
20
-31.509207999999926
10
71.824088000000174
20
-31.459169999999936
10
71.824088000000174
20
-29.809185999999936
10
71.774050000000187
20
-29.759147999999946
0
LWPOLYLINE
5
424
100
AcDbEntity
8
0
100
AcDbPolyline
90
4
70
1
43
0.0
10
55.421530000000118
20
-30.6842159999999
42
-0.14601999999997961
10
55.421530000000118
20
-30.584139999999902
10
56.70677000000012
20
-30.584139999999902
42
-0.14611500000009553
10
56.706770000000105
20
-30.6842159999999
0
LINE
5
425
100
AcDbEntity
8
0
100
AcDbLine
10
50.82895600000009
20
-31.034227999999899
30
-2.7755575615628914e-15
11
50.794158000000103
21
-31.034227999999899
31
-2.7755575615628914e-15
0
LWPOLYLINE
5
426
100
AcDbEntity
8
0
100
AcDbPolyline
90
18
70
1
43
0.0
10
50.935382000000104
20
-30.070043999999907
10
50.935382000000104
20
-31.198311999999913
10
50.938176000000098
20
-31.195517999999893
10
50.942494000000096
20
-31.191199999999881
10
50.948590000000102
20
-31.185103999999892
10
50.9559560000001
20
-31.177737999999895
10
50.964846000000094
20
-31.169101999999889
10
50.9739900000001
20
-31.159703999999895
10
50.984150000000099
20
-31.149543999999896
10
50.994564000000096
20
-31.139129999999895
10
50.994564000000096
20
-30.129225999999889
10
50.984150000000099
20
-30.118811999999906
10
50.9739900000001
20
-30.108651999999907
10
50.964846000000094
20
-30.099253999999895
10
50.9559560000001
20
-30.090617999999907
10
50.948590000000102
20
-30.083251999999892
10
50.942494000000096
20
-30.077155999999903
10
50.938176000000098
20
-30.072837999999891
0
LINE
5
427
100
AcDbEntity
8
0
100
AcDbLine
10
50.934874000000093
20
-31.198819999999898
30
-2.7755575615628914e-15
11
50.934620000000095
21
-31.1990739999999
31
-2.7755575615628914e-15
0
ARC
5
428
100
AcDbEntity
8
0
100
AcDbCircle
10
-55.58921680408703
20
-30.63417799999991
30
2.7755575615628701e-15
40
0.30012731212891736
210
-1.9728138883186744e-31
220
3.4154858448996315e-31
230
-1
100
AcDbArc
50
-30.011098337622833
51
30.011098337625768
0
LINE
5
429
100
AcDbEntity
8
0
100
AcDbLine
10
56.755538000000115
20
-30.45917199999991
30
-3.3306690738754696e-15
11
55.372508000000096
21
-30.45917199999991
31
-2.7755575615628914e-15
0
ARC
5
430
100
AcDbEntity
8
0
100
AcDbCircle
10
-56.755733339166383
20
-30.509204074133507
30
2.7755575615628724e-15
40
0.050032455461426241
210
-7.8558248905881225e-31
220
-8.4123823306633209e-31
230
-1
100
AcDbArc
50
89.776302439454611
51
118.57982638992621
0
LINE
5
431
100
AcDbEntity
8
0
100
AcDbLine
10
50.934620000000095
20
-31.1990739999999
30
-2.7755575615628914e-15
11
50.934366000000097
21
-31.1990739999999
31
-2.7755575615628914e-15
0
LWPOLYLINE
5
432
100
AcDbEntity
8
0
100
AcDbPolyline
90
4
70
1
43
0.0
10
66.706750000000156
20
-30.584139999999937
10
65.42151000000014
20
-30.584139999999934
42
0.14602599999998847
10
65.421510000000154
20
-30.684215999999935
10
66.706750000000156
20
-30.684215999999935
42
0.14610900000004823
0
ARC
5
433
100
AcDbEntity
8
0
100
AcDbCircle
10
-66.539169528132959
20
-30.634177999999945
30
2.7755575615628578e-15
40
0.30003524073919841
210
-6.8302721844543859e-31
220
-3.9468385658498741e-31
230
-1
100
AcDbArc
50
149.97874546983604
51
210.021254530161
0
ARC
5
434
100
AcDbEntity
8
0
100
AcDbCircle
10
-56.539196241492235
20
-30.63417799999991
30
2.7755575615628914e-15
40
0.30002942806389266
210
0
220
0
230
-1
100
AcDbArc
50
149.97810404229998
51
210.02189595769707
0
LWPOLYLINE
5
435
100
AcDbEntity
8
0
100
AcDbPolyline
90
18
70
1
43
0.0
10
71.190104000000161
20
-30.072837999999926
10
71.19289800000017
20
-30.070043999999942
10
71.19289800000017
20
-31.198311999999948
10
71.190104000000161
20
-31.195517999999929
10
71.185786000000178
20
-31.191199999999917
10
71.179944000000162
20
-31.185103999999928
10
71.172324000000174
20
-31.17773799999993
10
71.163688000000164
20
-31.169101999999924
10
71.154544000000172
20
-31.15970399999993
10
71.14413000000016
20
-31.149543999999931
10
71.133716000000163
20
-31.13912999999993
10
71.133716000000163
20
-30.129225999999925
10
71.14413000000016
20
-30.118811999999942
10
71.154544000000172
20
-30.108651999999942
10
71.163688000000164
20
-30.099253999999931
10
71.172324000000174
20
-30.090617999999942
10
71.179944000000162
20
-30.083251999999927
10
71.185786000000178
20
-30.077155999999938
0
ARC
5
436
100
AcDbEntity
8
0
100
AcDbCircle
10
-65.372553065759078
20
-30.509229426962463
30
3.3306690738754357e-15
40
0.050057783513208762
210
-6.9278838643178933e-31
220
-3.772873963059847e-31
230
-1
100
AcDbArc
50
61.427617881719904
51
90.2162532888957
0
ARC
5
437
100
AcDbEntity
8
0
100
AcDbCircle
10
-66.755779421015461
20
-30.75940789897647
30
2.7755575615628799e-15
40
0.049776101576649259
210
-5.0311351890131602e-31
220
-7.2439885203621035e-31
230
-1
100
AcDbArc
50
241.34601793518502
51
270.00854210846501
0
LINE
5
438
100
AcDbEntity
8
0
100
AcDbLine
10
65.37274200000013
20
-30.809183999999927
30
-3.3306690738754696e-15
11
66.75577200000015
21
-30.809183999999927
31
-3.3306690738754696e-15
0
LINE
5
439
100
AcDbEntity
8
0
100
AcDbLine
10
50.994564000000096
20
-31.139129999999895
30
-2.7755575615628914e-15
11
71.133716000000163
21
-31.13912999999993
31
-2.7755575615628914e-15
0
ARC
5
440
100
AcDbEntity
8
0
100
AcDbCircle
10
-55.372507144812815
20
-30.759382182816672
30
2.7755575615628799e-15
40
0.049801817190561697
210
-7.8884291409933398e-31
220
-1.0477194357609363e-30
230
-1
100
AcDbArc
50
269.99901612783106
51
298.6464238285327
0
ARC
5
441
100
AcDbEntity
8
0
100
AcDbCircle
10
-65.589190086287715
20
-30.634177999999945
30
3.3306690738753339e-15
40
0.30012149501356589
210
-1.9580411411119353e-30
220
2.3549827680099769e-31
230
-1
100
AcDbArc
50
-30.011739795640892
51
30.011739795643809
0
ARC
5
442
100
AcDbEntity
8
0
100
AcDbCircle
10
-66.755771090058744
20
-30.508980730603845
30
3.33066907387536e-15
40
0.049808730612211256
210
-1.5777193332067481e-30
220
1.3561429100897096e-31
230
-1
100
AcDbArc
50
90.001046720153639
51
118.64439323621536
0
ARC
5
443
100
AcDbEntity
8
0
100
AcDbCircle
10
-56.755741578236574
20
-30.759184538852455
30
2.7755575615628637e-15
40
0.049999875591168905
210
-6.9267620556295915e-31
220
-3.7749331389179984e-31
230
-1
100
AcDbArc
50
241.41058647061914
51
270.2332847000057
0
LINE
5
444
100
AcDbEntity
8
0
100
AcDbLine
10
50.994564000000096
20
-30.129225999999889
30
-2.7755575615628914e-15
11
71.133716000000163
21
-30.129225999999925
31
-2.7755575615628914e-15
0
ARC
5
445
100
AcDbEntity
8
0
100
AcDbCircle
10
-65.372544818212589
20
-30.759159219575523
30
2.7755575615627754e-15
40
0.050025169036868114
210
-1.579361430802749e-30
220
4.1286027062758632e-31
230
-1
100
AcDbArc
50
269.77415941424442
51
298.58196941509971
0
LINE
5
446
100
AcDbEntity
8
0
100
AcDbLine
10
65.37274200000013
20
-30.459171999999946
30
-2.7755575615628914e-15
11
66.75577200000015
21
-30.459171999999946
31
-2.7755575615628914e-15
0
LINE
5
447
100
AcDbEntity
8
0
100
AcDbLine
10
71.774050000000187
20
-30.634177999999928
30
-2.7755575615628914e-15
11
50.304446000000084
21
-30.634177999999892
31
-2.7755575615628914e-15
0
LINE
5
448
100
AcDbEntity
8
0
100
AcDbLine
10
71.299324000000169
20
-30.23412799999992
30
-3.3306690738754696e-15
11
71.299324000000169
21
-30.069281999999937
31
-2.7755575615628914e-15
0
LINE
5
449
100
AcDbEntity
8
0
100
AcDbLine
10
71.19289800000017
20
-30.070043999999942
30
-2.7755575615628914e-15
11
71.193152000000168
21
-30.069789999999923
31
-2.7755575615628914e-15
0
LWPOLYLINE
5
450
100
AcDbEntity
8
0
100
AcDbPolyline
90
12
70
1
43
0.0
10
71.43419800000018
20
-30.23412799999992
10
71.43419800000018
20
-29.919167999999932
10
50.694082000000108
20
-29.919167999999896
10
50.694082000000108
20
-30.234127999999885
10
50.794158000000103
20
-30.234127999999885
10
50.794158000000103
20
-31.034227999999899
10
50.694082000000108
20
-31.034227999999899
10
50.694082000000108
20
-31.349187999999888
10
71.43419800000018
20
-31.349187999999923
10
71.43419800000018
20
-31.034227999999935
10
71.334122000000178
20
-31.034227999999935
10
71.334122000000178
20
-30.23412799999992
0
LINE
5
451
100
AcDbEntity
8
0
100
AcDbLine
10
50.694082000000108
20
-31.1990739999999
30
-2.7755575615628914e-15
11
71.43419800000018
21
-31.199073999999936
31
-2.7755575615628914e-15
0
LINE
5
452
100
AcDbEntity
8
0
100
AcDbLine
10
71.193152000000168
20
-30.069789999999923
30
-2.7755575615628914e-15
11
71.193406000000167
21
-30.069535999999939
31
-2.7755575615628914e-15
0
LINE
5
453
100
AcDbEntity
8
0
100
AcDbLine
10
71.193406000000167
20
-30.069535999999939
30
-2.7755575615628914e-15
11
71.193660000000165
21
-30.069281999999937
31
-2.7755575615628914e-15
0
LINE
5
454
100
AcDbEntity
8
0
100
AcDbLine
10
50.694082000000108
20
-30.069281999999902
30
-2.7755575615628914e-15
11
71.43419800000018
21
-30.069281999999937
31
-3.3306690738754696e-15
0
LINE
5
455
100
AcDbEntity
8
0
100
AcDbLine
10
61.064140000000137
20
-31.559245999999916
30
-2.7755575615628914e-15
11
61.064140000000137
21
-29.709109999999921
31
-2.7755575615628914e-15
0
LWPOLYLINE
5
456
100
AcDbEntity
8
0
100
AcDbPolyline
90
12
70
1
43
0.0
10
43.343576000000013
20
-13.164819999999953
10
43.343575999999999
20
7.5752960000000336
10
43.658535999999984
20
7.5752960000000336
10
43.658535999999984
20
7.475220000000018
10
44.458381999999986
20
7.475220000000018
10
44.458381999999986
20
7.5752960000000158
10
44.773595999999998
20
7.5752960000000158
10
44.773596000000033
20
-13.164819999999953
10
44.458382000000029
20
-13.164819999999953
10
44.458382000000029
20
-13.064743999999955
10
43.658536000000019
20
-13.064743999999955
10
43.658536000000019
20
-13.164819999999953
0
LINE
5
457
100
AcDbEntity
8
0
100
AcDbLine
10
43.493689999999987
20
7.3347580000000079
30
-2.7755575615628914e-15
11
43.493689999999987
21
7.3350120000000096
31
-2.7755575615628914e-15
0
LINE
5
458
100
AcDbEntity
8
0
100
AcDbLine
10
44.623481999999996
20
7.3357740000000149
30
-2.7755575615628914e-15
11
44.623481999999996
21
7.3355200000000131
31
-2.7755575615628914e-15
0
LINE
5
459
100
AcDbEntity
8
0
100
AcDbLine
10
43.493690000000022
20
-12.92504399999995
30
-2.7755575615628914e-15
11
43.493690000000022
21
-12.924535999999964
31
-2.7755575615628914e-15
0
LINE
5
460
100
AcDbEntity
8
0
100
AcDbLine
10
43.493690000000022
20
-13.164819999999953
30
-3.3306690738754696e-15
11
43.493689999999987
21
7.5752960000000336
31
-2.7755575615628914e-15
0
LINE
5
461
100
AcDbEntity
8
0
100
AcDbLine
10
43.658535999999984
20
7.4404220000000088
30
-3.3306690738754696e-15
11
43.658535999999984
21
7.475220000000018
31
-2.7755575615628914e-15
0
LINE
5
462
100
AcDbEntity
8
0
100
AcDbLine
10
71.193914000000177
20
-31.199073999999936
30
-3.3306690738754696e-15
11
71.193660000000165
21
-31.199073999999936
31
-3.3306690738754696e-15
0
LINE
5
463
100
AcDbEntity
8
0
100
AcDbLine
10
50.933604000000102
20
-30.069281999999902
30
-3.3306690738754696e-15
11
50.933858000000107
21
-30.069281999999902
31
-3.3306690738754696e-15
0
LINE
5
464
100
AcDbEntity
8
0
100
AcDbLine
10
71.299324000000169
20
-30.23412799999992
30
-3.3306690738754696e-15
11
71.334122000000178
21
-30.23412799999992
31
-2.7755575615628914e-15
0
LINE
5
465
100
AcDbEntity
8
0
100
AcDbLine
10
71.194676000000158
20
-31.199073999999936
30
-3.3306690738754696e-15
11
71.194422000000174
21
-31.199073999999936
31
-3.3306690738754696e-15
0
LINE
5
466
100
AcDbEntity
8
0
100
AcDbLine
10
50.935128000000098
20
-30.069789999999887
30
-3.3306690738754696e-15
11
50.935382000000104
21
-30.070043999999907
31
-3.3306690738754696e-15
0
LINE
5
467
100
AcDbEntity
8
0
100
AcDbLine
10
71.299324000000169
20
-31.034227999999935
30
-2.7755575615628914e-15
11
71.334122000000178
21
-31.034227999999935
31
-2.2204460492503131e-15
0
LINE
5
468
100
AcDbEntity
8
0
100
AcDbLine
10
71.193660000000165
20
-31.199073999999936
30
-3.3306690738754696e-15
11
71.193406000000167
21
-31.198819999999934
31
-3.3306690738754696e-15
0
LINE
5
469
100
AcDbEntity
8
0
100
AcDbLine
10
71.193406000000167
20
-31.198819999999934
30
-3.3306690738754696e-15
11
71.193152000000168
21
-31.198565999999932
31
-3.3306690738754696e-15
0
LINE
5
470
100
AcDbEntity
8
0
100
AcDbLine
10
71.193660000000165
20
-30.069281999999937
30
-2.7755575615628914e-15
11
71.193914000000177
21
-30.069281999999937
31
-2.7755575615628914e-15
0
LINE
5
471
100
AcDbEntity
8
0
100
AcDbLine
10
43.494198000000026
20
-12.923773999999959
30
-2.7755575615628914e-15
11
43.494452000000024
21
-12.923519999999957
31
-2.7755575615628914e-15
0
LINE
5
472
100
AcDbEntity
8
0
100
AcDbLine
10
50.82895600000009
20
-31.1990739999999
30
-2.7755575615628914e-15
11
50.82895600000009
21
-31.034227999999899
31
-2.7755575615628914e-15
0
LINE
5
473
100
AcDbEntity
8
0
100
AcDbLine
10
44.623482000000024
20
-12.924535999999947
30
-2.7755575615628914e-15
11
44.623482000000024
21
-12.92504399999995
31
-2.7755575615628914e-15
0
LINE
5
474
100
AcDbEntity
8
0
100
AcDbLine
10
50.934874000000093
20
-30.069535999999903
30
-3.3306690738754696e-15
11
50.935128000000098
21
-30.069789999999887
31
-3.3306690738754696e-15
0
LINE
5
475
100
AcDbEntity
8
0
100
AcDbLine
10
50.82895600000009
20
-30.234127999999885
30
-2.7755575615628914e-15
11
50.82895600000009
21
-30.069281999999902
31
-2.7755575615628914e-15
0
LINE
5
476
100
AcDbEntity
8
0
100
AcDbLine
10
43.658536000000019
20
-13.064743999999955
30
-3.3306690738754696e-15
11
43.658536000000019
21
-13.029945999999946
31
-3.3306690738754696e-15
0
LWPOLYLINE
5
477
100
AcDbEntity
8
0
100
AcDbPolyline
90
8
70
1
43
0.0
10
43.183556000000031
20
-13.504671999999971
10
43.183555999999996
20
7.9151480000000163
10
44.933616000000001
20
7.9151480000000163
10
44.883577999999993
20
7.9651860000000063
10
43.233593999999982
20
7.9651860000000241
10
43.183555999999996
20
7.9151480000000163
10
43.133517999999988
20
7.865364000000028
10
43.133518000000024
20
-13.454887999999947
0
LINE
5
478
100
AcDbEntity
8
0
100
AcDbLine
10
71.193152000000168
20
-31.198565999999932
30
-3.3306690738754696e-15
11
71.19289800000017
21
-31.198311999999948
31
-3.3306690738754696e-15
0
LINE
5
479
100
AcDbEntity
8
0
100
AcDbLine
10
71.299324000000169
20
-31.034227999999935
30
-2.7755575615628914e-15
11
71.299324000000169
21
-31.199073999999936
31
-3.3306690738754696e-15
0
LINE
5
480
100
AcDbEntity
8
0
100
AcDbLine
10
50.934366000000097
20
-30.069281999999902
30
-3.3306690738754696e-15
11
50.934620000000095
21
-30.069281999999902
31
-3.3306690738754696e-15
0
LINE
5
481
100
AcDbEntity
8
0
100
AcDbLine
10
43.493943999999985
20
7.3345040000000061
30
-2.7755575615628914e-15
11
43.493689999999987
21
7.3347580000000079
31
-2.7755575615628914e-15
0
LINE
5
482
100
AcDbEntity
8
0
100
AcDbLine
10
71.193914000000177
20
-30.069281999999937
30
-2.7755575615628914e-15
11
71.194422000000174
21
-30.069281999999937
31
-2.7755575615628914e-15
0
LINE
5
483
100
AcDbEntity
8
0
100
AcDbLine
10
71.194422000000174
20
-31.199073999999936
30
-3.3306690738754696e-15
11
71.193914000000177
21
-31.199073999999936
31
-3.3306690738754696e-15
0
LINE
5
484
100
AcDbEntity
8
0
100
AcDbLine
10
71.194422000000174
20
-30.069281999999937
30
-2.7755575615628914e-15
11
71.194676000000158
21
-30.069281999999937
31
-2.7755575615628914e-15
0
LINE
5
485
100
AcDbEntity
8
0
100
AcDbLine
10
50.934620000000095
20
-30.069281999999902
30
-3.3306690738754696e-15
11
50.934874000000093
21
-30.069535999999903
31
-3.3306690738754696e-15
0
LINE
5
486
100
AcDbEntity
8
0
100
AcDbLine
10
50.935382000000104
20
-31.198311999999913
30
-2.7755575615628914e-15
11
50.935128000000098
21
-31.198565999999897
31
-2.7755575615628914e-15
0
LINE
5
487
100
AcDbEntity
8
0
100
AcDbLine
10
50.933858000000107
20
-30.069281999999902
30
-3.3306690738754696e-15
11
50.934366000000097
21
-30.069281999999902
31
-3.3306690738754696e-15
0
LINE
5
488
100
AcDbEntity
8
0
100
AcDbLine
10
43.883580000000002
20
1.5138400000000196
30
-2.7755575615628914e-15
11
43.883580000000002
21
2.8968700000000247
31
-2.7755575615628914e-15
0
LINE
5
489
100
AcDbEntity
8
0
100
AcDbLine
10
44.458382000000029
20
-13.029945999999946
30
-3.3306690738754696e-15
11
44.458382000000029
21
-13.064743999999955
31
-2.7755575615628914e-15
0
LINE
5
490
100
AcDbEntity
8
0
100
AcDbLine
10
44.62322799999999
20
7.3345040000000061
30
-2.7755575615628914e-15
11
44.622973999999985
21
7.3342500000000044
31
-2.7755575615628914e-15
0
LWPOLYLINE
5
491
100
AcDbEntity
8
0
100
AcDbPolyline
90
18
70
1
43
0.0
10
43.501563999999988
20
7.3268840000000068
10
43.49724599999999
20
7.3312020000000189
10
43.494451999999988
20
7.3339960000000204
10
44.622719999999987
20
7.3339960000000204
10
44.619926000000007
20
7.3312020000000189
10
44.615607999999995
20
7.3268840000000068
10
44.609512000000002
20
7.3207880000000003
10
44.602146000000005
20
7.3134220000000028
10
44.593509999999995
20
7.3047860000000142
10
44.584112000000005
20
7.2953880000000026
10
44.573952000000006
20
7.2852280000000036
10
44.563537999999987
20
7.2748140000000205
10
43.55337999999999
20
7.2748140000000205
10
43.543219999999991
20
7.2852280000000036
10
43.533059999999992
20
7.2953880000000026
10
43.52366199999998
20
7.3047860000000142
10
43.515025999999992
20
7.3134220000000205
10
43.507659999999994
20
7.3207880000000003
0
ARC
5
492
100
AcDbEntity
8
0
100
AcDbCircle
10
-44.183734050993777
20
2.8968565236580091
30
2.7755575615628353e-15
40
0.049857950827527087
210
-1.195826211442847e-30
220
-1.1021711142636746e-30
230
-1
100
AcDbArc
50
151.37004679180285
51
179.98451325182469
0
LINE
5
493
100
AcDbEntity
8
0
100
AcDbLine
10
44.622720000000044
20
-12.92351999999994
30
-2.7755575615628914e-15
11
44.622974000000028
21
-12.923773999999959
31
-2.7755575615628914e-15
0
LWPOLYLINE
5
494
100
AcDbEntity
8
0
100
AcDbPolyline
90
4
70
1
43
0.0
10
44.933616000000036
20
-13.504671999999971
10
44.933616000000001
20
7.9151480000000163
10
44.983653999999987
20
7.865364000000028
10
44.98365400000003
20
-13.454887999999947
0
LINE
5
495
100
AcDbEntity
8
0
100
AcDbLine
10
44.623481999999996
20
7.3355200000000131
30
-2.7755575615628914e-15
11
44.623481999999996
21
7.3350120000000274
31
-2.7755575615628914e-15
0
LINE
5
496
100
AcDbEntity
8
0
100
AcDbLine
10
43.493689999999987
20
7.3350120000000096
30
-2.7755575615628914e-15
11
43.493689999999987
21
7.3355200000000131
31
-2.7755575615628914e-15
0
LWPOLYLINE
5
497
100
AcDbEntity
8
0
100
AcDbPolyline
90
4
70
1
43
0.0
10
44.883578000000036
20
-13.554709999999961
10
43.233594000000025
20
-13.554709999999961
10
43.183556000000031
20
-13.504671999999971
10
44.933616000000036
20
-13.504671999999971
0
LINE
5
498
100
AcDbEntity
8
0
100
AcDbLine
10
44.623228000000026
20
-12.924027999999943
30
-2.7755575615628914e-15
11
44.623482000000024
21
-12.924281999999963
31
-2.7755575615628914e-15
0
ARC
5
499
100
AcDbEntity
8
0
100
AcDbCircle
10
-43.9333323280066
20
-8.4864074907216747
30
2.7755575615628093e-15
40
0.049752329835641644
210
-2.076612525101899e-30
220
-1.1350745220754977e-30
230
-1
100
AcDbArc
50
-28.660976141932778
51
0.015536185501252962
0
LINE
5
500
100
AcDbEntity
8
0
100
AcDbLine
10
43.493690000000022
20
-12.925297999999952
30
-2.7755575615628914e-15
11
43.493690000000022
21
-12.92504399999995
31
-2.7755575615628914e-15
0
LINE
5
501
100
AcDbEntity
8
0
100
AcDbLine
10
43.493690000000022
20
-12.924535999999964
30
-2.7755575615628914e-15
11
43.493690000000022
21
-12.924281999999945
31
-2.7755575615628914e-15
0
LINE
5
502
100
AcDbEntity
8
0
100
AcDbLine
10
43.493690000000022
20
-12.924281999999945
30
-2.7755575615628914e-15
11
43.49394400000002
21
-12.924027999999943
31
-2.7755575615628914e-15
0
LINE
5
503
100
AcDbEntity
8
0
100
AcDbLine
10
43.494451999999988
20
7.3339960000000204
30
-2.7755575615628914e-15
11
43.49419799999999
21
7.3342500000000221
31
-2.7755575615628914e-15
0
LINE
5
504
100
AcDbEntity
8
0
100
AcDbLine
10
44.623482000000024
20
-12.924281999999963
30
-2.7755575615628914e-15
11
44.623482000000024
21
-12.924535999999947
31
-2.7755575615628914e-15
0
ARC
5
505
100
AcDbEntity
8
0
100
AcDbCircle
10
-44.058586000000012
20
-8.2697512420903507
30
3.3306690738754199e-15
40
0.3000701226776149
210
-1.0776917043333111e-30
220
2.8841575196819174e-31
230
-1
100
AcDbArc
50
239.98259407547638
51
300.01740592452006
0
LINE
5
506
100
AcDbEntity
8
0
100
AcDbLine
10
44.623481999999996
20
7.3350120000000274
30
-2.7755575615628914e-15
11
44.623481999999996
21
7.3347580000000079
31
-2.7755575615628914e-15
0
LINE
5
507
100
AcDbEntity
8
0
100
AcDbLine
10
43.883580000000009
20
-7.1033639999999565
30
-2.7755575615628914e-15
11
43.883580000000009
21
-8.4863939999999616
31
-3.3306690738754696e-15
0
LINE
5
508
100
AcDbEntity
8
0
100
AcDbLine
10
44.623482000000024
20
-13.029945999999946
30
-2.7755575615628914e-15
11
44.458382000000029
21
-13.029945999999946
31
-3.3306690738754696e-15
0
LWPOLYLINE
5
509
100
AcDbEntity
8
0
100
AcDbPolyline
90
4
70
1
43
0.0
10
44.008548000000019
20
-8.4373719999999608
10
44.008548000000012
20
-7.1521319999999466
42
-0.14606000000007541
10
44.10862400000002
20
-7.1521319999999555
10
44.108624000000006
20
-8.4373719999999608
42
-0.14607499999999801
0
LINE
5
510
100
AcDbEntity
8
0
100
AcDbLine
10
43.49394400000002
20
-12.924027999999943
30
-2.7755575615628914e-15
11
43.494198000000026
21
-12.923773999999959
31
-2.7755575615628914e-15
0
LWPOLYLINE
5
511
100
AcDbEntity
8
0
100
AcDbPolyline
90
18
70
1
43
0.0
10
43.494452000000024
20
-12.923519999999957
10
44.622720000000044
20
-12.92351999999994
10
44.619926000000035
20
-12.920725999999938
10
44.615608000000023
20
-12.916407999999944
10
44.609512000000038
20
-12.910311999999955
10
44.602146000000019
20
-12.902945999999957
10
44.593510000000038
20
-12.894309999999951
10
44.58411200000004
20
-12.884911999999957
10
44.57395200000002
20
-12.874751999999958
10
44.563538000000037
20
-12.86433799999994
10
43.553380000000026
20
-12.86433799999994
10
43.543220000000026
20
-12.87475199999994
10
43.533060000000027
20
-12.884911999999957
10
43.52366200000003
20
-12.894309999999951
10
43.515026000000027
20
-12.902945999999957
10
43.50766000000003
20
-12.910311999999955
10
43.501564000000023
20
-12.916407999999961
10
43.497246000000025
20
-12.920725999999938
0
LINE
5
512
100
AcDbEntity
8
0
100
AcDbLine
10
44.623481999999996
20
7.3347580000000079
30
-2.7755575615628914e-15
11
44.62322799999999
21
7.3345040000000061
31
-2.7755575615628914e-15
0
LINE
5
513
100
AcDbEntity
8
0
100
AcDbLine
10
43.493689999999987
20
7.3355200000000131
30
-2.7755575615628914e-15
11
43.493689999999987
21
7.3357740000000149
31
-2.7755575615628914e-15
0
LINE
5
514
100
AcDbEntity
8
0
100
AcDbLine
10
43.49419799999999
20
7.3342500000000221
30
-2.7755575615628914e-15
11
43.493943999999985
21
7.3345040000000061
31
-2.7755575615628914e-15
0
LWPOLYLINE
5
515
100
AcDbEntity
8
0
100
AcDbPolyline
90
4
70
1
43
0.0
10
44.00854799999999
20
2.8478480000000239
10
44.008548000000005
20
1.5626080000000191
42
0.14608000000005286
10
44.108624000000006
20
1.5626080000000186
10
44.108623999999999
20
2.8478480000000235
42
0.14605500000000723
0
LINE
5
516
100
AcDbEntity
8
0
100
AcDbLine
10
44.563538000000037
20
-12.86433799999994
30
-2.7755575615628914e-15
11
44.563537999999987
21
7.2748140000000205
31
-2.7755575615628914e-15
0
LINE
5
517
100
AcDbEntity
8
0
100
AcDbLine
10
44.622973999999985
20
7.3342500000000044
30
-2.7755575615628914e-15
11
44.622719999999987
21
7.3339960000000204
31
-2.7755575615628914e-15
0
LINE
5
518
100
AcDbEntity
8
0
100
AcDbLine
10
44.623482000000024
20
-13.164819999999953
30
-2.7755575615628914e-15
11
44.623481999999996
21
7.5752960000000336
31
-3.3306690738754696e-15
0
LINE
5
519
100
AcDbEntity
8
0
100
AcDbLine
10
44.622974000000028
20
-12.923773999999959
30
-2.7755575615628914e-15
11
44.623228000000026
21
-12.924027999999943
31
-2.7755575615628914e-15
0
ARC
5
520
100
AcDbEntity
8
0
100
AcDbCircle
10
-44.183516502842195
20
1.513655630860935
30
2.7755575615627864e-15
40
0.050075836563973034
210
-2.3650236985548239e-30
220
-4.2779279607612825e-31
230
-1
100
AcDbArc
50
179.78904800932017
51
208.56708082009189
0
LINE
5
521
100
AcDbEntity
8
0
100
AcDbLine
10
44.458381999999986
20
7.4404220000000088
30
-2.7755575615628914e-15
11
44.458381999999986
21
7.475220000000018
31
-2.7755575615628914e-15
0
LINE
5
522
100
AcDbEntity
8
0
100
AcDbLine
10
43.658535999999984
20
7.4404220000000088
30
-3.3306690738754696e-15
11
43.493689999999987
21
7.4404220000000088
31
-2.7755575615628914e-15
0
LINE
5
523
100
AcDbEntity
8
0
100
AcDbLine
10
44.623482000000024
20
-12.92504399999995
30
-2.7755575615628914e-15
11
44.623482000000024
21
-12.925297999999952
31
-2.7755575615628914e-15
0
LINE
5
524
100
AcDbEntity
8
0
100
AcDbLine
10
44.458381999999986
20
7.4404220000000088
30
-2.7755575615628914e-15
11
44.623481999999996
21
7.4404220000000088
31
-2.7755575615628914e-15
0
LINE
5
525
100
AcDbEntity
8
0
100
AcDbLine
10
43.658536000000019
20
-13.029945999999946
30
-3.3306690738754696e-15
11
43.493690000000022
21
-13.029945999999946
31
-2.7755575615628914e-15
0
ARC
5
526
100
AcDbEntity
8
0
100
AcDbCircle
10
-43.93356106346446
20
-7.1031557739278206
30
2.7755575615628204e-15
40
0.049981497207802372
210
-1.5786324313139788e-30
220
2.1529231556693179e-31
230
-1
100
AcDbArc
50
-0.23869852436891795
51
28.594827353800149
0
LINE
5
527
100
AcDbEntity
8
0
100
AcDbLine
10
44.058585999999991
20
7.9151480000000163
30
-2.7755575615628914e-15
11
44.058586000000034
21
-13.554709999999961
31
-2.7755575615628914e-15
0
LINE
5
528
100
AcDbEntity
8
0
100
AcDbLine
10
44.983654000000016
20
-2.7947619999999773
30
-2.7755575615628914e-15
11
43.133518000000009
21
-2.7947619999999773
31
-2.7755575615628914e-15
0
ARC
5
529
100
AcDbEntity
8
0
100
AcDbCircle
10
-44.183510732970248
20
-7.1031810885127378
30
2.7755575615628247e-15
40
0.050081601051875979
210
-1.5742702796206658e-30
220
-4.0798845546661761e-31
230
-1
100
AcDbArc
50
151.43461109660987
51
180.20926007398182
0
ARC
5
530
100
AcDbEntity
8
0
100
AcDbCircle
10
-44.058586000000012
20
-7.3197706660571527
30
3.3306690738754475e-15
40
0.30008562900120783
210
-3.9461758405587796e-31
220
6.8306550940595287e-31
230
-1
100
AcDbArc
50
59.984304589118501
51
120.01569541088503
0
LWPOLYLINE
5
531
100
AcDbEntity
8
0
100
AcDbPolyline
90
8
70
1
43
0.0
10
77.183742000000137
20
7.9151479999999452
10
77.133450000000124
20
7.8653639999999569
10
77.133450000000167
20
-13.454888
10
77.183742000000152
20
-13.504672000000024
10
77.23352600000014
20
-13.554456000000012
10
78.883510000000157
20
-13.554456000000012
10
78.933548000000172
20
-13.504672000000024
10
78.933548000000116
20
7.9151479999999452
0
ARC
5
532
100
AcDbEntity
8
0
100
AcDbCircle
10
-43.93333807742691
20
2.8968820227846415
30
2.7755575615628582e-15
40
0.04975807887940948
210
-7.8898596891548297e-31
220
5.1749934560048406e-31
230
-1
100
AcDbArc
50
-0.013844079975411925
51
28.659284036366682
0
LWPOLYLINE
5
533
100
AcDbEntity
8
0
100
AcDbPolyline
90
8
70
1
43
0.0
10
77.183742000000152
20
-13.504672000000024
10
78.933548000000172
20
-13.504672000000024
10
78.983840000000157
20
-13.454888
10
78.9838400000001
20
7.8653639999999569
10
78.933548000000116
20
7.9151479999999452
10
78.883510000000129
20
7.965185999999953
10
77.233526000000126
20
7.965185999999953
10
77.183742000000137
20
7.9151479999999452
0
LINE
5
534
100
AcDbEntity
8
0
100
AcDbLine
10
43.553380000000026
20
-12.86433799999994
30
-3.3306690738754696e-15
11
43.55337999999999
21
7.2748140000000205
31
-2.7755575615628914e-15
0
LINE
5
535
100
AcDbEntity
8
0
100
AcDbLine
10
77.658722000000111
20
7.4404219999999555
30
-2.7755575615628914e-15
11
77.658722000000111
21
7.4752199999999647
31
-2.7755575615628914e-15
0
LINE
5
536
100
AcDbEntity
8
0
100
AcDbLine
10
44.233592000000016
20
-7.1033639999999565
30
-2.7755575615628914e-15
11
44.233592000000016
21
-8.4863939999999438
31
-2.7755575615628914e-15
0
LINE
5
537
100
AcDbEntity
8
0
100
AcDbLine
10
44.233592000000009
20
1.5138400000000196
30
-2.7755575615628914e-15
11
44.233592000000009
21
2.8968700000000069
31
-2.7755575615628914e-15
0
ARC
5
538
100
AcDbEntity
8
0
100
AcDbCircle
10
-44.058586000000005
20
1.730223162022444
30
3.3306690738754002e-15
40
0.30006527736043515
210
-1.5634222671142709e-30
220
-4.4776367403155822e-31
230
-1
100
AcDbArc
50
239.98205954277432
51
300.01794045722568
0
ARC
5
539
100
AcDbEntity
8
0
100
AcDbCircle
10
-44.058586000000005
20
2.6802026178732596
30
2.7755575615628133e-15
40
0.30009144438675817
210
-1.7607497913636393e-30
220
-1.0614994650701217e-31
230
-1
100
AcDbArc
50
59.984946035267313
51
120.01505396473034
0
ARC
5
540
100
AcDbEntity
8
0
100
AcDbCircle
10
-43.933555317006793
20
1.5136303221911973
30
2.7755575615628062e-15
40
0.049975756869844526
210
-1.8890985471377383e-30
220
-1.4790523355255672e-30
230
-1
100
AcDbArc
50
-28.5965191606685
51
0.24039033126819068
0
ARC
5
541
100
AcDbEntity
8
0
100
AcDbCircle
10
-44.183739823887116
20
-8.4863819975881505
30
3.3306690738754081e-15
40
0.049852177557766303
210
-1.5779473020491565e-30
220
-9.3639244544815789e-31
230
-1
100
AcDbArc
50
180.01379453375941
51
208.63164542261944
0
LWPOLYLINE
5
542
100
AcDbEntity
8
0
100
AcDbPolyline
90
12
70
1
43
0.0
10
77.658722000000168
20
-13.064744000000008
10
78.458568000000156
20
-13.064744000000008
10
78.458568000000156
20
-13.164820000000006
10
78.773528000000169
20
-13.164820000000006
10
78.773528000000113
20
7.5755499999999287
10
78.458568000000128
20
7.5755499999999643
10
78.458568000000128
20
7.4752199999999647
10
77.658722000000111
20
7.4752199999999647
10
77.658722000000111
20
7.5755499999999287
10
77.343508000000128
20
7.5755499999999287
10
77.343508000000142
20
-13.164820000000006
10
77.658722000000168
20
-13.164820000000006
0
LINE
5
543
100
AcDbEntity
8
0
100
AcDbLine
10
78.623414000000139
20
-13.164820000000006
30
-2.7755575615628914e-15
11
78.623414000000125
21
7.5755499999999643
31
-2.7755575615628914e-15
0
LINE
5
544
100
AcDbEntity
8
0
100
AcDbLine
10
78.623414000000125
20
7.3357739999999438
30
-3.3306690738754696e-15
11
78.623414000000125
21
7.3355199999999599
31
-3.3306690738754696e-15
0
LINE
5
545
100
AcDbEntity
8
0
100
AcDbLine
10
77.493622000000158
20
-12.924281999999998
30
-2.7755575615628914e-15
11
77.494130000000169
21
-12.924027999999996
31
-2.7755575615628914e-15
0
LWPOLYLINE
5
546
100
AcDbEntity
8
0
100
AcDbPolyline
90
36
70
1
43
0.0
10
78.61985800000015
20
-12.920725999999991
10
78.622652000000159
20
-12.923519999999993
10
77.494638000000151
20
-12.923520000000011
10
77.497432000000146
20
-12.920726000000009
10
77.501496000000159
20
-12.916153999999995
10
77.507592000000159
20
-12.910312000000008
10
77.514958000000149
20
-12.902946000000011
10
77.523594000000159
20
-12.894056000000003
10
77.532992000000164
20
-12.884912000000011
10
77.543152000000163
20
-12.874752000000012
10
77.553566000000146
20
-12.864337999999993
10
77.553566000000131
20
7.2748139999999495
10
77.543152000000106
20
7.2852279999999681
10
77.532992000000121
20
7.2956419999999511
10
77.523594000000145
20
7.3047859999999432
10
77.514958000000121
20
7.3134219999999672
10
77.507592000000116
20
7.3210419999999488
10
77.501496000000117
20
7.3268839999999358
10
77.497432000000117
20
7.3314559999999318
10
77.494638000000123
20
7.3342499999999333
10
78.622652000000116
20
7.3342499999999333
10
78.619858000000121
20
7.3314559999999318
10
78.615540000000124
20
7.3268839999999358
10
78.60944400000011
20
7.3210419999999488
10
78.602332000000118
20
7.3134219999999672
10
78.593442000000124
20
7.3047859999999432
10
78.584044000000119
20
7.2956419999999511
10
78.574138000000119
20
7.2852279999999325
10
78.563724000000121
20
7.2748139999999495
10
78.56372400000015
20
-12.864337999999993
10
78.574138000000161
20
-12.874751999999994
10
78.584044000000148
20
-12.884912000000011
10
78.593442000000152
20
-12.894056000000003
10
78.60233200000016
20
-12.902946000000011
10
78.609444000000167
20
-12.910312000000008
10
78.615540000000138
20
-12.916153999999995
0
LINE
5
547
100
AcDbEntity
8
0
100
AcDbLine
10
78.623414000000125
20
7.3347579999999368
30
-2.7755575615628914e-15
11
78.623160000000127
21
7.3347579999999368
31
-2.7755575615628914e-15
0
LINE
5
548
100
AcDbEntity
8
0
100
AcDbLine
10
77.494130000000169
20
-12.923774000000012
30
-2.7755575615628914e-15
11
77.494638000000151
21
-12.923520000000011
31
-2.7755575615628914e-15
0
LINE
5
549
100
AcDbEntity
8
0
100
AcDbLine
10
78.563724000000121
20
7.2748139999999495
30
-2.7755575615628914e-15
11
77.553566000000131
21
7.2748139999999495
31
-2.7755575615628914e-15
0
LINE
5
550
100
AcDbEntity
8
0
100
AcDbLine
10
77.883512000000167
20
-7.1033640000000098
30
-2.7755575615628914e-15
11
77.883512000000167
21
-8.4861399999999954
31
-3.3306690738754696e-15
0
LINE
5
551
100
AcDbEntity
8
0
100
AcDbLine
10
78.623414000000139
20
-13.029945999999999
30
-2.7755575615628914e-15
11
78.458568000000156
21
-13.029945999999999
31
-3.3306690738754696e-15
0
LINE
5
552
100
AcDbEntity
8
0
100
AcDbLine
10
78.622906000000114
20
7.3342499999999333
30
-2.7755575615628914e-15
11
78.622652000000116
21
7.3342499999999333
31
-2.7755575615628914e-15
0
LINE
5
553
100
AcDbEntity
8
0
100
AcDbLine
10
78.622906000000157
20
-12.923774000000012
30
-2.7755575615628914e-15
11
78.623160000000155
21
-12.924027999999996
31
-2.7755575615628914e-15
0
LINE
5
554
100
AcDbEntity
8
0
100
AcDbLine
10
77.493622000000101
20
7.3347579999999368
30
-2.7755575615628914e-15
11
77.493622000000101
21
7.3350119999999563
31
-2.7755575615628914e-15
0
LINE
5
555
100
AcDbEntity
8
0
100
AcDbLine
10
77.494638000000123
20
7.3342499999999333
30
-2.7755575615628914e-15
11
77.494130000000112
21
7.3342499999999333
31
-2.7755575615628914e-15
0
LINE
5
556
100
AcDbEntity
8
0
100
AcDbLine
10
78.458568000000128
20
7.4404219999999555
30
-3.3306690738754696e-15
11
78.623414000000125
21
7.4404219999999555
31
-3.3306690738754696e-15
0
LINE
5
557
100
AcDbEntity
8
0
100
AcDbLine
10
77.658722000000111
20
7.4404219999999555
30
-2.7755575615628914e-15
11
77.493622000000101
21
7.4404219999999555
31
-2.7755575615628914e-15
0
LINE
5
558
100
AcDbEntity
8
0
100
AcDbLine
10
77.493622000000101
20
7.3355199999999599
30
-2.7755575615628914e-15
11
77.493622000000101
21
7.3357739999999438
31
-2.7755575615628914e-15
0
LINE
5
559
100
AcDbEntity
8
0
100
AcDbLine
10
77.493622000000158
20
-12.925044000000003
30
-2.7755575615628914e-15
11
77.493622000000158
21
-12.924536000000018
31
-2.7755575615628914e-15
0
LINE
5
560
100
AcDbEntity
8
0
100
AcDbLine
10
78.623160000000155
20
-12.924027999999996
30
-2.7755575615628914e-15
11
78.623414000000139
21
-12.924282000000016
31
-2.7755575615628914e-15
0
LINE
5
561
100
AcDbEntity
8
0
100
AcDbLine
10
77.494130000000112
20
7.3347579999999368
30
-2.7755575615628914e-15
11
77.493622000000101
21
7.3347579999999368
31
-2.7755575615628914e-15
0
LINE
5
562
100
AcDbEntity
8
0
100
AcDbLine
10
78.623160000000127
20
7.3347579999999368
30
-2.7755575615628914e-15
11
78.622906000000114
21
7.3342499999999333
31
-2.7755575615628914e-15
0
LINE
5
563
100
AcDbEntity
8
0
100
AcDbLine
10
78.623414000000139
20
-12.924536
30
-2.7755575615628914e-15
11
78.623414000000139
21
-12.925044000000003
31
-2.7755575615628914e-15
0
LINE
5
564
100
AcDbEntity
8
0
100
AcDbLine
10
77.493622000000158
20
-13.164820000000006
30
-3.3306690738754696e-15
11
77.493622000000101
21
7.5755499999999643
31
-2.7755575615628914e-15
0
LINE
5
565
100
AcDbEntity
8
0
100
AcDbLine
10
78.622652000000159
20
-12.923519999999993
30
-2.7755575615628914e-15
11
78.622906000000157
21
-12.923774000000012
31
-2.7755575615628914e-15
0
LINE
5
566
100
AcDbEntity
8
0
100
AcDbLine
10
78.623414000000125
20
7.3355199999999599
30
-3.3306690738754696e-15
11
78.623414000000125
21
7.3350119999999563
31
-2.7755575615628914e-15
0
LINE
5
567
100
AcDbEntity
8
0
100
AcDbLine
10
77.494130000000169
20
-12.924027999999996
30
-2.7755575615628914e-15
11
77.494130000000169
21
-12.923774000000012
31
-2.7755575615628914e-15
0
LINE
5
568
100
AcDbEntity
8
0
100
AcDbLine
10
78.458568000000156
20
-13.029945999999999
30
-3.3306690738754696e-15
11
78.458568000000156
21
-13.064744000000008
31
-3.3306690738754696e-15
0
LINE
5
569
100
AcDbEntity
8
0
100
AcDbLine
10
77.553566000000146
20
-12.864337999999993
30
-3.3306690738754696e-15
11
78.56372400000015
21
-12.864337999999993
31
-3.3306690738754696e-15
0
ARC
5
570
100
AcDbEntity
8
0
100
AcDbCircle
10
-77.933577517301387
20
1.5139064725023843
30
3.3306690738753608e-15
40
0.050065561429329886
210
-1.3856164688916541e-30
220
-7.545018968038921e-31
230
-1
100
AcDbArc
50
331.43063219490199
51
359.9239278487596
0
LWPOLYLINE
5
571
100
AcDbEntity
8
0
100
AcDbPolyline
90
4
70
1
43
0.0
10
78.108556000000135
20
1.5628619999999496
42
-0.14579000000000214
10
78.008734000000132
20
1.5628619999999493
10
78.008734000000132
20
2.8478479999999613
42
-0.14575399999998379
10
78.108556000000135
20
2.8478479999999529
0
LINE
5
572
100
AcDbEntity
8
0
100
AcDbLine
10
77.658722000000168
20
-13.029945999999999
30
-3.3306690738754696e-15
11
77.493622000000158
21
-13.029945999999999
31
-2.7755575615628914e-15
0
LINE
5
573
100
AcDbEntity
8
0
100
AcDbLine
10
77.658722000000168
20
-13.064744000000008
30
-3.3306690738754696e-15
11
77.658722000000168
21
-13.029945999999999
31
-3.3306690738754696e-15
0
LINE
5
574
100
AcDbEntity
8
0
100
AcDbLine
10
78.623414000000125
20
7.3350119999999563
30
-2.7755575615628914e-15
11
78.623414000000125
21
7.3347579999999368
31
-2.7755575615628914e-15
0
LINE
5
575
100
AcDbEntity
8
0
100
AcDbLine
10
78.623414000000139
20
-12.924282000000016
30
-2.7755575615628914e-15
11
78.623414000000139
21
-12.924536
31
-2.7755575615628914e-15
0
LINE
5
576
100
AcDbEntity
8
0
100
AcDbLine
10
77.493622000000158
20
-12.924536000000018
30
-2.7755575615628914e-15
11
77.493622000000158
21
-12.924281999999998
31
-2.7755575615628914e-15
0
LINE
5
577
100
AcDbEntity
8
0
100
AcDbLine
10
77.494130000000112
20
7.3342499999999333
30
-2.7755575615628914e-15
11
77.494130000000112
21
7.3347579999999368
31
-2.7755575615628914e-15
0
LINE
5
578
100
AcDbEntity
8
0
100
AcDbLine
10
78.458568000000128
20
7.4404219999999555
30
-3.3306690738754696e-15
11
78.458568000000128
21
7.4752199999999647
31
-2.7755575615628914e-15
0
LINE
5
579
100
AcDbEntity
8
0
100
AcDbLine
10
77.493622000000101
20
7.3350119999999563
30
-2.7755575615628914e-15
11
77.493622000000101
21
7.3355199999999599
31
-2.7755575615628914e-15
0
ARC
5
580
100
AcDbEntity
8
0
100
AcDbCircle
10
-78.058518000000134
20
1.7303865357689396
30
2.7755575615628223e-15
40
0.29998681034097718
210
-8.803641826106307e-31
220
-5.3252377495764582e-32
230
-1
100
AcDbArc
50
239.97340029923177
51
300.02659970077059
0
ARC
5
581
100
AcDbEntity
8
0
100
AcDbCircle
10
-78.183581225541445
20
1.513875133904321
30
2.775557561562829e-15
40
0.049942786816752703
210
-7.890861585737063e-31
220
-3.199197131651033e-31
230
-1
100
AcDbArc
50
180.04030661345587
51
208.60513334297141
0
LINE
5
582
100
AcDbEntity
8
0
100
AcDbLine
10
77.883512000000138
20
1.5138399999999663
30
-2.7755575615628914e-15
11
77.883512000000138
21
2.8968699999999714
31
-3.3306690738754696e-15
0
LWPOLYLINE
5
583
100
AcDbEntity
8
0
100
AcDbPolyline
90
4
70
1
43
0.0
10
78.108556000000149
20
-8.4373720000000052
42
-0.14564299999994013
10
78.00873400000016
20
-8.4373719999999963
10
78.008734000000146
20
-7.1521319999999999
42
-0.14575999999995443
10
78.108556000000164
20
-7.1521320000000088
0
LINE
5
584
100
AcDbEntity
8
0
100
AcDbLine
10
78.983840000000143
20
-2.7947620000000306
30
-3.3306690738754696e-15
11
77.133450000000167
21
-2.7947620000000306
31
-2.7755575615628914e-15
0
LINE
5
585
100
AcDbEntity
8
0
100
AcDbLine
10
78.233524000000131
20
1.5138399999999663
30
-3.3306690738754696e-15
11
78.233524000000131
21
2.8968699999999714
31
-3.3306690738754696e-15
0
ARC
5
586
100
AcDbEntity
8
0
100
AcDbCircle
10
-78.058518000000149
20
-7.3196923326301011
30
3.3306690738754519e-15
40
0.3000178035541114
210
-1.9735339790424345e-31
220
3.4150698130810926e-31
230
-1
100
AcDbArc
50
59.976821193012036
51
120.02317880698796
0
ARC
5
587
100
AcDbEntity
8
0
100
AcDbCircle
10
-78.183796187694682
20
2.8968897500496382
30
3.3306690738754972e-15
40
0.049727816227449075
210
3.7844539251281825e-31
220
-6.9215649435075827e-31
230
-1
100
AcDbArc
50
151.33180427815728
51
180.02275576541075
0
ARC
5
588
100
AcDbEntity
8
0
100
AcDbCircle
10
-77.933362636904207
20
2.8968583905776768
30
3.3306690738753466e-15
40
0.049850638255888258
210
-1.5777590843982345e-30
220
-1.5986994066371471e-31
230
-1
100
AcDbArc
50
0.013343277606761444
51
28.632096678715353
0
ARC
5
589
100
AcDbEntity
8
0
100
AcDbCircle
10
-78.058518000000149
20
-8.2696717594726721
30
2.7755575615628235e-15
40
0.30013894720134165
210
-8.8037974464300165e-31
220
-5.2994480419737183e-32
230
-1
100
AcDbArc
50
239.9901845841826
51
300.0098154158174
0
ARC
5
590
100
AcDbEntity
8
0
100
AcDbCircle
10
-78.183764919797923
20
-8.4864043060541583
30
3.3306690738753529e-15
40
0.049759782156503132
210
-1.5739022346398695e-30
220
-7.2327540072081175e-31
230
-1
100
AcDbArc
50
179.69566400902514
51
208.66046482041565
0
ARC
5
591
100
AcDbEntity
8
0
100
AcDbCircle
10
-78.058518000000134
20
2.6802809545710282
30
2.7755575615628772e-15
40
0.30002361566893587
210
-1.9734957473650025e-31
220
3.4150919064916906e-31
230
-1
100
AcDbArc
50
59.977462616699576
51
120.02253738329807
0
ARC
5
592
100
AcDbEntity
8
0
100
AcDbCircle
10
-77.933585958753525
20
-7.1031792422113682
30
2.7755575615627083e-15
40
0.050074299602419242
210
-2.3659299044258776e-30
220
-1.8129406462720298e-31
230
-1
100
AcDbArc
50
-0.21140316737713563
51
28.567531996747601
0
ARC
5
593
100
AcDbEntity
8
0
100
AcDbCircle
10
-77.933394029315366
20
-8.4863732452256535
30
2.7755575615627722e-15
40
0.049882574632212968
210
-1.5738518274904707e-30
220
-4.0959970482883686e-31
230
-1
100
AcDbArc
50
-28.624038331195116
51
0.26790950184273254
0
LINE
5
594
100
AcDbEntity
8
0
100
AcDbLine
10
78.058518000000134
20
7.9151479999999452
30
-2.7755575615628914e-15
11
78.058518000000149
21
-13.554456000000012
31
-3.3306690738754696e-15
0
LINE
5
595
100
AcDbEntity
8
0
100
AcDbLine
10
78.233524000000173
20
-7.1033640000000098
30
-2.7755575615628914e-15
11
78.233524000000173
21
-8.4861399999999954
31
-2.7755575615628914e-15
0
ARC
5
596
100
AcDbEntity
8
0
100
AcDbCircle
10
-78.183572803474689
20
-7.1031482285959413
30
2.7755575615628401e-15
40
0.049951662551164483
210
-6.9258255406996211e-31
220
-3.776651077132225e-31
230
-1
100
AcDbArc
50
151.39637531940181
51
180.24749585114418
0
ENDSEC
0
SECTION
2
OBJECTS
0
DICTIONARY
5
C
100
AcDbDictionary
3
ACAD_GROUP
350
D
3
ACAD_MLINESTYLE
350
17
0
DICTIONARY
5
D
100
AcDbDictionary
0
DICTIONARY
5
1A
330
C
100
AcDbDictionary
0
DICTIONARY
5
17
100
AcDbDictionary
0
ENDSEC
0
EOF
