%TF.GenerationSoftware,KiCad,Pcbnew,8.0.8*%
%TF.CreationDate,2025-02-20T13:59:42+03:00*%
%TF.ProjectId,buck_conv,6275636b-5f63-46f6-9e76-2e6b69636164,rev?*%
%TF.SameCoordinates,Original*%
%TF.FileFunction,Legend,Top*%
%TF.FilePolarity,Positive*%
%FSLAX46Y46*%
G04 Gerber Fmt 4.6, Leading zero omitted, Abs format (unit mm)*
G04 Created by KiCad (PCBNEW 8.0.8) date 2025-02-20 13:59:42*
%MOMM*%
%LPD*%
G01*
G04 APERTURE LIST*
%ADD10C,0.150000*%
%ADD11C,0.120000*%
G04 APERTURE END LIST*
D10*
X149024819Y-96956666D02*
X148548628Y-97289999D01*
X149024819Y-97528094D02*
X148024819Y-97528094D01*
X148024819Y-97528094D02*
X148024819Y-97147142D01*
X148024819Y-97147142D02*
X148072438Y-97051904D01*
X148072438Y-97051904D02*
X148120057Y-97004285D01*
X148120057Y-97004285D02*
X148215295Y-96956666D01*
X148215295Y-96956666D02*
X148358152Y-96956666D01*
X148358152Y-96956666D02*
X148453390Y-97004285D01*
X148453390Y-97004285D02*
X148501009Y-97051904D01*
X148501009Y-97051904D02*
X148548628Y-97147142D01*
X148548628Y-97147142D02*
X148548628Y-97528094D01*
X148358152Y-96099523D02*
X149024819Y-96099523D01*
X147977200Y-96337618D02*
X148691485Y-96575713D01*
X148691485Y-96575713D02*
X148691485Y-95956666D01*
X148133333Y-93924819D02*
X147800000Y-93448628D01*
X147561905Y-93924819D02*
X147561905Y-92924819D01*
X147561905Y-92924819D02*
X147942857Y-92924819D01*
X147942857Y-92924819D02*
X148038095Y-92972438D01*
X148038095Y-92972438D02*
X148085714Y-93020057D01*
X148085714Y-93020057D02*
X148133333Y-93115295D01*
X148133333Y-93115295D02*
X148133333Y-93258152D01*
X148133333Y-93258152D02*
X148085714Y-93353390D01*
X148085714Y-93353390D02*
X148038095Y-93401009D01*
X148038095Y-93401009D02*
X147942857Y-93448628D01*
X147942857Y-93448628D02*
X147561905Y-93448628D01*
X148466667Y-92924819D02*
X149085714Y-92924819D01*
X149085714Y-92924819D02*
X148752381Y-93305771D01*
X148752381Y-93305771D02*
X148895238Y-93305771D01*
X148895238Y-93305771D02*
X148990476Y-93353390D01*
X148990476Y-93353390D02*
X149038095Y-93401009D01*
X149038095Y-93401009D02*
X149085714Y-93496247D01*
X149085714Y-93496247D02*
X149085714Y-93734342D01*
X149085714Y-93734342D02*
X149038095Y-93829580D01*
X149038095Y-93829580D02*
X148990476Y-93877200D01*
X148990476Y-93877200D02*
X148895238Y-93924819D01*
X148895238Y-93924819D02*
X148609524Y-93924819D01*
X148609524Y-93924819D02*
X148514286Y-93877200D01*
X148514286Y-93877200D02*
X148466667Y-93829580D01*
X148083333Y-92624819D02*
X147750000Y-92148628D01*
X147511905Y-92624819D02*
X147511905Y-91624819D01*
X147511905Y-91624819D02*
X147892857Y-91624819D01*
X147892857Y-91624819D02*
X147988095Y-91672438D01*
X147988095Y-91672438D02*
X148035714Y-91720057D01*
X148035714Y-91720057D02*
X148083333Y-91815295D01*
X148083333Y-91815295D02*
X148083333Y-91958152D01*
X148083333Y-91958152D02*
X148035714Y-92053390D01*
X148035714Y-92053390D02*
X147988095Y-92101009D01*
X147988095Y-92101009D02*
X147892857Y-92148628D01*
X147892857Y-92148628D02*
X147511905Y-92148628D01*
X148464286Y-91720057D02*
X148511905Y-91672438D01*
X148511905Y-91672438D02*
X148607143Y-91624819D01*
X148607143Y-91624819D02*
X148845238Y-91624819D01*
X148845238Y-91624819D02*
X148940476Y-91672438D01*
X148940476Y-91672438D02*
X148988095Y-91720057D01*
X148988095Y-91720057D02*
X149035714Y-91815295D01*
X149035714Y-91815295D02*
X149035714Y-91910533D01*
X149035714Y-91910533D02*
X148988095Y-92053390D01*
X148988095Y-92053390D02*
X148416667Y-92624819D01*
X148416667Y-92624819D02*
X149035714Y-92624819D01*
X151724819Y-90666666D02*
X151248628Y-90999999D01*
X151724819Y-91238094D02*
X150724819Y-91238094D01*
X150724819Y-91238094D02*
X150724819Y-90857142D01*
X150724819Y-90857142D02*
X150772438Y-90761904D01*
X150772438Y-90761904D02*
X150820057Y-90714285D01*
X150820057Y-90714285D02*
X150915295Y-90666666D01*
X150915295Y-90666666D02*
X151058152Y-90666666D01*
X151058152Y-90666666D02*
X151153390Y-90714285D01*
X151153390Y-90714285D02*
X151201009Y-90761904D01*
X151201009Y-90761904D02*
X151248628Y-90857142D01*
X151248628Y-90857142D02*
X151248628Y-91238094D01*
X151724819Y-89714285D02*
X151724819Y-90285713D01*
X151724819Y-89999999D02*
X150724819Y-89999999D01*
X150724819Y-89999999D02*
X150867676Y-90095237D01*
X150867676Y-90095237D02*
X150962914Y-90190475D01*
X150962914Y-90190475D02*
X151010533Y-90285713D01*
X150519580Y-94666666D02*
X150567200Y-94714285D01*
X150567200Y-94714285D02*
X150614819Y-94857142D01*
X150614819Y-94857142D02*
X150614819Y-94952380D01*
X150614819Y-94952380D02*
X150567200Y-95095237D01*
X150567200Y-95095237D02*
X150471961Y-95190475D01*
X150471961Y-95190475D02*
X150376723Y-95238094D01*
X150376723Y-95238094D02*
X150186247Y-95285713D01*
X150186247Y-95285713D02*
X150043390Y-95285713D01*
X150043390Y-95285713D02*
X149852914Y-95238094D01*
X149852914Y-95238094D02*
X149757676Y-95190475D01*
X149757676Y-95190475D02*
X149662438Y-95095237D01*
X149662438Y-95095237D02*
X149614819Y-94952380D01*
X149614819Y-94952380D02*
X149614819Y-94857142D01*
X149614819Y-94857142D02*
X149662438Y-94714285D01*
X149662438Y-94714285D02*
X149710057Y-94666666D01*
X149614819Y-93761904D02*
X149614819Y-94238094D01*
X149614819Y-94238094D02*
X150091009Y-94285713D01*
X150091009Y-94285713D02*
X150043390Y-94238094D01*
X150043390Y-94238094D02*
X149995771Y-94142856D01*
X149995771Y-94142856D02*
X149995771Y-93904761D01*
X149995771Y-93904761D02*
X150043390Y-93809523D01*
X150043390Y-93809523D02*
X150091009Y-93761904D01*
X150091009Y-93761904D02*
X150186247Y-93714285D01*
X150186247Y-93714285D02*
X150424342Y-93714285D01*
X150424342Y-93714285D02*
X150519580Y-93761904D01*
X150519580Y-93761904D02*
X150567200Y-93809523D01*
X150567200Y-93809523D02*
X150614819Y-93904761D01*
X150614819Y-93904761D02*
X150614819Y-94142856D01*
X150614819Y-94142856D02*
X150567200Y-94238094D01*
X150567200Y-94238094D02*
X150519580Y-94285713D01*
X152533333Y-90399580D02*
X152485714Y-90447200D01*
X152485714Y-90447200D02*
X152342857Y-90494819D01*
X152342857Y-90494819D02*
X152247619Y-90494819D01*
X152247619Y-90494819D02*
X152104762Y-90447200D01*
X152104762Y-90447200D02*
X152009524Y-90351961D01*
X152009524Y-90351961D02*
X151961905Y-90256723D01*
X151961905Y-90256723D02*
X151914286Y-90066247D01*
X151914286Y-90066247D02*
X151914286Y-89923390D01*
X151914286Y-89923390D02*
X151961905Y-89732914D01*
X151961905Y-89732914D02*
X152009524Y-89637676D01*
X152009524Y-89637676D02*
X152104762Y-89542438D01*
X152104762Y-89542438D02*
X152247619Y-89494819D01*
X152247619Y-89494819D02*
X152342857Y-89494819D01*
X152342857Y-89494819D02*
X152485714Y-89542438D01*
X152485714Y-89542438D02*
X152533333Y-89590057D01*
X153390476Y-89828152D02*
X153390476Y-90494819D01*
X153152381Y-89447200D02*
X152914286Y-90161485D01*
X152914286Y-90161485D02*
X153533333Y-90161485D01*
X158833333Y-89054819D02*
X158357143Y-89054819D01*
X158357143Y-89054819D02*
X158357143Y-88054819D01*
X159690476Y-89054819D02*
X159119048Y-89054819D01*
X159404762Y-89054819D02*
X159404762Y-88054819D01*
X159404762Y-88054819D02*
X159309524Y-88197676D01*
X159309524Y-88197676D02*
X159214286Y-88292914D01*
X159214286Y-88292914D02*
X159119048Y-88340533D01*
X148254819Y-94761904D02*
X149064342Y-94761904D01*
X149064342Y-94761904D02*
X149159580Y-94714285D01*
X149159580Y-94714285D02*
X149207200Y-94666666D01*
X149207200Y-94666666D02*
X149254819Y-94571428D01*
X149254819Y-94571428D02*
X149254819Y-94380952D01*
X149254819Y-94380952D02*
X149207200Y-94285714D01*
X149207200Y-94285714D02*
X149159580Y-94238095D01*
X149159580Y-94238095D02*
X149064342Y-94190476D01*
X149064342Y-94190476D02*
X148254819Y-94190476D01*
X149254819Y-93190476D02*
X149254819Y-93761904D01*
X149254819Y-93476190D02*
X148254819Y-93476190D01*
X148254819Y-93476190D02*
X148397676Y-93571428D01*
X148397676Y-93571428D02*
X148492914Y-93666666D01*
X148492914Y-93666666D02*
X148540533Y-93761904D01*
X159083333Y-100759580D02*
X159035714Y-100807200D01*
X159035714Y-100807200D02*
X158892857Y-100854819D01*
X158892857Y-100854819D02*
X158797619Y-100854819D01*
X158797619Y-100854819D02*
X158654762Y-100807200D01*
X158654762Y-100807200D02*
X158559524Y-100711961D01*
X158559524Y-100711961D02*
X158511905Y-100616723D01*
X158511905Y-100616723D02*
X158464286Y-100426247D01*
X158464286Y-100426247D02*
X158464286Y-100283390D01*
X158464286Y-100283390D02*
X158511905Y-100092914D01*
X158511905Y-100092914D02*
X158559524Y-99997676D01*
X158559524Y-99997676D02*
X158654762Y-99902438D01*
X158654762Y-99902438D02*
X158797619Y-99854819D01*
X158797619Y-99854819D02*
X158892857Y-99854819D01*
X158892857Y-99854819D02*
X159035714Y-99902438D01*
X159035714Y-99902438D02*
X159083333Y-99950057D01*
X159464286Y-99950057D02*
X159511905Y-99902438D01*
X159511905Y-99902438D02*
X159607143Y-99854819D01*
X159607143Y-99854819D02*
X159845238Y-99854819D01*
X159845238Y-99854819D02*
X159940476Y-99902438D01*
X159940476Y-99902438D02*
X159988095Y-99950057D01*
X159988095Y-99950057D02*
X160035714Y-100045295D01*
X160035714Y-100045295D02*
X160035714Y-100140533D01*
X160035714Y-100140533D02*
X159988095Y-100283390D01*
X159988095Y-100283390D02*
X159416667Y-100854819D01*
X159416667Y-100854819D02*
X160035714Y-100854819D01*
X151233333Y-96059580D02*
X151185714Y-96107200D01*
X151185714Y-96107200D02*
X151042857Y-96154819D01*
X151042857Y-96154819D02*
X150947619Y-96154819D01*
X150947619Y-96154819D02*
X150804762Y-96107200D01*
X150804762Y-96107200D02*
X150709524Y-96011961D01*
X150709524Y-96011961D02*
X150661905Y-95916723D01*
X150661905Y-95916723D02*
X150614286Y-95726247D01*
X150614286Y-95726247D02*
X150614286Y-95583390D01*
X150614286Y-95583390D02*
X150661905Y-95392914D01*
X150661905Y-95392914D02*
X150709524Y-95297676D01*
X150709524Y-95297676D02*
X150804762Y-95202438D01*
X150804762Y-95202438D02*
X150947619Y-95154819D01*
X150947619Y-95154819D02*
X151042857Y-95154819D01*
X151042857Y-95154819D02*
X151185714Y-95202438D01*
X151185714Y-95202438D02*
X151233333Y-95250057D01*
X152185714Y-96154819D02*
X151614286Y-96154819D01*
X151900000Y-96154819D02*
X151900000Y-95154819D01*
X151900000Y-95154819D02*
X151804762Y-95297676D01*
X151804762Y-95297676D02*
X151709524Y-95392914D01*
X151709524Y-95392914D02*
X151614286Y-95440533D01*
D11*
%TO.C,R4*%
X147780000Y-96636359D02*
X147780000Y-96943641D01*
X147020000Y-96636359D02*
X147020000Y-96943641D01*
%TO.C,R3*%
X148453641Y-91920000D02*
X148146359Y-91920000D01*
X148453641Y-92680000D02*
X148146359Y-92680000D01*
%TO.C,R2*%
X148403641Y-90620000D02*
X148096359Y-90620000D01*
X148403641Y-91380000D02*
X148096359Y-91380000D01*
%TO.C,R1*%
X149720000Y-90346359D02*
X149720000Y-90653641D01*
X150480000Y-90346359D02*
X150480000Y-90653641D01*
%TO.C,C5*%
X148640000Y-94392164D02*
X148640000Y-94607836D01*
X149360000Y-94392164D02*
X149360000Y-94607836D01*
%TO.C,C4*%
X152592164Y-91560000D02*
X152807836Y-91560000D01*
X152592164Y-90840000D02*
X152807836Y-90840000D01*
%TO.C,L1*%
X162810000Y-96460000D02*
X162810000Y-94860000D01*
X162810000Y-89340000D02*
X162810000Y-90940000D01*
X155190000Y-96460000D02*
X162810000Y-96460000D01*
X155190000Y-96460000D02*
X155190000Y-94860000D01*
X155190000Y-89340000D02*
X162810000Y-89340000D01*
X155190000Y-89340000D02*
X155190000Y-90940000D01*
%TO.C,U1*%
X149815000Y-95220000D02*
X149485000Y-95460000D01*
X149485000Y-94980000D01*
X149815000Y-95220000D01*
G36*
X149815000Y-95220000D02*
G01*
X149485000Y-95460000D01*
X149485000Y-94980000D01*
X149815000Y-95220000D01*
G37*
X149740000Y-93920000D02*
X149740000Y-93120000D01*
X149740000Y-93920000D02*
X149740000Y-94720000D01*
X152810000Y-94880000D02*
X152810000Y-93120000D01*
%TO.C,C2*%
X159961252Y-96740000D02*
X158538748Y-96740000D01*
X159961252Y-99460000D02*
X158538748Y-99460000D01*
%TO.C,C1*%
X150688748Y-99360000D02*
X152111252Y-99360000D01*
X150688748Y-96640000D02*
X152111252Y-96640000D01*
%TD*%
M02*
