%TF.GenerationSoftware,KiCad,Pcbnew,8.0.8*%
%TF.CreationDate,2025-02-20T13:59:41+03:00*%
%TF.ProjectId,buck_conv,6275636b-5f63-46f6-9e76-2e6b69636164,rev?*%
%TF.SameCoordinates,Original*%
%TF.FileFunction,Copper,L2,Bot*%
%TF.FilePolarity,Positive*%
%FSLAX46Y46*%
G04 Gerber Fmt 4.6, Leading zero omitted, Abs format (unit mm)*
G04 Created by KiCad (PCBNEW 8.0.8) date 2025-02-20 13:59:41*
%MOMM*%
%LPD*%
G01*
G04 APERTURE LIST*
%TA.AperFunction,ViaPad*%
%ADD10C,0.600000*%
%TD*%
%TA.AperFunction,Conductor*%
%ADD11C,0.200000*%
%TD*%
G04 APERTURE END LIST*
D10*
%TO.N,GND*%
X155600000Y-96900000D03*
X155100000Y-96900000D03*
X154600000Y-96900000D03*
X154100000Y-96900000D03*
X153100000Y-96400000D03*
X153100000Y-95400000D03*
X153100000Y-95900000D03*
X159000000Y-91500000D03*
X159000000Y-92100000D03*
X159000000Y-90900000D03*
X153600000Y-95900000D03*
X153600000Y-96400000D03*
X153600000Y-95400000D03*
X154600000Y-96400000D03*
X154100000Y-96400000D03*
X148100000Y-94400000D03*
%TO.N,EN{slash}SYNC*%
X147000000Y-96000000D03*
X152200000Y-89400000D03*
%TO.N,GND*%
X154600000Y-95900000D03*
X154100000Y-95900000D03*
X154100000Y-95400000D03*
X154600000Y-95400000D03*
X148100000Y-95100000D03*
%TO.N,VOUT*%
X150700000Y-90300000D03*
X162000000Y-98250000D03*
%TD*%
D11*
%TO.N,VOUT*%
X164400000Y-95850000D02*
X162000000Y-98250000D01*
X151000000Y-90000000D02*
X152900000Y-90000000D01*
X164400000Y-90250000D02*
X164400000Y-95850000D01*
X152900000Y-90000000D02*
X153800000Y-89100000D01*
X150700000Y-90300000D02*
X151000000Y-90000000D01*
X163250000Y-89100000D02*
X164400000Y-90250000D01*
X153800000Y-89100000D02*
X163250000Y-89100000D01*
%TO.N,EN{slash}SYNC*%
X146800000Y-90500000D02*
X146800000Y-95800000D01*
X147100000Y-90200000D02*
X146800000Y-90500000D01*
X146800000Y-95800000D02*
X147000000Y-96000000D01*
X149800000Y-89400000D02*
X149000000Y-90200000D01*
X152200000Y-89400000D02*
X149800000Y-89400000D01*
X149000000Y-90200000D02*
X147100000Y-90200000D01*
%TD*%
%TA.AperFunction,Conductor*%
%TO.N,GND*%
G36*
X163141460Y-89420502D02*
G01*
X163162434Y-89437405D01*
X164062595Y-90337566D01*
X164096621Y-90399878D01*
X164099500Y-90426661D01*
X164099500Y-95673338D01*
X164079498Y-95741459D01*
X164062595Y-95762433D01*
X162112433Y-97712595D01*
X162050121Y-97746621D01*
X162023338Y-97749500D01*
X161928039Y-97749500D01*
X161789946Y-97790047D01*
X161668873Y-97867855D01*
X161574623Y-97976626D01*
X161514835Y-98107543D01*
X161494353Y-98250000D01*
X161514835Y-98392456D01*
X161574623Y-98523373D01*
X161668873Y-98632144D01*
X161729409Y-98671048D01*
X161789947Y-98709953D01*
X161928039Y-98750500D01*
X162071961Y-98750500D01*
X162210053Y-98709953D01*
X162331128Y-98632143D01*
X162425377Y-98523373D01*
X162485165Y-98392457D01*
X162505647Y-98250000D01*
X162504482Y-98241898D01*
X162514581Y-98171626D01*
X162540100Y-98134869D01*
X164284406Y-96390563D01*
X164346717Y-96356539D01*
X164417533Y-96361604D01*
X164474368Y-96404151D01*
X164499179Y-96470671D01*
X164499500Y-96479660D01*
X164499500Y-99123500D01*
X164479498Y-99191621D01*
X164425842Y-99238114D01*
X164373500Y-99249500D01*
X146626500Y-99249500D01*
X146558379Y-99229498D01*
X146511886Y-99175842D01*
X146500500Y-99123500D01*
X146500500Y-96504688D01*
X146520502Y-96436567D01*
X146574158Y-96390074D01*
X146644432Y-96379970D01*
X146694617Y-96398688D01*
X146789947Y-96459953D01*
X146928039Y-96500500D01*
X147071961Y-96500500D01*
X147210053Y-96459953D01*
X147331128Y-96382143D01*
X147425377Y-96273373D01*
X147485165Y-96142457D01*
X147505647Y-96000000D01*
X147485165Y-95857543D01*
X147425377Y-95726627D01*
X147331128Y-95617857D01*
X147331127Y-95617856D01*
X147270590Y-95578952D01*
X147210053Y-95540047D01*
X147210052Y-95540046D01*
X147210051Y-95540046D01*
X147190997Y-95534451D01*
X147131272Y-95496065D01*
X147101782Y-95431483D01*
X147100500Y-95413556D01*
X147100500Y-90676661D01*
X147120502Y-90608540D01*
X147137405Y-90587566D01*
X147187566Y-90537405D01*
X147249878Y-90503379D01*
X147276661Y-90500500D01*
X149039562Y-90500500D01*
X149115989Y-90480021D01*
X149184511Y-90440460D01*
X149240460Y-90384511D01*
X149887566Y-89737405D01*
X149949878Y-89703379D01*
X149976661Y-89700500D01*
X150281896Y-89700500D01*
X150350017Y-89720502D01*
X150396510Y-89774158D01*
X150406614Y-89844432D01*
X150377120Y-89909012D01*
X150372744Y-89913388D01*
X150274623Y-90026626D01*
X150250555Y-90079327D01*
X150214835Y-90157543D01*
X150194353Y-90300000D01*
X150214835Y-90442457D01*
X150258197Y-90537405D01*
X150274623Y-90573373D01*
X150368873Y-90682144D01*
X150429409Y-90721048D01*
X150489947Y-90759953D01*
X150628039Y-90800500D01*
X150771961Y-90800500D01*
X150910053Y-90759953D01*
X151031128Y-90682143D01*
X151125377Y-90573373D01*
X151185165Y-90442457D01*
X151190037Y-90408566D01*
X151219531Y-90343988D01*
X151279257Y-90305604D01*
X151314755Y-90300500D01*
X152939562Y-90300500D01*
X153015989Y-90280021D01*
X153084511Y-90240460D01*
X153140460Y-90184511D01*
X153887566Y-89437405D01*
X153949878Y-89403379D01*
X153976661Y-89400500D01*
X163073339Y-89400500D01*
X163141460Y-89420502D01*
G37*
%TD.AperFunction*%
%TD*%
%TA.AperFunction,NonConductor*%
G36*
X153238460Y-89020502D02*
G01*
X153284953Y-89074158D01*
X153295057Y-89144432D01*
X153265563Y-89209012D01*
X153259447Y-89215581D01*
X153075029Y-89400000D01*
X152911308Y-89563721D01*
X152848996Y-89597746D01*
X152778180Y-89592681D01*
X152721345Y-89550134D01*
X152696534Y-89483614D01*
X152697496Y-89456693D01*
X152705647Y-89400003D01*
X152705647Y-89400002D01*
X152705647Y-89400000D01*
X152685165Y-89257543D01*
X152649222Y-89178841D01*
X152639119Y-89108568D01*
X152668613Y-89043988D01*
X152728339Y-89005604D01*
X152763837Y-89000500D01*
X153170339Y-89000500D01*
X153238460Y-89020502D01*
G37*
%TD.AperFunction*%
%TA.AperFunction,NonConductor*%
G36*
X164441621Y-89020502D02*
G01*
X164488114Y-89074158D01*
X164499500Y-89126500D01*
X164499500Y-89620339D01*
X164479498Y-89688460D01*
X164425842Y-89734953D01*
X164355568Y-89745057D01*
X164290988Y-89715563D01*
X164284405Y-89709434D01*
X163790566Y-89215595D01*
X163756540Y-89153283D01*
X163761605Y-89082468D01*
X163804152Y-89025632D01*
X163870672Y-89000821D01*
X163879661Y-89000500D01*
X164373500Y-89000500D01*
X164441621Y-89020502D01*
G37*
%TD.AperFunction*%
%TA.AperFunction,NonConductor*%
G36*
X149538459Y-89020502D02*
G01*
X149584952Y-89074158D01*
X149595056Y-89144432D01*
X149565562Y-89209012D01*
X149559434Y-89215595D01*
X148912432Y-89862596D01*
X148850122Y-89896620D01*
X148823339Y-89899500D01*
X147060434Y-89899500D01*
X146984014Y-89919977D01*
X146932879Y-89949500D01*
X146932878Y-89949499D01*
X146915492Y-89959537D01*
X146915482Y-89959545D01*
X146715595Y-90159433D01*
X146653283Y-90193459D01*
X146582468Y-90188394D01*
X146525632Y-90145847D01*
X146500821Y-90079327D01*
X146500500Y-90070338D01*
X146500500Y-89126500D01*
X146520502Y-89058379D01*
X146574158Y-89011886D01*
X146626500Y-89000500D01*
X149470338Y-89000500D01*
X149538459Y-89020502D01*
G37*
%TD.AperFunction*%
M02*
