%TF.GenerationSoftware,KiCad,Pcbnew,8.0.8*%
%TF.CreationDate,2025-02-20T13:59:41+03:00*%
%TF.ProjectId,buck_conv,6275636b-5f63-46f6-9e76-2e6b69636164,rev?*%
%TF.SameCoordinates,Original*%
%TF.FileFunction,Copper,L1,Top*%
%TF.FilePolarity,Positive*%
%FSLAX46Y46*%
G04 Gerber Fmt 4.6, Leading zero omitted, Abs format (unit mm)*
G04 Created by KiCad (PCBNEW 8.0.8) date 2025-02-20 13:59:41*
%MOMM*%
%LPD*%
G01*
G04 APERTURE LIST*
G04 Aperture macros list*
%AMRoundRect*
0 Rectangle with rounded corners*
0 $1 Rounding radius*
0 $2 $3 $4 $5 $6 $7 $8 $9 X,Y pos of 4 corners*
0 Add a 4 corners polygon primitive as box body*
4,1,4,$2,$3,$4,$5,$6,$7,$8,$9,$2,$3,0*
0 Add four circle primitives for the rounded corners*
1,1,$1+$1,$2,$3*
1,1,$1+$1,$4,$5*
1,1,$1+$1,$6,$7*
1,1,$1+$1,$8,$9*
0 Add four rect primitives between the rounded corners*
20,1,$1+$1,$2,$3,$4,$5,0*
20,1,$1+$1,$4,$5,$6,$7,0*
20,1,$1+$1,$6,$7,$8,$9,0*
20,1,$1+$1,$8,$9,$2,$3,0*%
G04 Aperture macros list end*
%TA.AperFunction,SMDPad,CuDef*%
%ADD10RoundRect,0.135000X-0.185000X0.135000X-0.185000X-0.135000X0.185000X-0.135000X0.185000X0.135000X0*%
%TD*%
%TA.AperFunction,SMDPad,CuDef*%
%ADD11RoundRect,0.135000X0.135000X0.185000X-0.135000X0.185000X-0.135000X-0.185000X0.135000X-0.185000X0*%
%TD*%
%TA.AperFunction,SMDPad,CuDef*%
%ADD12RoundRect,0.140000X-0.170000X0.140000X-0.170000X-0.140000X0.170000X-0.140000X0.170000X0.140000X0*%
%TD*%
%TA.AperFunction,SMDPad,CuDef*%
%ADD13RoundRect,0.140000X-0.140000X-0.170000X0.140000X-0.170000X0.140000X0.170000X-0.140000X0.170000X0*%
%TD*%
%TA.AperFunction,SMDPad,CuDef*%
%ADD14RoundRect,0.250001X-0.899999X-1.449999X0.899999X-1.449999X0.899999X1.449999X-0.899999X1.449999X0*%
%TD*%
%TA.AperFunction,SMDPad,CuDef*%
%ADD15RoundRect,0.100000X0.100000X-0.545000X0.100000X0.545000X-0.100000X0.545000X-0.100000X-0.545000X0*%
%TD*%
%TA.AperFunction,SMDPad,CuDef*%
%ADD16RoundRect,0.250000X0.325000X1.100000X-0.325000X1.100000X-0.325000X-1.100000X0.325000X-1.100000X0*%
%TD*%
%TA.AperFunction,SMDPad,CuDef*%
%ADD17RoundRect,0.250000X-0.325000X-1.100000X0.325000X-1.100000X0.325000X1.100000X-0.325000X1.100000X0*%
%TD*%
%TA.AperFunction,ViaPad*%
%ADD18C,0.600000*%
%TD*%
%TA.AperFunction,Conductor*%
%ADD19C,0.200000*%
%TD*%
G04 APERTURE END LIST*
D10*
%TO.P,R4,1*%
%TO.N,EN{slash}SYNC*%
X147400000Y-96280000D03*
%TO.P,R4,2*%
%TO.N,VIN*%
X147400000Y-97300000D03*
%TD*%
D11*
%TO.P,R3,2*%
%TO.N,GND*%
X147790000Y-92300000D03*
%TO.P,R3,1*%
%TO.N,Net-(U1-FB)*%
X148810000Y-92300000D03*
%TD*%
%TO.P,R2,2*%
%TO.N,GND*%
X147740000Y-91000000D03*
%TO.P,R2,1*%
%TO.N,Net-(U1-FB)*%
X148760000Y-91000000D03*
%TD*%
D10*
%TO.P,R1,2*%
%TO.N,Net-(U1-FB)*%
X150100000Y-91010000D03*
%TO.P,R1,1*%
%TO.N,VOUT*%
X150100000Y-89990000D03*
%TD*%
D12*
%TO.P,C5,2*%
%TO.N,GND*%
X149000000Y-94980000D03*
%TO.P,C5,1*%
%TO.N,Net-(U1-VCC)*%
X149000000Y-94020000D03*
%TD*%
D13*
%TO.P,C4,2*%
%TO.N,Net-(U1-SW)*%
X153180000Y-91200000D03*
%TO.P,C4,1*%
%TO.N,Net-(U1-BST)*%
X152220000Y-91200000D03*
%TD*%
D14*
%TO.P,L1,2,2*%
%TO.N,VOUT*%
X161850000Y-92900000D03*
%TO.P,L1,1,1*%
%TO.N,Net-(U1-SW)*%
X156150000Y-92900000D03*
%TD*%
D15*
%TO.P,U1,8,FB*%
%TO.N,Net-(U1-FB)*%
X150280000Y-92645000D03*
%TO.P,U1,7,VCC*%
%TO.N,Net-(U1-VCC)*%
X150920000Y-92645000D03*
%TO.P,U1,6,EN/SYNC*%
%TO.N,EN{slash}SYNC*%
X151580000Y-92645000D03*
%TO.P,U1,5,BST*%
%TO.N,Net-(U1-BST)*%
X152220000Y-92645000D03*
%TO.P,U1,4,GND*%
%TO.N,GND*%
X152220000Y-95355000D03*
%TO.P,U1,3,SW*%
%TO.N,Net-(U1-SW)*%
X151580000Y-95355000D03*
%TO.P,U1,2,IN*%
%TO.N,VIN*%
X150920000Y-95355000D03*
%TO.P,U1,1,AGND*%
%TO.N,GND*%
X150280000Y-95355000D03*
%TD*%
D16*
%TO.P,C2,2*%
%TO.N,GND*%
X157775000Y-98100000D03*
%TO.P,C2,1*%
%TO.N,VOUT*%
X160725000Y-98100000D03*
%TD*%
D17*
%TO.P,C1,2*%
%TO.N,GND*%
X152875000Y-98000000D03*
%TO.P,C1,1*%
%TO.N,VIN*%
X149925000Y-98000000D03*
%TD*%
D18*
%TO.N,GND*%
X155600000Y-96900000D03*
X155100000Y-96900000D03*
X154600000Y-96900000D03*
X154100000Y-96900000D03*
X153100000Y-96400000D03*
X153100000Y-95400000D03*
X153100000Y-95900000D03*
X159000000Y-91500000D03*
X159000000Y-92100000D03*
X159000000Y-90900000D03*
X153600000Y-95900000D03*
X153600000Y-96400000D03*
X153600000Y-95400000D03*
X154600000Y-96400000D03*
X154100000Y-96400000D03*
X148100000Y-94400000D03*
%TO.N,EN{slash}SYNC*%
X147000000Y-96000000D03*
X152200000Y-89400000D03*
%TO.N,GND*%
X154600000Y-95900000D03*
X154100000Y-95900000D03*
X154100000Y-95400000D03*
X154600000Y-95400000D03*
X148100000Y-95100000D03*
%TO.N,VOUT*%
X150700000Y-90300000D03*
X162000000Y-98250000D03*
%TD*%
D19*
%TO.N,GND*%
X148100000Y-95100000D02*
X148030000Y-95100000D01*
X148100000Y-95100000D02*
X148100000Y-95210000D01*
%TO.N,Net-(U1-VCC)*%
X150920000Y-93289999D02*
X150920000Y-92645000D01*
X150189999Y-94020000D02*
X150920000Y-93289999D01*
X149000000Y-94020000D02*
X150189999Y-94020000D01*
%TO.N,GND*%
X149125000Y-95105000D02*
X149000000Y-94980000D01*
%TO.N,VOUT*%
X150410000Y-90300000D02*
X150100000Y-89990000D01*
X150700000Y-90300000D02*
X150410000Y-90300000D01*
%TO.N,Net-(U1-BST)*%
X152220000Y-92645000D02*
X152220000Y-91200000D01*
%TO.N,EN{slash}SYNC*%
X147120000Y-96000000D02*
X147400000Y-96280000D01*
X147000000Y-96000000D02*
X147120000Y-96000000D01*
%TO.N,Net-(U1-FB)*%
X150090000Y-91000000D02*
X150100000Y-91010000D01*
X148760000Y-91000000D02*
X150090000Y-91000000D01*
X148810000Y-91050000D02*
X148760000Y-91000000D01*
X148810000Y-92300000D02*
X148810000Y-91050000D01*
X149155000Y-92645000D02*
X148810000Y-92300000D01*
X150280000Y-92645000D02*
X149155000Y-92645000D01*
%TO.N,EN{slash}SYNC*%
X151300000Y-90300000D02*
X152200000Y-89400000D01*
X151300000Y-91500000D02*
X151300000Y-90300000D01*
X151580000Y-91780000D02*
X151300000Y-91500000D01*
X151580000Y-92645000D02*
X151580000Y-91780000D01*
%TO.N,Net-(U1-SW)*%
X156000001Y-93649999D02*
X157150000Y-92500000D01*
%TO.N,GND*%
X152475000Y-98250000D02*
X153050000Y-98250000D01*
%TD*%
%TA.AperFunction,Conductor*%
%TO.N,GND*%
G36*
X164441621Y-89020502D02*
G01*
X164488114Y-89074158D01*
X164499500Y-89126500D01*
X164499500Y-96274000D01*
X164479498Y-96342121D01*
X164425842Y-96388614D01*
X164373500Y-96400000D01*
X163731500Y-96400000D01*
X163663379Y-96379998D01*
X163616886Y-96326342D01*
X163605500Y-96274000D01*
X163605500Y-90726005D01*
X163605499Y-90725993D01*
X163602970Y-90702469D01*
X163600804Y-90682319D01*
X163589418Y-90629977D01*
X163586930Y-90619797D01*
X163543921Y-90539084D01*
X163497428Y-90485428D01*
X163479835Y-90467473D01*
X163479832Y-90467471D01*
X163400013Y-90422823D01*
X163331908Y-90402827D01*
X163331899Y-90402825D01*
X163331896Y-90402824D01*
X163274000Y-90394500D01*
X160626000Y-90394500D01*
X160625993Y-90394500D01*
X160582318Y-90399196D01*
X160565641Y-90402824D01*
X160529977Y-90410582D01*
X160529965Y-90410584D01*
X160529960Y-90410586D01*
X160528655Y-90410905D01*
X160519797Y-90413070D01*
X160439084Y-90456079D01*
X160439081Y-90456081D01*
X160439080Y-90456082D01*
X160385433Y-90502567D01*
X160367471Y-90520167D01*
X160322823Y-90599986D01*
X160302827Y-90668091D01*
X160302824Y-90668104D01*
X160298810Y-90696027D01*
X160294500Y-90726002D01*
X160294500Y-94794786D01*
X160274498Y-94862907D01*
X160271438Y-94867448D01*
X159155161Y-96448838D01*
X159152613Y-96452532D01*
X159149568Y-96457052D01*
X159122832Y-96513958D01*
X159122824Y-96513978D01*
X159102826Y-96582085D01*
X159102824Y-96582094D01*
X159094500Y-96639992D01*
X159094500Y-99123500D01*
X159074498Y-99191621D01*
X159020842Y-99238114D01*
X158968500Y-99249500D01*
X151431500Y-99249500D01*
X151363379Y-99229498D01*
X151316886Y-99175842D01*
X151305500Y-99123500D01*
X151305500Y-96430930D01*
X151325502Y-96362809D01*
X151379158Y-96316316D01*
X151440494Y-96305251D01*
X151443957Y-96305498D01*
X151443965Y-96305500D01*
X151443973Y-96305500D01*
X151696036Y-96305500D01*
X151751232Y-96297949D01*
X151816431Y-96279769D01*
X151837586Y-96272610D01*
X151912806Y-96220588D01*
X151960748Y-96168223D01*
X151976559Y-96148676D01*
X152011711Y-96064245D01*
X152023730Y-95994275D01*
X152025329Y-95935820D01*
X152025329Y-95935818D01*
X152025131Y-95931324D01*
X152025322Y-95931315D01*
X152025000Y-95925701D01*
X152025000Y-94841000D01*
X152045002Y-94772879D01*
X152098658Y-94726386D01*
X152151000Y-94715000D01*
X152299800Y-94715000D01*
X152367921Y-94735002D01*
X152414414Y-94788658D01*
X152415064Y-94790107D01*
X152422846Y-94807732D01*
X152423435Y-94809057D01*
X152424085Y-94810502D01*
X152424085Y-94810504D01*
X152456248Y-94860907D01*
X152456254Y-94860916D01*
X152456256Y-94860918D01*
X152502734Y-94914559D01*
X152502747Y-94914572D01*
X152520340Y-94932527D01*
X152520342Y-94932528D01*
X152600161Y-94977176D01*
X152658699Y-94994363D01*
X152668279Y-94997176D01*
X152726175Y-95005500D01*
X152726178Y-95005500D01*
X157373994Y-95005500D01*
X157374000Y-95005500D01*
X157417681Y-95000804D01*
X157470023Y-94989418D01*
X157480203Y-94986930D01*
X157560916Y-94943921D01*
X157614572Y-94897428D01*
X157632527Y-94879835D01*
X157677174Y-94800017D01*
X157677174Y-94800016D01*
X157677176Y-94800013D01*
X157697172Y-94731908D01*
X157697176Y-94731896D01*
X157705500Y-94674000D01*
X157705500Y-91126000D01*
X157700804Y-91082319D01*
X157689418Y-91029977D01*
X157686930Y-91019797D01*
X157643921Y-90939084D01*
X157597428Y-90885428D01*
X157579835Y-90867473D01*
X157579832Y-90867471D01*
X157500013Y-90822823D01*
X157431908Y-90802827D01*
X157431899Y-90802825D01*
X157431896Y-90802824D01*
X157374000Y-90794500D01*
X157373997Y-90794500D01*
X153618231Y-90794500D01*
X153550110Y-90774498D01*
X153529136Y-90757595D01*
X153518317Y-90746776D01*
X153409485Y-90696027D01*
X153372955Y-90691218D01*
X153359901Y-90689500D01*
X153359899Y-90689500D01*
X153000101Y-90689500D01*
X153000089Y-90689501D01*
X152950516Y-90696027D01*
X152950510Y-90696029D01*
X152841682Y-90746776D01*
X152841681Y-90746777D01*
X152789095Y-90799364D01*
X152726783Y-90833390D01*
X152655968Y-90828325D01*
X152610905Y-90799364D01*
X152558317Y-90746776D01*
X152449485Y-90696027D01*
X152412955Y-90691218D01*
X152399901Y-90689500D01*
X152399899Y-90689500D01*
X152040101Y-90689500D01*
X152040089Y-90689501D01*
X151990516Y-90696027D01*
X151990510Y-90696029D01*
X151881682Y-90746776D01*
X151881681Y-90746777D01*
X151815595Y-90812864D01*
X151753283Y-90846890D01*
X151682468Y-90841825D01*
X151625632Y-90799278D01*
X151600821Y-90732758D01*
X151600500Y-90723769D01*
X151600500Y-90476661D01*
X151620502Y-90408540D01*
X151637405Y-90387566D01*
X152087566Y-89937405D01*
X152149878Y-89903379D01*
X152176661Y-89900500D01*
X152271961Y-89900500D01*
X152410053Y-89859953D01*
X152531128Y-89782143D01*
X152625377Y-89673373D01*
X152685165Y-89542457D01*
X152705647Y-89400000D01*
X152685165Y-89257543D01*
X152649222Y-89178841D01*
X152639119Y-89108568D01*
X152668613Y-89043988D01*
X152728339Y-89005604D01*
X152763837Y-89000500D01*
X164373500Y-89000500D01*
X164441621Y-89020502D01*
G37*
%TD.AperFunction*%
%TA.AperFunction,Conductor*%
G36*
X151704284Y-89020502D02*
G01*
X151750777Y-89074158D01*
X151760881Y-89144432D01*
X151750777Y-89178842D01*
X151714835Y-89257543D01*
X151694353Y-89400000D01*
X151695519Y-89408112D01*
X151685411Y-89478386D01*
X151659895Y-89515132D01*
X151231761Y-89943266D01*
X151169449Y-89977292D01*
X151098634Y-89972227D01*
X151047442Y-89936684D01*
X151031127Y-89917856D01*
X151031126Y-89917855D01*
X150910053Y-89840047D01*
X150771961Y-89799500D01*
X150709575Y-89799500D01*
X150641454Y-89779498D01*
X150595381Y-89726751D01*
X150564065Y-89659596D01*
X150564063Y-89659593D01*
X150480405Y-89575935D01*
X150373171Y-89525931D01*
X150324322Y-89519500D01*
X150324316Y-89519500D01*
X149875684Y-89519500D01*
X149875677Y-89519500D01*
X149826828Y-89525931D01*
X149719594Y-89575935D01*
X149635935Y-89659594D01*
X149585931Y-89766828D01*
X149579500Y-89815677D01*
X149579500Y-90164322D01*
X149585931Y-90213171D01*
X149635935Y-90320405D01*
X149726435Y-90410905D01*
X149760461Y-90473217D01*
X149755396Y-90544032D01*
X149726435Y-90589095D01*
X149652935Y-90662595D01*
X149590623Y-90696621D01*
X149563840Y-90699500D01*
X149291596Y-90699500D01*
X149223475Y-90679498D01*
X149177402Y-90626751D01*
X149174065Y-90619596D01*
X149174063Y-90619593D01*
X149090405Y-90535935D01*
X148983171Y-90485931D01*
X148934322Y-90479500D01*
X148934316Y-90479500D01*
X148585684Y-90479500D01*
X148585677Y-90479500D01*
X148536828Y-90485931D01*
X148429594Y-90535935D01*
X148345935Y-90619594D01*
X148295931Y-90726828D01*
X148289500Y-90775677D01*
X148289500Y-91224322D01*
X148295931Y-91273171D01*
X148345935Y-91380405D01*
X148429593Y-91464063D01*
X148429594Y-91464063D01*
X148429596Y-91464065D01*
X148436746Y-91467399D01*
X148490032Y-91514313D01*
X148509500Y-91581595D01*
X148509500Y-91753840D01*
X148489498Y-91821961D01*
X148472595Y-91842935D01*
X148395936Y-91919593D01*
X148395935Y-91919594D01*
X148345931Y-92026828D01*
X148339500Y-92075677D01*
X148339500Y-92524322D01*
X148345931Y-92573171D01*
X148395935Y-92680405D01*
X148479594Y-92764064D01*
X148479595Y-92764064D01*
X148479596Y-92764065D01*
X148586827Y-92814068D01*
X148635684Y-92820500D01*
X148853338Y-92820500D01*
X148921459Y-92840502D01*
X148942433Y-92857405D01*
X148970482Y-92885454D01*
X148970487Y-92885458D01*
X148970489Y-92885460D01*
X149039012Y-92925022D01*
X149115438Y-92945500D01*
X149753501Y-92945500D01*
X149821622Y-92965502D01*
X149868115Y-93019158D01*
X149879501Y-93071500D01*
X149879501Y-93234866D01*
X149882414Y-93259990D01*
X149882416Y-93259994D01*
X149927793Y-93362765D01*
X150007232Y-93442204D01*
X150007234Y-93442205D01*
X150007235Y-93442206D01*
X150071766Y-93470699D01*
X150126004Y-93516511D01*
X150146863Y-93584374D01*
X150127721Y-93652742D01*
X150109974Y-93675053D01*
X150102438Y-93682590D01*
X150040128Y-93716619D01*
X150013337Y-93719500D01*
X149543231Y-93719500D01*
X149475110Y-93699498D01*
X149454136Y-93682595D01*
X149368317Y-93596776D01*
X149259485Y-93546027D01*
X149222955Y-93541218D01*
X149209901Y-93539500D01*
X149209899Y-93539500D01*
X148790101Y-93539500D01*
X148790089Y-93539501D01*
X148740516Y-93546027D01*
X148740510Y-93546029D01*
X148631682Y-93596776D01*
X148546776Y-93681682D01*
X148496027Y-93790514D01*
X148489500Y-93840095D01*
X148489500Y-94199898D01*
X148489501Y-94199910D01*
X148496027Y-94249483D01*
X148496029Y-94249489D01*
X148546776Y-94358317D01*
X148631682Y-94443223D01*
X148631683Y-94443223D01*
X148631684Y-94443224D01*
X148740513Y-94493972D01*
X148790099Y-94500500D01*
X149209900Y-94500499D01*
X149209903Y-94500498D01*
X149209910Y-94500498D01*
X149228513Y-94498048D01*
X149259487Y-94493972D01*
X149368316Y-94443224D01*
X149406290Y-94405250D01*
X149454136Y-94357405D01*
X149516448Y-94323379D01*
X149543231Y-94320500D01*
X150229561Y-94320500D01*
X150305988Y-94300021D01*
X150374510Y-94260460D01*
X150430459Y-94204511D01*
X150579405Y-94055565D01*
X150641717Y-94021539D01*
X150712532Y-94026604D01*
X150769368Y-94069151D01*
X150794179Y-94135671D01*
X150794500Y-94144660D01*
X150794500Y-94391632D01*
X150795054Y-94405252D01*
X150777841Y-94474128D01*
X150726122Y-94522766D01*
X150720054Y-94525641D01*
X150647233Y-94557794D01*
X150567795Y-94637232D01*
X150567794Y-94637234D01*
X150522414Y-94740009D01*
X150519500Y-94765129D01*
X150519500Y-95804500D01*
X150500348Y-95871279D01*
X150487335Y-95892098D01*
X150487335Y-95892099D01*
X150475064Y-95919892D01*
X150429251Y-95974130D01*
X150361388Y-95994989D01*
X150359800Y-95994999D01*
X150141735Y-95994999D01*
X150137178Y-95994867D01*
X150137178Y-95994894D01*
X150135391Y-95994842D01*
X150135384Y-95994842D01*
X150123540Y-95994500D01*
X148564841Y-95994500D01*
X148564838Y-95994500D01*
X148526091Y-95998186D01*
X148526088Y-95998186D01*
X148479415Y-96007147D01*
X148474112Y-96008238D01*
X148474108Y-96008240D01*
X148391383Y-96047240D01*
X148335516Y-96091043D01*
X148335510Y-96091049D01*
X148295089Y-96133317D01*
X148295084Y-96133324D01*
X148149030Y-96337801D01*
X148093160Y-96381607D01*
X148022475Y-96388253D01*
X147959418Y-96355629D01*
X147924009Y-96294093D01*
X147920500Y-96264565D01*
X147920500Y-96105692D01*
X147920500Y-96105684D01*
X147914068Y-96056827D01*
X147864065Y-95949596D01*
X147864064Y-95949595D01*
X147864064Y-95949594D01*
X147780405Y-95865935D01*
X147673171Y-95815931D01*
X147624322Y-95809500D01*
X147624316Y-95809500D01*
X147544199Y-95809500D01*
X147476078Y-95789498D01*
X147429585Y-95735842D01*
X147429585Y-95735841D01*
X147425377Y-95726628D01*
X147425376Y-95726626D01*
X147331126Y-95617855D01*
X147210053Y-95540047D01*
X147071961Y-95499500D01*
X146928039Y-95499500D01*
X146789946Y-95540047D01*
X146694620Y-95601309D01*
X146626499Y-95621311D01*
X146558379Y-95601308D01*
X146511886Y-95547653D01*
X146500500Y-95495311D01*
X146500500Y-89126500D01*
X146520502Y-89058379D01*
X146574158Y-89011886D01*
X146626500Y-89000500D01*
X151636163Y-89000500D01*
X151704284Y-89020502D01*
G37*
%TD.AperFunction*%
%TD*%
%TA.AperFunction,NonConductor*%
G36*
X150968724Y-90819491D02*
G01*
X150998217Y-90884071D01*
X150999500Y-90902004D01*
X150999500Y-91539565D01*
X151019978Y-91615988D01*
X151023138Y-91623616D01*
X151020280Y-91624799D01*
X151033548Y-91679503D01*
X151010323Y-91746593D01*
X150954513Y-91790477D01*
X150907692Y-91799500D01*
X150775139Y-91799500D01*
X150775133Y-91799501D01*
X150750010Y-91802414D01*
X150750002Y-91802416D01*
X150650892Y-91846178D01*
X150580497Y-91855396D01*
X150549105Y-91846178D01*
X150449989Y-91802414D01*
X150449991Y-91802414D01*
X150424868Y-91799500D01*
X150135139Y-91799500D01*
X150135133Y-91799501D01*
X150110010Y-91802414D01*
X150110005Y-91802416D01*
X150007234Y-91847793D01*
X149927795Y-91927232D01*
X149927794Y-91927234D01*
X149882414Y-92030009D01*
X149879500Y-92055129D01*
X149879500Y-92218500D01*
X149859498Y-92286621D01*
X149805842Y-92333114D01*
X149753500Y-92344500D01*
X149406500Y-92344500D01*
X149338379Y-92324498D01*
X149291886Y-92270842D01*
X149280500Y-92218500D01*
X149280500Y-92075692D01*
X149280500Y-92075684D01*
X149274068Y-92026827D01*
X149224065Y-91919596D01*
X149224064Y-91919595D01*
X149224064Y-91919594D01*
X149147405Y-91842935D01*
X149113379Y-91780623D01*
X149110500Y-91753840D01*
X149110500Y-91496159D01*
X149130502Y-91428038D01*
X149147401Y-91407067D01*
X149174065Y-91380404D01*
X149174066Y-91380402D01*
X149177402Y-91373249D01*
X149224319Y-91319964D01*
X149291596Y-91300500D01*
X149543840Y-91300500D01*
X149611961Y-91320502D01*
X149632935Y-91337405D01*
X149719594Y-91424064D01*
X149719595Y-91424064D01*
X149719596Y-91424065D01*
X149826827Y-91474068D01*
X149875684Y-91480500D01*
X149875692Y-91480500D01*
X150324308Y-91480500D01*
X150324316Y-91480500D01*
X150373173Y-91474068D01*
X150480404Y-91424065D01*
X150564065Y-91340404D01*
X150614068Y-91233173D01*
X150620500Y-91184316D01*
X150620500Y-90926500D01*
X150640502Y-90858379D01*
X150694158Y-90811886D01*
X150746500Y-90800500D01*
X150771960Y-90800500D01*
X150771961Y-90800500D01*
X150838005Y-90781108D01*
X150908997Y-90781108D01*
X150968724Y-90819491D01*
G37*
%TD.AperFunction*%
%TA.AperFunction,Conductor*%
%TO.N,Net-(U1-SW)*%
G36*
X157442121Y-91020002D02*
G01*
X157488614Y-91073658D01*
X157500000Y-91126000D01*
X157500000Y-94674000D01*
X157479998Y-94742121D01*
X157426342Y-94788614D01*
X157374000Y-94800000D01*
X152726175Y-94800000D01*
X152658054Y-94779998D01*
X152611561Y-94726342D01*
X152610911Y-94724894D01*
X152588439Y-94674000D01*
X152572206Y-94637235D01*
X152572205Y-94637234D01*
X152572204Y-94637232D01*
X152492767Y-94557795D01*
X152492765Y-94557794D01*
X152389989Y-94512414D01*
X152389991Y-94512414D01*
X152364868Y-94509500D01*
X152075139Y-94509500D01*
X152075133Y-94509501D01*
X152050010Y-94512414D01*
X152050005Y-94512416D01*
X151947234Y-94557793D01*
X151867795Y-94637232D01*
X151867794Y-94637234D01*
X151822414Y-94740009D01*
X151819500Y-94765129D01*
X151819500Y-95944859D01*
X151819500Y-95944860D01*
X151819501Y-95944864D01*
X151821196Y-95959485D01*
X151809177Y-96029455D01*
X151761235Y-96081820D01*
X151696036Y-96100000D01*
X151443965Y-96100000D01*
X151375844Y-96079998D01*
X151329351Y-96026342D01*
X151318805Y-95959478D01*
X151320499Y-95944870D01*
X151320500Y-95944865D01*
X151320499Y-94765136D01*
X151317585Y-94740009D01*
X151272206Y-94637235D01*
X151272206Y-94637234D01*
X151192767Y-94557795D01*
X151192765Y-94557794D01*
X151081321Y-94508587D01*
X151082191Y-94506615D01*
X151032440Y-94476027D01*
X151001665Y-94412048D01*
X151000000Y-94391632D01*
X151000000Y-94052190D01*
X151020002Y-93984069D01*
X151036905Y-93963095D01*
X151363095Y-93636905D01*
X151425407Y-93602879D01*
X151452190Y-93600000D01*
X152500000Y-93600000D01*
X152900000Y-93200000D01*
X152900000Y-91126000D01*
X152920002Y-91057879D01*
X152973658Y-91011386D01*
X153026000Y-91000000D01*
X157374000Y-91000000D01*
X157442121Y-91020002D01*
G37*
%TD.AperFunction*%
%TD*%
%TA.AperFunction,Conductor*%
%TO.N,VIN*%
G36*
X151042121Y-95920002D02*
G01*
X151088614Y-95973658D01*
X151100000Y-96026000D01*
X151100000Y-99123500D01*
X151079998Y-99191621D01*
X151026342Y-99238114D01*
X150974000Y-99249500D01*
X146626500Y-99249500D01*
X146558379Y-99229498D01*
X146511886Y-99175842D01*
X146500500Y-99123500D01*
X146500500Y-97026000D01*
X146520502Y-96957879D01*
X146574158Y-96911386D01*
X146626500Y-96900000D01*
X147999999Y-96900000D01*
X148000000Y-96900000D01*
X148462311Y-96252763D01*
X148518181Y-96208958D01*
X148564841Y-96200000D01*
X150123540Y-96200000D01*
X150131491Y-96200459D01*
X150131501Y-96200290D01*
X150135119Y-96200498D01*
X150135135Y-96200500D01*
X150424864Y-96200499D01*
X150449991Y-96197585D01*
X150552765Y-96152206D01*
X150632206Y-96072765D01*
X150675326Y-95975106D01*
X150721138Y-95920869D01*
X150789002Y-95900010D01*
X150790590Y-95900000D01*
X150974000Y-95900000D01*
X151042121Y-95920002D01*
G37*
%TD.AperFunction*%
%TD*%
%TA.AperFunction,Conductor*%
%TO.N,VOUT*%
G36*
X163342121Y-90620002D02*
G01*
X163388614Y-90673658D01*
X163400000Y-90726000D01*
X163400000Y-96274000D01*
X163379998Y-96342121D01*
X163326342Y-96388614D01*
X163274000Y-96400000D01*
X162500000Y-96400000D01*
X162500000Y-97200000D01*
X164373500Y-97200000D01*
X164441621Y-97220002D01*
X164488114Y-97273658D01*
X164499500Y-97326000D01*
X164499500Y-99123500D01*
X164479498Y-99191621D01*
X164425842Y-99238114D01*
X164373500Y-99249500D01*
X159426000Y-99249500D01*
X159357879Y-99229498D01*
X159311386Y-99175842D01*
X159300000Y-99123500D01*
X159300000Y-96639990D01*
X159320002Y-96571869D01*
X159323049Y-96567346D01*
X160500000Y-94900000D01*
X160500000Y-90726000D01*
X160520002Y-90657879D01*
X160573658Y-90611386D01*
X160626000Y-90600000D01*
X163274000Y-90600000D01*
X163342121Y-90620002D01*
G37*
%TD.AperFunction*%
%TD*%
M02*
